%TF.GenerationSoftware,KiCad,Pcbnew,8.0.0*%
%TF.CreationDate,2024-03-20T19:05:42-04:00*%
%TF.ProjectId,level-shifted,6c657665-6c2d-4736-9869-667465642e6b,rev?*%
%TF.SameCoordinates,Original*%
%TF.FileFunction,Copper,L4,Bot*%
%TF.FilePolarity,Positive*%
%FSLAX46Y46*%
G04 Gerber Fmt 4.6, Leading zero omitted, Abs format (unit mm)*
G04 Created by KiCad (PCBNEW 8.0.0) date 2024-03-20 19:05:42*
%MOMM*%
%LPD*%
G01*
G04 APERTURE LIST*
G04 Aperture macros list*
%AMFreePoly0*
4,1,19,0.500000,-0.750000,0.000000,-0.750000,0.000000,-0.744911,-0.071157,-0.744911,-0.207708,-0.704816,-0.327430,-0.627875,-0.420627,-0.520320,-0.479746,-0.390866,-0.500000,-0.250000,-0.500000,0.250000,-0.479746,0.390866,-0.420627,0.520320,-0.327430,0.627875,-0.207708,0.704816,-0.071157,0.744911,0.000000,0.744911,0.000000,0.750000,0.500000,0.750000,0.500000,-0.750000,0.500000,-0.750000,
$1*%
%AMFreePoly1*
4,1,19,0.000000,0.744911,0.071157,0.744911,0.207708,0.704816,0.327430,0.627875,0.420627,0.520320,0.479746,0.390866,0.500000,0.250000,0.500000,-0.250000,0.479746,-0.390866,0.420627,-0.520320,0.327430,-0.627875,0.207708,-0.704816,0.071157,-0.744911,0.000000,-0.744911,0.000000,-0.750000,-0.500000,-0.750000,-0.500000,0.750000,0.000000,0.750000,0.000000,0.744911,0.000000,0.744911,
$1*%
G04 Aperture macros list end*
%TA.AperFunction,ComponentPad*%
%ADD10R,1.000000X1.000000*%
%TD*%
%TA.AperFunction,ComponentPad*%
%ADD11O,1.000000X1.000000*%
%TD*%
%TA.AperFunction,ComponentPad*%
%ADD12R,1.700000X1.700000*%
%TD*%
%TA.AperFunction,ComponentPad*%
%ADD13O,1.700000X1.700000*%
%TD*%
%TA.AperFunction,SMDPad,CuDef*%
%ADD14R,2.500000X2.500000*%
%TD*%
%TA.AperFunction,SMDPad,CuDef*%
%ADD15FreePoly0,180.000000*%
%TD*%
%TA.AperFunction,SMDPad,CuDef*%
%ADD16FreePoly1,180.000000*%
%TD*%
%TA.AperFunction,ViaPad*%
%ADD17C,0.800000*%
%TD*%
%TA.AperFunction,Conductor*%
%ADD18C,0.250000*%
%TD*%
G04 APERTURE END LIST*
D10*
%TO.P,J110,1,Pin_1*%
%TO.N,unconnected-(J110-Pin_1-Pad1)*%
X153690000Y-92500000D03*
D11*
%TO.P,J110,2,Pin_2*%
%TO.N,unconnected-(J110-Pin_2-Pad2)*%
X154960000Y-92500000D03*
%TO.P,J110,3,Pin_3*%
%TO.N,unconnected-(J110-Pin_3-Pad3)*%
X156230000Y-92500000D03*
%TO.P,J110,4,Pin_4*%
%TO.N,unconnected-(J110-Pin_4-Pad4)*%
X157500000Y-92500000D03*
%TO.P,J110,5,Pin_5*%
%TO.N,unconnected-(J110-Pin_5-Pad5)*%
X158770000Y-92500000D03*
%TO.P,J110,6,Pin_6*%
%TO.N,LVRW*%
X160040000Y-92500000D03*
%TO.P,J110,7,Pin_7*%
%TO.N,LVDEN*%
X161310000Y-92500000D03*
%TO.P,J110,8,Pin_8*%
%TO.N,3V3*%
X162580000Y-92500000D03*
%TO.P,J110,9,Pin_9*%
%TO.N,LVPHI2*%
X163850000Y-92500000D03*
%TD*%
D10*
%TO.P,J109,1,Pin_1*%
%TO.N,/LVA8*%
X140880000Y-92500000D03*
D11*
%TO.P,J109,2,Pin_2*%
%TO.N,/LVA9*%
X142150000Y-92500000D03*
%TO.P,J109,3,Pin_3*%
%TO.N,/LVA10*%
X143420000Y-92500000D03*
%TO.P,J109,4,Pin_4*%
%TO.N,/LVA11*%
X144690000Y-92500000D03*
%TO.P,J109,5,Pin_5*%
%TO.N,/LVA12*%
X145960000Y-92500000D03*
%TO.P,J109,6,Pin_6*%
%TO.N,/LVA13*%
X147230000Y-92500000D03*
%TO.P,J109,7,Pin_7*%
%TO.N,/LVA14*%
X148500000Y-92500000D03*
%TO.P,J109,8,Pin_8*%
%TO.N,3V3*%
X149770000Y-92500000D03*
%TO.P,J109,9,Pin_9*%
%TO.N,/LVA15*%
X151040000Y-92500000D03*
%TD*%
D10*
%TO.P,J107,1,Pin_1*%
%TO.N,/LVA0*%
X127650000Y-92500000D03*
D11*
%TO.P,J107,2,Pin_2*%
%TO.N,/LVA1*%
X128920000Y-92500000D03*
%TO.P,J107,3,Pin_3*%
%TO.N,/LVA2*%
X130190000Y-92500000D03*
%TO.P,J107,4,Pin_4*%
%TO.N,/LVA3*%
X131460000Y-92500000D03*
%TO.P,J107,5,Pin_5*%
%TO.N,/LVA4*%
X132730000Y-92500000D03*
%TO.P,J107,6,Pin_6*%
%TO.N,/LVA5*%
X134000000Y-92500000D03*
%TO.P,J107,7,Pin_7*%
%TO.N,/LVA6*%
X135270000Y-92500000D03*
%TO.P,J107,8,Pin_8*%
%TO.N,3V3*%
X136540000Y-92500000D03*
%TO.P,J107,9,Pin_9*%
%TO.N,/LVA7*%
X137810000Y-92500000D03*
%TD*%
D10*
%TO.P,J106,1,Pin_1*%
%TO.N,LVD0*%
X166425000Y-92415000D03*
D11*
%TO.P,J106,2,Pin_2*%
%TO.N,LVD1*%
X167695000Y-92415000D03*
%TO.P,J106,3,Pin_3*%
%TO.N,LVD2*%
X168965000Y-92415000D03*
%TO.P,J106,4,Pin_4*%
%TO.N,LVD3*%
X170235000Y-92415000D03*
%TO.P,J106,5,Pin_5*%
%TO.N,LVD4*%
X171505000Y-92415000D03*
%TO.P,J106,6,Pin_6*%
%TO.N,LVD5*%
X172775000Y-92415000D03*
%TO.P,J106,7,Pin_7*%
%TO.N,LVD6*%
X174045000Y-92415000D03*
%TO.P,J106,8,Pin_8*%
%TO.N,3V3*%
X175315000Y-92415000D03*
%TO.P,J106,9,Pin_9*%
%TO.N,LVD7*%
X176585000Y-92415000D03*
%TD*%
D10*
%TO.P,J105,1,Pin_1*%
%TO.N,/HVA8*%
X141000000Y-109000000D03*
D11*
%TO.P,J105,2,Pin_2*%
%TO.N,/HVA9*%
X142270000Y-109000000D03*
%TO.P,J105,3,Pin_3*%
%TO.N,/HVA10*%
X143540000Y-109000000D03*
%TO.P,J105,4,Pin_4*%
%TO.N,/HVA11*%
X144810000Y-109000000D03*
%TO.P,J105,5,Pin_5*%
%TO.N,/HVA12*%
X146080000Y-109000000D03*
%TO.P,J105,6,Pin_6*%
%TO.N,/HVA13*%
X147350000Y-109000000D03*
%TO.P,J105,7,Pin_7*%
%TO.N,/HVA14*%
X148620000Y-109000000D03*
%TO.P,J105,8,Pin_8*%
%TO.N,5V*%
X149890000Y-109000000D03*
%TO.P,J105,9,Pin_9*%
%TO.N,/HVA15*%
X151160000Y-109000000D03*
%TD*%
%TO.P,J103,9,Pin_9*%
%TO.N,/HVA7*%
X138310000Y-109000000D03*
%TO.P,J103,8,Pin_8*%
%TO.N,5V*%
X137040000Y-109000000D03*
%TO.P,J103,7,Pin_7*%
%TO.N,/HVA6*%
X135770000Y-109000000D03*
%TO.P,J103,6,Pin_6*%
%TO.N,/HVA5*%
X134500000Y-109000000D03*
%TO.P,J103,5,Pin_5*%
%TO.N,/HVA4*%
X133230000Y-109000000D03*
%TO.P,J103,4,Pin_4*%
%TO.N,/HVA3*%
X131960000Y-109000000D03*
%TO.P,J103,3,Pin_3*%
%TO.N,/HVA2*%
X130690000Y-109000000D03*
%TO.P,J103,2,Pin_2*%
%TO.N,/HVA1*%
X129420000Y-109000000D03*
D10*
%TO.P,J103,1,Pin_1*%
%TO.N,/HVA0*%
X128150000Y-109000000D03*
%TD*%
%TO.P,J102,1,Pin_1*%
%TO.N,unconnected-(J102-Pin_1-Pad1)*%
X153690000Y-109000000D03*
D11*
%TO.P,J102,2,Pin_2*%
%TO.N,unconnected-(J102-Pin_2-Pad2)*%
X154960000Y-109000000D03*
%TO.P,J102,3,Pin_3*%
%TO.N,unconnected-(J102-Pin_3-Pad3)*%
X156230000Y-109000000D03*
%TO.P,J102,4,Pin_4*%
%TO.N,unconnected-(J102-Pin_4-Pad4)*%
X157500000Y-109000000D03*
%TO.P,J102,5,Pin_5*%
%TO.N,unconnected-(J102-Pin_5-Pad5)*%
X158770000Y-109000000D03*
%TO.P,J102,6,Pin_6*%
%TO.N,HVRW*%
X160040000Y-109000000D03*
%TO.P,J102,7,Pin_7*%
%TO.N,HVDEN*%
X161310000Y-109000000D03*
%TO.P,J102,8,Pin_8*%
%TO.N,5V*%
X162580000Y-109000000D03*
%TO.P,J102,9,Pin_9*%
%TO.N,HVPHI2*%
X163850000Y-109000000D03*
%TD*%
D10*
%TO.P,J101,1,Pin_1*%
%TO.N,HVD0*%
X166500000Y-109000000D03*
D11*
%TO.P,J101,2,Pin_2*%
%TO.N,HVD1*%
X167770000Y-109000000D03*
%TO.P,J101,3,Pin_3*%
%TO.N,HVD2*%
X169040000Y-109000000D03*
%TO.P,J101,4,Pin_4*%
%TO.N,HVD3*%
X170310000Y-109000000D03*
%TO.P,J101,5,Pin_5*%
%TO.N,HVD4*%
X171580000Y-109000000D03*
%TO.P,J101,6,Pin_6*%
%TO.N,HVD5*%
X172850000Y-109000000D03*
%TO.P,J101,7,Pin_7*%
%TO.N,HVD6*%
X174120000Y-109000000D03*
%TO.P,J101,8,Pin_8*%
%TO.N,5V*%
X175390000Y-109000000D03*
%TO.P,J101,9,Pin_9*%
%TO.N,HVD7*%
X176660000Y-109000000D03*
%TD*%
D12*
%TO.P,J104,1,GND*%
%TO.N,GND*%
X128650000Y-115570000D03*
D13*
%TO.P,J104,2,GND*%
X128650000Y-113030000D03*
%TO.P,J104,3,VCC*%
%TO.N,5V*%
X131190000Y-115570000D03*
%TO.P,J104,4,~{RESET}*%
%TO.N,unconnected-(J104-~{RESET}-Pad4)*%
X131190000Y-113030000D03*
%TO.P,J104,5,A0*%
%TO.N,/HVA0*%
X133730000Y-115570000D03*
%TO.P,J104,6,A1*%
%TO.N,/HVA1*%
X133730000Y-113030000D03*
%TO.P,J104,7,A2*%
%TO.N,/HVA2*%
X136270000Y-115570000D03*
%TO.P,J104,8,A3*%
%TO.N,/HVA3*%
X136270000Y-113030000D03*
%TO.P,J104,9,A4*%
%TO.N,/HVA4*%
X138810000Y-115570000D03*
%TO.P,J104,10,A5*%
%TO.N,/HVA5*%
X138810000Y-113030000D03*
%TO.P,J104,11,A6*%
%TO.N,/HVA6*%
X141350000Y-115570000D03*
%TO.P,J104,12,A7*%
%TO.N,/HVA7*%
X141350000Y-113030000D03*
%TO.P,J104,13,A8*%
%TO.N,/HVA8*%
X143890000Y-115570000D03*
%TO.P,J104,14,A9*%
%TO.N,/HVA9*%
X143890000Y-113030000D03*
%TO.P,J104,15,A10*%
%TO.N,/HVA10*%
X146430000Y-115570000D03*
%TO.P,J104,16,A11*%
%TO.N,/HVA11*%
X146430000Y-113030000D03*
%TO.P,J104,17,A12*%
%TO.N,/HVA12*%
X148970000Y-115570000D03*
%TO.P,J104,18,A13*%
%TO.N,/HVA13*%
X148970000Y-113030000D03*
%TO.P,J104,19,A14*%
%TO.N,/HVA14*%
X151510000Y-115570000D03*
%TO.P,J104,20,A15*%
%TO.N,/HVA15*%
X151510000Y-113030000D03*
%TO.P,J104,21,RW*%
%TO.N,HVRW*%
X154050000Y-115570000D03*
%TO.P,J104,22,PH2*%
%TO.N,HVPHI2*%
X154050000Y-113030000D03*
%TO.P,J104,23,D0*%
%TO.N,HVD0*%
X156590000Y-115570000D03*
%TO.P,J104,24,D1*%
%TO.N,HVD1*%
X156590000Y-113030000D03*
%TO.P,J104,25,D2*%
%TO.N,HVD2*%
X159130000Y-115570000D03*
%TO.P,J104,26,D3*%
%TO.N,HVD3*%
X159130000Y-113030000D03*
%TO.P,J104,27,D4*%
%TO.N,HVD4*%
X161670000Y-115570000D03*
%TO.P,J104,28,D5*%
%TO.N,HVD5*%
X161670000Y-113030000D03*
%TO.P,J104,29,D6*%
%TO.N,HVD6*%
X164210000Y-115570000D03*
%TO.P,J104,30,D7*%
%TO.N,HVD7*%
X164210000Y-113030000D03*
%TO.P,J104,31,SYNC*%
%TO.N,unconnected-(J104-SYNC-Pad31)*%
X166750000Y-115570000D03*
%TO.P,J104,32,RDY*%
%TO.N,unconnected-(J104-RDY-Pad32)*%
X166750000Y-113030000D03*
%TO.P,J104,33,NMI*%
%TO.N,unconnected-(J104-NMI-Pad33)*%
X169290000Y-115570000D03*
%TO.P,J104,34,TAPE*%
%TO.N,unconnected-(J104-TAPE-Pad34)*%
X169290000Y-113030000D03*
%TO.P,J104,35,DEN*%
%TO.N,HVDEN*%
X171830000Y-115570000D03*
%TO.P,J104,36,SST*%
%TO.N,unconnected-(J104-SST-Pad36)*%
X171830000Y-113030000D03*
%TO.P,J104,37,IO3*%
%TO.N,unconnected-(J104-IO3-Pad37)*%
X174370000Y-115570000D03*
%TO.P,J104,38,PB7*%
%TO.N,unconnected-(J104-PB7-Pad38)*%
X174370000Y-113030000D03*
%TO.P,J104,39,PH1*%
%TO.N,unconnected-(J104-PH1-Pad39)*%
X176910000Y-115570000D03*
%TO.P,J104,40,IRQ*%
%TO.N,unconnected-(J104-IRQ-Pad40)*%
X176910000Y-113030000D03*
%TD*%
%TO.P,U104,1,GPIO0*%
%TO.N,/LVA0*%
X127870000Y-85890000D03*
%TO.P,U104,2,GPIO1*%
%TO.N,/LVA1*%
X130410000Y-85890000D03*
D12*
%TO.P,U104,3,GND*%
%TO.N,GND*%
X132950000Y-85890000D03*
D13*
%TO.P,U104,4,GPIO2*%
%TO.N,/LVA2*%
X135490000Y-85890000D03*
%TO.P,U104,5,GPIO3*%
%TO.N,/LVA3*%
X138030000Y-85890000D03*
%TO.P,U104,6,GPIO4*%
%TO.N,/LVA4*%
X140570000Y-85890000D03*
%TO.P,U104,7,GPIO5*%
%TO.N,/LVA5*%
X143110000Y-85890000D03*
D12*
%TO.P,U104,8,GND*%
%TO.N,GND*%
X145650000Y-85890000D03*
D13*
%TO.P,U104,9,GPIO6*%
%TO.N,/LVA6*%
X148190000Y-85890000D03*
%TO.P,U104,10,GPIO7*%
%TO.N,/LVA7*%
X150730000Y-85890000D03*
%TO.P,U104,11,GPIO8*%
%TO.N,/LVA8*%
X153270000Y-85890000D03*
%TO.P,U104,12,GPIO9*%
%TO.N,/LVA9*%
X155810000Y-85890000D03*
D12*
%TO.P,U104,13,GND*%
%TO.N,GND*%
X158350000Y-85890000D03*
D13*
%TO.P,U104,14,GPIO10*%
%TO.N,/LVA10*%
X160890000Y-85890000D03*
%TO.P,U104,15,GPIO11*%
%TO.N,/LVA11*%
X163430000Y-85890000D03*
%TO.P,U104,16,GPIO12*%
%TO.N,/LVA12*%
X165970000Y-85890000D03*
%TO.P,U104,17,GPIO13*%
%TO.N,/LVA13*%
X168510000Y-85890000D03*
D12*
%TO.P,U104,18,GND*%
%TO.N,GND*%
X171050000Y-85890000D03*
D13*
%TO.P,U104,19,GPIO14*%
%TO.N,/LVA14*%
X173590000Y-85890000D03*
%TO.P,U104,20,GPIO15*%
%TO.N,/LVA15*%
X176130000Y-85890000D03*
%TO.P,U104,21,GPIO16*%
%TO.N,LVD7*%
X176130000Y-68110000D03*
%TO.P,U104,22,GPIO17*%
%TO.N,LVD6*%
X173590000Y-68110000D03*
D12*
%TO.P,U104,23,GND*%
%TO.N,GND*%
X171050000Y-68110000D03*
D13*
%TO.P,U104,24,GPIO18*%
%TO.N,LVD5*%
X168510000Y-68110000D03*
%TO.P,U104,25,GPIO19*%
%TO.N,LVD4*%
X165970000Y-68110000D03*
%TO.P,U104,26,GPIO20*%
%TO.N,LVD3*%
X163430000Y-68110000D03*
%TO.P,U104,27,GPIO21*%
%TO.N,LVD2*%
X160890000Y-68110000D03*
D12*
%TO.P,U104,28,GND*%
%TO.N,GND*%
X158350000Y-68110000D03*
D13*
%TO.P,U104,29,GPIO22*%
%TO.N,LVD1*%
X155810000Y-68110000D03*
%TO.P,U104,30,RUN*%
%TO.N,Net-(SW101-A)*%
X153270000Y-68110000D03*
%TO.P,U104,31,GPIO26_ADC0*%
%TO.N,LVD0*%
X150730000Y-68110000D03*
%TO.P,U104,32,GPIO27_ADC1*%
%TO.N,LVRW*%
X148190000Y-68110000D03*
D12*
%TO.P,U104,33,AGND*%
%TO.N,GND*%
X145650000Y-68110000D03*
D13*
%TO.P,U104,34,GPIO28_ADC2*%
%TO.N,/DEN*%
X143110000Y-68110000D03*
%TO.P,U104,35,ADC_VREF*%
%TO.N,unconnected-(U104-ADC_VREF-Pad35)*%
X140570000Y-68110000D03*
%TO.P,U104,36,3V3*%
%TO.N,3V3*%
X138030000Y-68110000D03*
%TO.P,U104,37,3V3_EN*%
%TO.N,unconnected-(U104-3V3_EN-Pad37)*%
X135490000Y-68110000D03*
D12*
%TO.P,U104,38,GND*%
%TO.N,unconnected-(U104-GND-Pad38)_0*%
X132950000Y-68110000D03*
D13*
%TO.P,U104,39,VSYS*%
%TO.N,Net-(D102-K)*%
X130410000Y-68110000D03*
%TO.P,U104,40,VBUS*%
%TO.N,unconnected-(U104-VBUS-Pad40)_0*%
X127870000Y-68110000D03*
%TO.P,U104,41,SWCLK*%
%TO.N,unconnected-(U104-SWCLK-Pad41)_0*%
X175900000Y-79540000D03*
D12*
%TO.P,U104,42,GND*%
%TO.N,GND*%
X175900000Y-77000000D03*
D13*
%TO.P,U104,43,SWDIO*%
%TO.N,unconnected-(U104-SWDIO-Pad43)_0*%
X175900000Y-74460000D03*
%TD*%
D14*
%TO.P,TP101,1,1*%
%TO.N,LVPHI2*%
X145000000Y-74000000D03*
%TD*%
D15*
%TO.P,JP101,1,A*%
%TO.N,/DEN*%
X160150000Y-82000000D03*
D16*
%TO.P,JP101,2,B*%
%TO.N,LVDEN*%
X158850000Y-82000000D03*
%TD*%
D17*
%TO.N,3V3*%
X137972800Y-69900800D03*
X139395200Y-69494400D03*
X136347200Y-69646800D03*
%TO.N,5V*%
X131114800Y-117602000D03*
X129489200Y-117449600D03*
X132537200Y-117500400D03*
X155803600Y-103174800D03*
%TO.N,/DEN*%
X162966400Y-90525600D03*
X159766000Y-84124800D03*
%TO.N,Net-(D102-K)*%
X150672800Y-104292400D03*
%TO.N,5V*%
X154000000Y-104500000D03*
%TO.N,GND*%
X155500000Y-101000000D03*
%TO.N,3V3*%
X128000000Y-97000000D03*
%TO.N,GND*%
X137500000Y-96500000D03*
%TO.N,3V3*%
X139000000Y-97500000D03*
%TO.N,GND*%
X149000000Y-94500000D03*
%TO.N,3V3*%
X157100000Y-97535356D03*
%TO.N,GND*%
X165319145Y-97209000D03*
%TO.N,/DEN*%
X167500000Y-97500000D03*
%TO.N,GND*%
X175463200Y-94488000D03*
X157000000Y-103500000D03*
X165500000Y-107000000D03*
X167335200Y-103733600D03*
X175885000Y-107000000D03*
X148500000Y-106500000D03*
X139000000Y-103500000D03*
X136898221Y-106717800D03*
X128000000Y-103500000D03*
%TD*%
D18*
%TO.N,Net-(D102-K)*%
X150672800Y-104292400D02*
X150520400Y-104444800D01*
X126695000Y-85403299D02*
X128379899Y-83718400D01*
X128379899Y-83718400D02*
X141427200Y-83718400D01*
X150520400Y-104444800D02*
X150520400Y-107492800D01*
X128879600Y-107492800D02*
X126695000Y-105308200D01*
X150520400Y-107492800D02*
X128879600Y-107492800D01*
X126695000Y-105308200D02*
X126695000Y-85403299D01*
X142341600Y-82804000D02*
X142341600Y-72796400D01*
X141427200Y-83718400D02*
X142341600Y-82804000D01*
X142341600Y-72796400D02*
X140970000Y-71424800D01*
X140970000Y-71424800D02*
X133724800Y-71424800D01*
X133724800Y-71424800D02*
X130410000Y-68110000D01*
%TO.N,3V3*%
X138030000Y-68110000D02*
X138030000Y-69843600D01*
X138030000Y-69843600D02*
X137972800Y-69900800D01*
%TO.N,5V*%
X131190000Y-115570000D02*
X129489200Y-117270800D01*
X129489200Y-117270800D02*
X129489200Y-117449600D01*
%TO.N,LVD7*%
X177894400Y-69874400D02*
X176130000Y-68110000D01*
X176585000Y-92415000D02*
X177894400Y-91105600D01*
X177894400Y-91105600D02*
X177894400Y-69874400D01*
%TO.N,LVD0*%
X166425000Y-92415000D02*
X167250000Y-91590000D01*
X177444400Y-86410800D02*
X177444400Y-72948800D01*
X167250000Y-91590000D02*
X172265200Y-91590000D01*
X175869600Y-71374000D02*
X153994000Y-71374000D01*
X172265200Y-91590000D02*
X177444400Y-86410800D01*
X177444400Y-72948800D02*
X175869600Y-71374000D01*
X153994000Y-71374000D02*
X150730000Y-68110000D01*
%TO.N,/LVA13*%
X153162388Y-89945200D02*
X154178388Y-88929200D01*
%TO.N,/LVA12*%
X158411592Y-88479200D02*
X158883592Y-88007200D01*
%TO.N,/LVA11*%
X153348396Y-88486400D02*
X153805596Y-88029200D01*
%TO.N,/LVA14*%
X154212384Y-89531600D02*
X158631984Y-89531600D01*
%TO.N,/LVA11*%
X153805596Y-88029200D02*
X158225196Y-88029200D01*
X158697196Y-87557200D02*
X161762800Y-87557200D01*
%TO.N,/LVA14*%
X148500000Y-92500000D02*
X150604800Y-90395200D01*
%TO.N,/LVA13*%
X165942800Y-88457200D02*
X168510000Y-85890000D01*
%TO.N,/LVA12*%
X145960000Y-92500000D02*
X148964800Y-89495200D01*
%TO.N,/LVA13*%
X159069988Y-88457200D02*
X165942800Y-88457200D01*
%TO.N,/LVA12*%
X148964800Y-89495200D02*
X152975992Y-89495200D01*
%TO.N,/LVA14*%
X158631984Y-89531600D02*
X159256384Y-88907200D01*
%TO.N,/LVA15*%
X172662800Y-89357200D02*
X176130000Y-85890000D01*
X159442780Y-89357200D02*
X172662800Y-89357200D01*
%TO.N,/LVA11*%
X144690000Y-92500000D02*
X148703600Y-88486400D01*
X161762800Y-87557200D02*
X163430000Y-85890000D01*
%TO.N,/LVA15*%
X158818380Y-89981600D02*
X159442780Y-89357200D01*
X154398780Y-89981600D02*
X158818380Y-89981600D01*
%TO.N,/LVA14*%
X170572800Y-88907200D02*
X173590000Y-85890000D01*
%TO.N,/LVA9*%
X152771620Y-87586400D02*
X153250820Y-87107200D01*
%TO.N,/LVA15*%
X151880380Y-92500000D02*
X154398780Y-89981600D01*
%TO.N,/LVA14*%
X153348784Y-90395200D02*
X154212384Y-89531600D01*
%TO.N,/LVA10*%
X147883600Y-88036400D02*
X153162000Y-88036400D01*
%TO.N,/LVA14*%
X150604800Y-90395200D02*
X153348784Y-90395200D01*
%TO.N,/LVA12*%
X163852800Y-88007200D02*
X165970000Y-85890000D01*
%TO.N,/LVA14*%
X159256384Y-88907200D02*
X170572800Y-88907200D01*
%TO.N,/LVA13*%
X147230000Y-92500000D02*
X149784800Y-89945200D01*
X149784800Y-89945200D02*
X153162388Y-89945200D01*
X158597988Y-88929200D02*
X159069988Y-88457200D01*
%TO.N,/LVA12*%
X152975992Y-89495200D02*
X153991992Y-88479200D01*
%TO.N,/LVA9*%
X147063600Y-87586400D02*
X152771620Y-87586400D01*
%TO.N,/LVA11*%
X158225196Y-88029200D02*
X158697196Y-87557200D01*
%TO.N,/LVA8*%
X145493600Y-87136400D02*
X152023600Y-87136400D01*
%TO.N,/LVA9*%
X142150000Y-92500000D02*
X147063600Y-87586400D01*
%TO.N,/LVA8*%
X152023600Y-87136400D02*
X153270000Y-85890000D01*
%TO.N,/LVA12*%
X153991992Y-88479200D02*
X158411592Y-88479200D01*
%TO.N,/LVA9*%
X153250820Y-87107200D02*
X154592800Y-87107200D01*
X154592800Y-87107200D02*
X155810000Y-85890000D01*
%TO.N,/LVA10*%
X143420000Y-92500000D02*
X147883600Y-88036400D01*
%TO.N,/LVA13*%
X154178388Y-88929200D02*
X158597988Y-88929200D01*
%TO.N,/LVA12*%
X158883592Y-88007200D02*
X163852800Y-88007200D01*
%TO.N,/LVA8*%
X140880000Y-92500000D02*
X140880000Y-91750000D01*
%TO.N,/LVA15*%
X151040000Y-92500000D02*
X151880380Y-92500000D01*
%TO.N,/LVA8*%
X140880000Y-91750000D02*
X145493600Y-87136400D01*
%TO.N,/LVA11*%
X148703600Y-88486400D02*
X153348396Y-88486400D01*
%TO.N,/LVA10*%
X153162000Y-88036400D02*
X153619200Y-87579200D01*
X153619200Y-87579200D02*
X158038800Y-87579200D01*
X158038800Y-87579200D02*
X158553000Y-87065000D01*
X158553000Y-87065000D02*
X159715000Y-87065000D01*
X159715000Y-87065000D02*
X160890000Y-85890000D01*
%TO.N,/DEN*%
X167500000Y-94983273D02*
X163042327Y-90525600D01*
X167500000Y-97500000D02*
X167500000Y-94983273D01*
X163042327Y-90525600D02*
X162966400Y-90525600D01*
X159816800Y-83870800D02*
X159816800Y-84074000D01*
X159816800Y-84074000D02*
X159766000Y-84124800D01*
X159816800Y-83870800D02*
X159816800Y-82333200D01*
%TO.N,LVPHI2*%
X139605000Y-93511396D02*
X139605000Y-88516701D01*
%TO.N,LVDEN*%
X144475000Y-86309200D02*
X144475000Y-84715000D01*
%TO.N,LVPHI2*%
X162575000Y-93775000D02*
X139868604Y-93775000D01*
%TO.N,LVDEN*%
X147190000Y-82000000D02*
X158850000Y-82000000D01*
%TO.N,LVPHI2*%
X163850000Y-92500000D02*
X162575000Y-93775000D01*
%TO.N,LVDEN*%
X144475000Y-84715000D02*
X147190000Y-82000000D01*
%TO.N,LVPHI2*%
X139868604Y-93775000D02*
X139605000Y-93511396D01*
X139605000Y-88516701D02*
X141935000Y-86186701D01*
X141935000Y-86186701D02*
X141935000Y-84074200D01*
X141935000Y-84074200D02*
X145000000Y-81009200D01*
X145000000Y-81009200D02*
X145000000Y-74000000D01*
%TO.N,LVDEN*%
X160485000Y-93325000D02*
X140055000Y-93325000D01*
X161310000Y-92500000D02*
X160485000Y-93325000D01*
X140055000Y-93325000D02*
X140055000Y-90729200D01*
X140055000Y-90729200D02*
X144475000Y-86309200D01*
%TO.N,/DEN*%
X159816800Y-82333200D02*
X160150000Y-82000000D01*
X160150000Y-82000000D02*
X160150000Y-81245000D01*
X148190000Y-69285000D02*
X144285000Y-69285000D01*
X160150000Y-81245000D02*
X148190000Y-69285000D01*
X144285000Y-69285000D02*
X143110000Y-68110000D01*
%TO.N,HVD1*%
X167327106Y-110150000D02*
X167770000Y-109707106D01*
%TO.N,HVDEN*%
X152875000Y-114893299D02*
X153563299Y-114205000D01*
%TO.N,HVD1*%
X156590000Y-113030000D02*
X159170000Y-110450000D01*
%TO.N,HVDEN*%
X153563299Y-114205000D02*
X154536701Y-114205000D01*
%TO.N,HVD1*%
X167770000Y-109707106D02*
X167770000Y-109000000D01*
%TO.N,HVDEN*%
X155415000Y-113326701D02*
X155415000Y-112543299D01*
%TO.N,HVD1*%
X159170000Y-110450000D02*
X160496396Y-110450000D01*
X160496396Y-110450000D02*
X160796396Y-110150000D01*
X160796396Y-110150000D02*
X167327106Y-110150000D01*
%TO.N,HVDEN*%
X171830000Y-115570000D02*
X170655000Y-116745000D01*
X170655000Y-116745000D02*
X153563299Y-116745000D01*
X153563299Y-116745000D02*
X152875000Y-116056701D01*
X152875000Y-116056701D02*
X152875000Y-114893299D01*
X154536701Y-114205000D02*
X155415000Y-113326701D01*
X155415000Y-112543299D02*
X157958299Y-110000000D01*
X157958299Y-110000000D02*
X160310000Y-110000000D01*
X160310000Y-110000000D02*
X161310000Y-109000000D01*
%TO.N,HVD5*%
X163650000Y-111050000D02*
X170800000Y-111050000D01*
X161670000Y-113030000D02*
X163650000Y-111050000D01*
%TO.N,HVD3*%
X161560000Y-110600000D02*
X168710000Y-110600000D01*
%TO.N,HVD7*%
X165740000Y-111500000D02*
X174160000Y-111500000D01*
%TO.N,HVD3*%
X159130000Y-113030000D02*
X161560000Y-110600000D01*
%TO.N,HVD5*%
X170800000Y-111050000D02*
X172850000Y-109000000D01*
%TO.N,HVD7*%
X164210000Y-113030000D02*
X165740000Y-111500000D01*
%TO.N,HVD3*%
X168710000Y-110600000D02*
X170310000Y-109000000D01*
%TO.N,HVD7*%
X174160000Y-111500000D02*
X176660000Y-109000000D01*
%TO.N,HVPHI2*%
X154050000Y-113030000D02*
X152865000Y-111845000D01*
X160850000Y-106000000D02*
X163850000Y-109000000D01*
X152865000Y-111845000D02*
X152865000Y-106135000D01*
X152865000Y-106135000D02*
X153000000Y-106000000D01*
X153000000Y-106000000D02*
X160850000Y-106000000D01*
%TD*%
M02*
