M48
; DRILL file {KiCad 8.0.0} date 2024-03-20T19:05:42-0400
; FORMAT={-:-/ absolute / inch / decimal}
; #@! TF.CreationDate,2024-03-20T19:05:42-04:00
; #@! TF.GenerationSoftware,Kicad,Pcbnew,8.0.0
; #@! TF.FileFunction,Plated,1,4,PTH
FMAT,2
INCH
; #@! TA.AperFunction,Plated,PTH,ViaDrill
T1C0.0157
; #@! TA.AperFunction,Plated,PTH,ComponentDrill
T2C0.0256
; #@! TA.AperFunction,Plated,PTH,ComponentDrill
T3C0.0394
; #@! TA.AperFunction,Plated,PTH,ComponentDrill
T4C0.0402
%
G90
G05
T1
X5.0394Y-3.8189
X5.0394Y-4.0748
X5.098Y-4.624
X5.162Y-4.63
X5.218Y-4.626
X5.368Y-2.742
X5.3897Y-4.2015
X5.4134Y-3.7992
X5.432Y-2.752
X5.4724Y-3.8386
X5.4724Y-4.0748
X5.488Y-2.736
X5.8465Y-4.1929
X5.8661Y-3.7205
X5.932Y-4.106
X6.063Y-4.1142
X6.122Y-3.9764
X6.134Y-4.062
X6.1811Y-4.0748
X6.185Y-3.84
X6.29Y-3.312
X6.416Y-3.564
X6.5086Y-3.8271
X6.5157Y-4.2126
X6.588Y-4.084
X6.5945Y-3.8386
X6.908Y-3.72
X6.9246Y-4.2126
T2
X5.0256Y-3.6417
X5.0453Y-4.2913
X5.0756Y-3.6417
X5.0953Y-4.2913
X5.1256Y-3.6417
X5.1453Y-4.2913
X5.1756Y-3.6417
X5.1953Y-4.2913
X5.2256Y-3.6417
X5.2453Y-4.2913
X5.2756Y-3.6417
X5.2953Y-4.2913
X5.3256Y-3.6417
X5.3453Y-4.2913
X5.3756Y-3.6417
X5.3953Y-4.2913
X5.4256Y-3.6417
X5.4453Y-4.2913
X5.5465Y-3.6417
X5.5512Y-4.2913
X5.5965Y-3.6417
X5.6012Y-4.2913
X5.6465Y-3.6417
X5.6512Y-4.2913
X5.6965Y-3.6417
X5.7012Y-4.2913
X5.7465Y-3.6417
X5.7512Y-4.2913
X5.7965Y-3.6417
X5.8012Y-4.2913
X5.8465Y-3.6417
X5.8512Y-4.2913
X5.8965Y-3.6417
X5.9012Y-4.2913
X5.9465Y-3.6417
X5.9512Y-4.2913
X6.0508Y-3.6417
X6.0508Y-4.2913
X6.1008Y-3.6417
X6.1008Y-4.2913
X6.1508Y-3.6417
X6.1508Y-4.2913
X6.2008Y-3.6417
X6.2008Y-4.2913
X6.2508Y-3.6417
X6.2508Y-4.2913
X6.3008Y-3.6417
X6.3008Y-4.2913
X6.3508Y-3.6417
X6.3508Y-4.2913
X6.4008Y-3.6417
X6.4008Y-4.2913
X6.4508Y-3.6417
X6.4508Y-4.2913
X6.5522Y-3.6384
X6.5551Y-4.2913
X6.6022Y-3.6384
X6.6051Y-4.2913
X6.6522Y-3.6384
X6.6551Y-4.2913
X6.7022Y-3.6384
X6.7051Y-4.2913
X6.7522Y-3.6384
X6.7551Y-4.2913
X6.8022Y-3.6384
X6.8051Y-4.2913
X6.8522Y-3.6384
X6.8551Y-4.2913
X6.9022Y-3.6384
X6.9051Y-4.2913
X6.9522Y-3.6384
X6.9551Y-4.2913
T3
X5.065Y-4.45
X5.065Y-4.55
X5.165Y-4.45
X5.165Y-4.55
X5.265Y-4.45
X5.265Y-4.55
X5.365Y-4.45
X5.365Y-4.55
X5.465Y-4.45
X5.465Y-4.55
X5.565Y-4.45
X5.565Y-4.55
X5.665Y-4.45
X5.665Y-4.55
X5.765Y-4.45
X5.765Y-4.55
X5.865Y-4.45
X5.865Y-4.55
X5.965Y-4.45
X5.965Y-4.55
X6.065Y-4.45
X6.065Y-4.55
X6.165Y-4.45
X6.165Y-4.55
X6.265Y-4.45
X6.265Y-4.55
X6.365Y-4.45
X6.365Y-4.55
X6.465Y-4.45
X6.465Y-4.55
X6.565Y-4.45
X6.565Y-4.55
X6.665Y-4.45
X6.665Y-4.55
X6.765Y-4.45
X6.765Y-4.55
X6.865Y-4.45
X6.865Y-4.55
X6.965Y-4.45
X6.965Y-4.55
T4
X5.0343Y-2.6815
X5.0343Y-3.3815
X5.1343Y-2.6815
X5.1343Y-3.3815
X5.2343Y-2.6815
X5.2343Y-3.3815
X5.3343Y-2.6815
X5.3343Y-3.3815
X5.4343Y-2.6815
X5.4343Y-3.3815
X5.5343Y-2.6815
X5.5343Y-3.3815
X5.6343Y-2.6815
X5.6343Y-3.3815
X5.7343Y-2.6815
X5.7343Y-3.3815
X5.8343Y-2.6815
X5.8343Y-3.3815
X5.9343Y-2.6815
X5.9343Y-3.3815
X6.0343Y-2.6815
X6.0343Y-3.3815
X6.1343Y-2.6815
X6.1343Y-3.3815
X6.2343Y-2.6815
X6.2343Y-3.3815
X6.3343Y-2.6815
X6.3343Y-3.3815
X6.4343Y-2.6815
X6.4343Y-3.3815
X6.5343Y-2.6815
X6.5343Y-3.3815
X6.6343Y-2.6815
X6.6343Y-3.3815
X6.7343Y-2.6815
X6.7343Y-3.3815
X6.8343Y-2.6815
X6.8343Y-3.3815
X6.9252Y-2.9315
X6.9252Y-3.0315
X6.9252Y-3.1315
X6.9343Y-2.6815
X6.9343Y-3.3815
M30
