%TF.GenerationSoftware,KiCad,Pcbnew,8.0.0*%
%TF.CreationDate,2024-03-20T20:27:36-04:00*%
%TF.ProjectId,level-shifted,6c657665-6c2d-4736-9869-667465642e6b,rev?*%
%TF.SameCoordinates,Original*%
%TF.FileFunction,Copper,L2,Inr*%
%TF.FilePolarity,Positive*%
%FSLAX46Y46*%
G04 Gerber Fmt 4.6, Leading zero omitted, Abs format (unit mm)*
G04 Created by KiCad (PCBNEW 8.0.0) date 2024-03-20 20:27:36*
%MOMM*%
%LPD*%
G01*
G04 APERTURE LIST*
%TA.AperFunction,ComponentPad*%
%ADD10R,1.000000X1.000000*%
%TD*%
%TA.AperFunction,ComponentPad*%
%ADD11O,1.000000X1.000000*%
%TD*%
%TA.AperFunction,ComponentPad*%
%ADD12R,1.700000X1.700000*%
%TD*%
%TA.AperFunction,ComponentPad*%
%ADD13O,1.700000X1.700000*%
%TD*%
%TA.AperFunction,ViaPad*%
%ADD14C,0.800000*%
%TD*%
%TA.AperFunction,Conductor*%
%ADD15C,0.250000*%
%TD*%
G04 APERTURE END LIST*
D10*
%TO.N,/LVA8*%
%TO.C,J109*%
X140880000Y-92500000D03*
D11*
%TO.N,/LVA9*%
X142150000Y-92500000D03*
%TO.N,/LVA10*%
X143420000Y-92500000D03*
%TO.N,/LVA11*%
X144690000Y-92500000D03*
%TO.N,/LVA12*%
X145960000Y-92500000D03*
%TO.N,/LVA13*%
X147230000Y-92500000D03*
%TO.N,/LVA14*%
X148500000Y-92500000D03*
%TO.N,3V3*%
X149770000Y-92500000D03*
%TO.N,/LVA15*%
X151040000Y-92500000D03*
%TD*%
D10*
%TO.N,/LVA0*%
%TO.C,J107*%
X127650000Y-92500000D03*
D11*
%TO.N,/LVA1*%
X128920000Y-92500000D03*
%TO.N,/LVA2*%
X130190000Y-92500000D03*
%TO.N,/LVA3*%
X131460000Y-92500000D03*
%TO.N,/LVA4*%
X132730000Y-92500000D03*
%TO.N,/LVA5*%
X134000000Y-92500000D03*
%TO.N,/LVA6*%
X135270000Y-92500000D03*
%TO.N,3V3*%
X136540000Y-92500000D03*
%TO.N,/LVA7*%
X137810000Y-92500000D03*
%TD*%
D10*
%TO.N,/HVA0*%
%TO.C,J103*%
X128150000Y-109000000D03*
D11*
%TO.N,/HVA1*%
X129420000Y-109000000D03*
%TO.N,/HVA2*%
X130690000Y-109000000D03*
%TO.N,/HVA3*%
X131960000Y-109000000D03*
%TO.N,/HVA4*%
X133230000Y-109000000D03*
%TO.N,/HVA5*%
X134500000Y-109000000D03*
%TO.N,/HVA6*%
X135770000Y-109000000D03*
%TO.N,5V*%
X137040000Y-109000000D03*
%TO.N,/HVA7*%
X138310000Y-109000000D03*
%TD*%
D10*
%TO.N,unconnected-(J110-Pin_1-Pad1)*%
%TO.C,J110*%
X153690000Y-92500000D03*
D11*
%TO.N,unconnected-(J110-Pin_2-Pad2)*%
X154960000Y-92500000D03*
%TO.N,unconnected-(J110-Pin_3-Pad3)*%
X156230000Y-92500000D03*
%TO.N,unconnected-(J110-Pin_4-Pad4)*%
X157500000Y-92500000D03*
%TO.N,unconnected-(J110-Pin_5-Pad5)*%
X158770000Y-92500000D03*
%TO.N,LVRW*%
X160040000Y-92500000D03*
%TO.N,LVDEN*%
X161310000Y-92500000D03*
%TO.N,3V3*%
X162580000Y-92500000D03*
%TO.N,LVPHI2*%
X163850000Y-92500000D03*
%TD*%
D10*
%TO.N,LVD0*%
%TO.C,J106*%
X166425000Y-92415000D03*
D11*
%TO.N,LVD1*%
X167695000Y-92415000D03*
%TO.N,LVD2*%
X168965000Y-92415000D03*
%TO.N,LVD3*%
X170235000Y-92415000D03*
%TO.N,LVD4*%
X171505000Y-92415000D03*
%TO.N,LVD5*%
X172775000Y-92415000D03*
%TO.N,LVD6*%
X174045000Y-92415000D03*
%TO.N,3V3*%
X175315000Y-92415000D03*
%TO.N,LVD7*%
X176585000Y-92415000D03*
%TD*%
D12*
%TO.N,GND*%
%TO.C,J104*%
X128650000Y-115570000D03*
D13*
X128650000Y-113030000D03*
%TO.N,5V*%
X131190000Y-115570000D03*
%TO.N,unconnected-(J104-~{RESET}-Pad4)*%
X131190000Y-113030000D03*
%TO.N,/HVA0*%
X133730000Y-115570000D03*
%TO.N,/HVA1*%
X133730000Y-113030000D03*
%TO.N,/HVA2*%
X136270000Y-115570000D03*
%TO.N,/HVA3*%
X136270000Y-113030000D03*
%TO.N,/HVA4*%
X138810000Y-115570000D03*
%TO.N,/HVA5*%
X138810000Y-113030000D03*
%TO.N,/HVA6*%
X141350000Y-115570000D03*
%TO.N,/HVA7*%
X141350000Y-113030000D03*
%TO.N,/HVA8*%
X143890000Y-115570000D03*
%TO.N,/HVA9*%
X143890000Y-113030000D03*
%TO.N,/HVA10*%
X146430000Y-115570000D03*
%TO.N,/HVA11*%
X146430000Y-113030000D03*
%TO.N,/HVA12*%
X148970000Y-115570000D03*
%TO.N,/HVA13*%
X148970000Y-113030000D03*
%TO.N,/HVA14*%
X151510000Y-115570000D03*
%TO.N,/HVA15*%
X151510000Y-113030000D03*
%TO.N,HVRW*%
X154050000Y-115570000D03*
%TO.N,HVPHI2*%
X154050000Y-113030000D03*
%TO.N,HVD0*%
X156590000Y-115570000D03*
%TO.N,HVD1*%
X156590000Y-113030000D03*
%TO.N,HVD2*%
X159130000Y-115570000D03*
%TO.N,HVD3*%
X159130000Y-113030000D03*
%TO.N,HVD4*%
X161670000Y-115570000D03*
%TO.N,HVD5*%
X161670000Y-113030000D03*
%TO.N,HVD6*%
X164210000Y-115570000D03*
%TO.N,HVD7*%
X164210000Y-113030000D03*
%TO.N,unconnected-(J104-SYNC-Pad31)*%
X166750000Y-115570000D03*
%TO.N,unconnected-(J104-RDY-Pad32)*%
X166750000Y-113030000D03*
%TO.N,unconnected-(J104-NMI-Pad33)*%
X169290000Y-115570000D03*
%TO.N,unconnected-(J104-TAPE-Pad34)*%
X169290000Y-113030000D03*
%TO.N,HVDEN*%
X171830000Y-115570000D03*
%TO.N,unconnected-(J104-SST-Pad36)*%
X171830000Y-113030000D03*
%TO.N,unconnected-(J104-IO3-Pad37)*%
X174370000Y-115570000D03*
%TO.N,unconnected-(J104-PB7-Pad38)*%
X174370000Y-113030000D03*
%TO.N,unconnected-(J104-PH1-Pad39)*%
X176910000Y-115570000D03*
%TO.N,unconnected-(J104-IRQ-Pad40)*%
X176910000Y-113030000D03*
%TD*%
D10*
%TO.N,HVD0*%
%TO.C,J101*%
X166500000Y-109000000D03*
D11*
%TO.N,HVD1*%
X167770000Y-109000000D03*
%TO.N,HVD2*%
X169040000Y-109000000D03*
%TO.N,HVD3*%
X170310000Y-109000000D03*
%TO.N,HVD4*%
X171580000Y-109000000D03*
%TO.N,HVD5*%
X172850000Y-109000000D03*
%TO.N,HVD6*%
X174120000Y-109000000D03*
%TO.N,5V*%
X175390000Y-109000000D03*
%TO.N,HVD7*%
X176660000Y-109000000D03*
%TD*%
D10*
%TO.N,/HVA8*%
%TO.C,J105*%
X141000000Y-109000000D03*
D11*
%TO.N,/HVA9*%
X142270000Y-109000000D03*
%TO.N,/HVA10*%
X143540000Y-109000000D03*
%TO.N,/HVA11*%
X144810000Y-109000000D03*
%TO.N,/HVA12*%
X146080000Y-109000000D03*
%TO.N,/HVA13*%
X147350000Y-109000000D03*
%TO.N,/HVA14*%
X148620000Y-109000000D03*
%TO.N,5V*%
X149890000Y-109000000D03*
%TO.N,/HVA15*%
X151160000Y-109000000D03*
%TD*%
D10*
%TO.N,unconnected-(J102-Pin_1-Pad1)*%
%TO.C,J102*%
X153690000Y-109000000D03*
D11*
%TO.N,unconnected-(J102-Pin_2-Pad2)*%
X154960000Y-109000000D03*
%TO.N,unconnected-(J102-Pin_3-Pad3)*%
X156230000Y-109000000D03*
%TO.N,unconnected-(J102-Pin_4-Pad4)*%
X157500000Y-109000000D03*
%TO.N,unconnected-(J102-Pin_5-Pad5)*%
X158770000Y-109000000D03*
%TO.N,HVRW*%
X160040000Y-109000000D03*
%TO.N,HVDEN*%
X161310000Y-109000000D03*
%TO.N,5V*%
X162580000Y-109000000D03*
%TO.N,HVPHI2*%
X163850000Y-109000000D03*
%TD*%
D13*
%TO.N,/LVA0*%
%TO.C,U104*%
X127870000Y-85890000D03*
%TO.N,/LVA1*%
X130410000Y-85890000D03*
D12*
%TO.N,GND*%
X132950000Y-85890000D03*
D13*
%TO.N,/LVA2*%
X135490000Y-85890000D03*
%TO.N,/LVA3*%
X138030000Y-85890000D03*
%TO.N,/LVA4*%
X140570000Y-85890000D03*
%TO.N,/LVA5*%
X143110000Y-85890000D03*
D12*
%TO.N,GND*%
X145650000Y-85890000D03*
D13*
%TO.N,/LVA6*%
X148190000Y-85890000D03*
%TO.N,/LVA7*%
X150730000Y-85890000D03*
%TO.N,/LVA8*%
X153270000Y-85890000D03*
%TO.N,/LVA9*%
X155810000Y-85890000D03*
D12*
%TO.N,GND*%
X158350000Y-85890000D03*
D13*
%TO.N,/LVA10*%
X160890000Y-85890000D03*
%TO.N,/LVA11*%
X163430000Y-85890000D03*
%TO.N,/LVA12*%
X165970000Y-85890000D03*
%TO.N,/LVA13*%
X168510000Y-85890000D03*
D12*
%TO.N,GND*%
X171050000Y-85890000D03*
D13*
%TO.N,/LVA14*%
X173590000Y-85890000D03*
%TO.N,/LVA15*%
X176130000Y-85890000D03*
%TO.N,LVD0*%
X176130000Y-68110000D03*
%TO.N,LVD1*%
X173590000Y-68110000D03*
D12*
%TO.N,GND*%
X171050000Y-68110000D03*
D13*
%TO.N,LVD2*%
X168510000Y-68110000D03*
%TO.N,LVD3*%
X165970000Y-68110000D03*
%TO.N,LVD4*%
X163430000Y-68110000D03*
%TO.N,LVD5*%
X160890000Y-68110000D03*
D12*
%TO.N,GND*%
X158350000Y-68110000D03*
D13*
%TO.N,LVD6*%
X155810000Y-68110000D03*
%TO.N,Net-(SW101-A)*%
X153270000Y-68110000D03*
%TO.N,LVD7*%
X150730000Y-68110000D03*
%TO.N,LVRW*%
X148190000Y-68110000D03*
D12*
%TO.N,GND*%
X145650000Y-68110000D03*
D13*
%TO.N,/DEN*%
X143110000Y-68110000D03*
%TO.N,unconnected-(U104-ADC_VREF-Pad35)*%
X140570000Y-68110000D03*
%TO.N,3V3*%
X138030000Y-68110000D03*
%TO.N,unconnected-(U104-3V3_EN-Pad37)*%
X135490000Y-68110000D03*
D12*
%TO.N,unconnected-(U104-GND-Pad38)_0*%
X132950000Y-68110000D03*
D13*
%TO.N,Net-(D102-K)*%
X130410000Y-68110000D03*
%TO.N,unconnected-(U104-VBUS-Pad40)_0*%
X127870000Y-68110000D03*
%TO.N,unconnected-(U104-SWCLK-Pad41)_0*%
X175900000Y-79540000D03*
D12*
%TO.N,GND*%
X175900000Y-77000000D03*
D13*
%TO.N,unconnected-(U104-SWDIO-Pad43)_0*%
X175900000Y-74460000D03*
%TD*%
D14*
%TO.N,GND*%
X149225004Y-105275000D03*
X155500000Y-101000000D03*
X167149996Y-96025000D03*
X167500000Y-103875000D03*
X177300001Y-105500001D03*
X137650000Y-96025000D03*
X139425000Y-103463000D03*
X149300000Y-95775000D03*
X177025000Y-96025000D03*
X128475000Y-103709000D03*
X165766000Y-106734008D03*
X157550000Y-103709000D03*
X136898221Y-106717800D03*
%TO.N,/DEN*%
X162966400Y-90525600D03*
X159766000Y-84124800D03*
X167735323Y-98131705D03*
%TO.N,Net-(D102-K)*%
X150672800Y-104292400D03*
%TO.N,3V3*%
X137972800Y-69900800D03*
X139425000Y-97738000D03*
X136347200Y-69646800D03*
X157350000Y-97975000D03*
X128350000Y-98025000D03*
X139395200Y-69494400D03*
%TO.N,5V*%
X156325000Y-103075000D03*
X131114800Y-117602000D03*
X132537200Y-117500400D03*
X153500000Y-104474996D03*
X129489200Y-117449600D03*
%TD*%
D15*
%TO.N,5V*%
X131190000Y-117526800D02*
X131114800Y-117602000D01*
X131190000Y-115570000D02*
X131190000Y-117526800D01*
%TD*%
%TA.AperFunction,Conductor*%
%TO.N,GND*%
G36*
X128900000Y-115136988D02*
G01*
X128842993Y-115104075D01*
X128715826Y-115070000D01*
X128584174Y-115070000D01*
X128457007Y-115104075D01*
X128400000Y-115136988D01*
X128400000Y-113463012D01*
X128457007Y-113495925D01*
X128584174Y-113530000D01*
X128715826Y-113530000D01*
X128842993Y-113495925D01*
X128900000Y-113463012D01*
X128900000Y-115136988D01*
G37*
%TD.AperFunction*%
%TA.AperFunction,Conductor*%
G36*
X177443039Y-62019685D02*
G01*
X177488794Y-62072489D01*
X177500000Y-62124000D01*
X177500000Y-92175572D01*
X177480315Y-92242611D01*
X177427511Y-92288366D01*
X177358353Y-92298310D01*
X177294797Y-92269285D01*
X177260058Y-92219543D01*
X177211660Y-92091928D01*
X177209818Y-92087070D01*
X177113183Y-91947071D01*
X177009762Y-91855448D01*
X176985849Y-91834263D01*
X176835226Y-91755210D01*
X176670056Y-91714500D01*
X176499944Y-91714500D01*
X176334773Y-91755210D01*
X176184150Y-91834263D01*
X176056815Y-91947072D01*
X176052049Y-91953978D01*
X175997766Y-91997968D01*
X175928317Y-92005627D01*
X175865753Y-91974523D01*
X175847951Y-91953978D01*
X175843184Y-91947072D01*
X175715849Y-91834263D01*
X175565226Y-91755210D01*
X175400056Y-91714500D01*
X175229944Y-91714500D01*
X175064773Y-91755210D01*
X174914150Y-91834263D01*
X174786815Y-91947072D01*
X174782049Y-91953978D01*
X174727766Y-91997968D01*
X174658317Y-92005627D01*
X174595753Y-91974523D01*
X174577951Y-91953978D01*
X174573184Y-91947072D01*
X174445849Y-91834263D01*
X174295226Y-91755210D01*
X174130056Y-91714500D01*
X173959944Y-91714500D01*
X173794773Y-91755210D01*
X173644150Y-91834263D01*
X173516815Y-91947072D01*
X173512049Y-91953978D01*
X173457766Y-91997968D01*
X173388317Y-92005627D01*
X173325753Y-91974523D01*
X173307951Y-91953978D01*
X173303184Y-91947072D01*
X173175849Y-91834263D01*
X173025226Y-91755210D01*
X172860056Y-91714500D01*
X172689944Y-91714500D01*
X172524773Y-91755210D01*
X172374150Y-91834263D01*
X172246815Y-91947072D01*
X172242049Y-91953978D01*
X172187766Y-91997968D01*
X172118317Y-92005627D01*
X172055753Y-91974523D01*
X172037951Y-91953978D01*
X172033184Y-91947072D01*
X171905849Y-91834263D01*
X171755226Y-91755210D01*
X171590056Y-91714500D01*
X171419944Y-91714500D01*
X171254773Y-91755210D01*
X171104150Y-91834263D01*
X170976815Y-91947072D01*
X170972049Y-91953978D01*
X170917766Y-91997968D01*
X170848317Y-92005627D01*
X170785753Y-91974523D01*
X170767951Y-91953978D01*
X170763184Y-91947072D01*
X170635849Y-91834263D01*
X170485226Y-91755210D01*
X170320056Y-91714500D01*
X170149944Y-91714500D01*
X169984773Y-91755210D01*
X169834150Y-91834263D01*
X169706815Y-91947072D01*
X169702049Y-91953978D01*
X169647766Y-91997968D01*
X169578317Y-92005627D01*
X169515753Y-91974523D01*
X169497951Y-91953978D01*
X169493184Y-91947072D01*
X169365849Y-91834263D01*
X169215226Y-91755210D01*
X169050056Y-91714500D01*
X168879944Y-91714500D01*
X168714773Y-91755210D01*
X168564150Y-91834263D01*
X168436815Y-91947072D01*
X168432049Y-91953978D01*
X168377766Y-91997968D01*
X168308317Y-92005627D01*
X168245753Y-91974523D01*
X168227951Y-91953978D01*
X168223184Y-91947072D01*
X168095849Y-91834263D01*
X167945226Y-91755210D01*
X167780056Y-91714500D01*
X167609944Y-91714500D01*
X167444773Y-91755210D01*
X167294149Y-91834264D01*
X167294147Y-91834266D01*
X167286223Y-91841286D01*
X167222989Y-91871005D01*
X167153726Y-91861820D01*
X167100897Y-91817358D01*
X167069553Y-91770448D01*
X167003230Y-91726132D01*
X167003229Y-91726131D01*
X166944752Y-91714500D01*
X166944748Y-91714500D01*
X165905252Y-91714500D01*
X165905247Y-91714500D01*
X165846770Y-91726131D01*
X165846769Y-91726132D01*
X165780447Y-91770447D01*
X165736132Y-91836769D01*
X165736131Y-91836770D01*
X165724500Y-91895247D01*
X165724500Y-92934752D01*
X165736131Y-92993229D01*
X165736132Y-92993230D01*
X165780447Y-93059552D01*
X165846769Y-93103867D01*
X165846770Y-93103868D01*
X165905247Y-93115499D01*
X165905250Y-93115500D01*
X165905252Y-93115500D01*
X166944750Y-93115500D01*
X166944751Y-93115499D01*
X166959568Y-93112552D01*
X167003229Y-93103868D01*
X167003229Y-93103867D01*
X167003231Y-93103867D01*
X167069552Y-93059552D01*
X167100899Y-93012638D01*
X167154508Y-92967836D01*
X167223833Y-92959127D01*
X167286225Y-92988715D01*
X167294148Y-92995734D01*
X167444775Y-93074790D01*
X167609944Y-93115500D01*
X167780056Y-93115500D01*
X167945225Y-93074790D01*
X168063639Y-93012641D01*
X168095849Y-92995736D01*
X168095850Y-92995734D01*
X168095852Y-92995734D01*
X168223183Y-92882929D01*
X168227950Y-92876021D01*
X168282230Y-92832033D01*
X168351678Y-92824372D01*
X168414244Y-92855473D01*
X168432046Y-92876017D01*
X168436817Y-92882929D01*
X168501771Y-92940473D01*
X168564150Y-92995736D01*
X168712729Y-93073716D01*
X168714775Y-93074790D01*
X168879944Y-93115500D01*
X169050056Y-93115500D01*
X169215225Y-93074790D01*
X169333639Y-93012641D01*
X169365849Y-92995736D01*
X169365850Y-92995734D01*
X169365852Y-92995734D01*
X169493183Y-92882929D01*
X169497950Y-92876021D01*
X169552230Y-92832033D01*
X169621678Y-92824372D01*
X169684244Y-92855473D01*
X169702046Y-92876017D01*
X169706817Y-92882929D01*
X169771771Y-92940473D01*
X169834150Y-92995736D01*
X169982729Y-93073716D01*
X169984775Y-93074790D01*
X170149944Y-93115500D01*
X170320056Y-93115500D01*
X170485225Y-93074790D01*
X170603639Y-93012641D01*
X170635849Y-92995736D01*
X170635850Y-92995734D01*
X170635852Y-92995734D01*
X170763183Y-92882929D01*
X170767950Y-92876021D01*
X170822230Y-92832033D01*
X170891678Y-92824372D01*
X170954244Y-92855473D01*
X170972046Y-92876017D01*
X170976817Y-92882929D01*
X171041771Y-92940473D01*
X171104150Y-92995736D01*
X171252729Y-93073716D01*
X171254775Y-93074790D01*
X171419944Y-93115500D01*
X171590056Y-93115500D01*
X171755225Y-93074790D01*
X171873639Y-93012641D01*
X171905849Y-92995736D01*
X171905850Y-92995734D01*
X171905852Y-92995734D01*
X172033183Y-92882929D01*
X172037950Y-92876021D01*
X172092230Y-92832033D01*
X172161678Y-92824372D01*
X172224244Y-92855473D01*
X172242046Y-92876017D01*
X172246817Y-92882929D01*
X172311771Y-92940473D01*
X172374150Y-92995736D01*
X172522729Y-93073716D01*
X172524775Y-93074790D01*
X172689944Y-93115500D01*
X172860056Y-93115500D01*
X173025225Y-93074790D01*
X173143639Y-93012641D01*
X173175849Y-92995736D01*
X173175850Y-92995734D01*
X173175852Y-92995734D01*
X173303183Y-92882929D01*
X173307950Y-92876021D01*
X173362230Y-92832033D01*
X173431678Y-92824372D01*
X173494244Y-92855473D01*
X173512046Y-92876017D01*
X173516817Y-92882929D01*
X173581771Y-92940473D01*
X173644150Y-92995736D01*
X173792729Y-93073716D01*
X173794775Y-93074790D01*
X173959944Y-93115500D01*
X174130056Y-93115500D01*
X174295225Y-93074790D01*
X174413639Y-93012641D01*
X174445849Y-92995736D01*
X174445850Y-92995734D01*
X174445852Y-92995734D01*
X174573183Y-92882929D01*
X174577950Y-92876021D01*
X174632230Y-92832033D01*
X174701678Y-92824372D01*
X174764244Y-92855473D01*
X174782046Y-92876017D01*
X174786817Y-92882929D01*
X174851771Y-92940473D01*
X174914150Y-92995736D01*
X175062729Y-93073716D01*
X175064775Y-93074790D01*
X175229944Y-93115500D01*
X175400056Y-93115500D01*
X175565225Y-93074790D01*
X175683639Y-93012641D01*
X175715849Y-92995736D01*
X175715850Y-92995734D01*
X175715852Y-92995734D01*
X175843183Y-92882929D01*
X175847950Y-92876021D01*
X175902230Y-92832033D01*
X175971678Y-92824372D01*
X176034244Y-92855473D01*
X176052046Y-92876017D01*
X176056817Y-92882929D01*
X176121771Y-92940473D01*
X176184150Y-92995736D01*
X176332729Y-93073716D01*
X176334775Y-93074790D01*
X176499944Y-93115500D01*
X176670056Y-93115500D01*
X176835225Y-93074790D01*
X176953639Y-93012641D01*
X176985849Y-92995736D01*
X176985850Y-92995734D01*
X176985852Y-92995734D01*
X177113183Y-92882929D01*
X177209818Y-92742930D01*
X177260058Y-92610455D01*
X177302236Y-92554753D01*
X177367833Y-92530696D01*
X177436023Y-92545923D01*
X177485157Y-92595598D01*
X177500000Y-92654427D01*
X177500000Y-108585885D01*
X177480315Y-108652924D01*
X177427511Y-108698679D01*
X177358353Y-108708623D01*
X177294797Y-108679598D01*
X177273950Y-108656325D01*
X177266685Y-108645800D01*
X177188183Y-108532071D01*
X177068776Y-108426286D01*
X177060849Y-108419263D01*
X176910226Y-108340210D01*
X176745056Y-108299500D01*
X176574944Y-108299500D01*
X176409773Y-108340210D01*
X176259150Y-108419263D01*
X176131815Y-108532072D01*
X176127049Y-108538978D01*
X176072766Y-108582968D01*
X176003317Y-108590627D01*
X175940753Y-108559523D01*
X175922951Y-108538978D01*
X175918184Y-108532072D01*
X175790849Y-108419263D01*
X175640226Y-108340210D01*
X175475056Y-108299500D01*
X175304944Y-108299500D01*
X175139773Y-108340210D01*
X174989150Y-108419263D01*
X174861815Y-108532072D01*
X174857049Y-108538978D01*
X174802766Y-108582968D01*
X174733317Y-108590627D01*
X174670753Y-108559523D01*
X174652951Y-108538978D01*
X174648184Y-108532072D01*
X174520849Y-108419263D01*
X174370226Y-108340210D01*
X174205056Y-108299500D01*
X174034944Y-108299500D01*
X173869773Y-108340210D01*
X173719150Y-108419263D01*
X173591815Y-108532072D01*
X173587049Y-108538978D01*
X173532766Y-108582968D01*
X173463317Y-108590627D01*
X173400753Y-108559523D01*
X173382951Y-108538978D01*
X173378184Y-108532072D01*
X173250849Y-108419263D01*
X173100226Y-108340210D01*
X172935056Y-108299500D01*
X172764944Y-108299500D01*
X172599773Y-108340210D01*
X172449150Y-108419263D01*
X172321815Y-108532072D01*
X172317049Y-108538978D01*
X172262766Y-108582968D01*
X172193317Y-108590627D01*
X172130753Y-108559523D01*
X172112951Y-108538978D01*
X172108184Y-108532072D01*
X171980849Y-108419263D01*
X171830226Y-108340210D01*
X171665056Y-108299500D01*
X171494944Y-108299500D01*
X171329773Y-108340210D01*
X171179150Y-108419263D01*
X171051815Y-108532072D01*
X171047049Y-108538978D01*
X170992766Y-108582968D01*
X170923317Y-108590627D01*
X170860753Y-108559523D01*
X170842951Y-108538978D01*
X170838184Y-108532072D01*
X170710849Y-108419263D01*
X170560226Y-108340210D01*
X170395056Y-108299500D01*
X170224944Y-108299500D01*
X170059773Y-108340210D01*
X169909150Y-108419263D01*
X169781815Y-108532072D01*
X169777049Y-108538978D01*
X169722766Y-108582968D01*
X169653317Y-108590627D01*
X169590753Y-108559523D01*
X169572951Y-108538978D01*
X169568184Y-108532072D01*
X169440849Y-108419263D01*
X169290226Y-108340210D01*
X169125056Y-108299500D01*
X168954944Y-108299500D01*
X168789773Y-108340210D01*
X168639150Y-108419263D01*
X168511815Y-108532072D01*
X168507049Y-108538978D01*
X168452766Y-108582968D01*
X168383317Y-108590627D01*
X168320753Y-108559523D01*
X168302951Y-108538978D01*
X168298184Y-108532072D01*
X168170849Y-108419263D01*
X168020226Y-108340210D01*
X167855056Y-108299500D01*
X167684944Y-108299500D01*
X167519773Y-108340210D01*
X167369149Y-108419264D01*
X167369147Y-108419266D01*
X167361223Y-108426286D01*
X167297989Y-108456005D01*
X167228726Y-108446820D01*
X167175897Y-108402358D01*
X167144553Y-108355448D01*
X167078230Y-108311132D01*
X167078229Y-108311131D01*
X167019752Y-108299500D01*
X167019748Y-108299500D01*
X165980252Y-108299500D01*
X165980247Y-108299500D01*
X165921770Y-108311131D01*
X165921769Y-108311132D01*
X165855447Y-108355447D01*
X165811132Y-108421769D01*
X165811131Y-108421770D01*
X165799500Y-108480247D01*
X165799500Y-109519752D01*
X165811131Y-109578229D01*
X165811132Y-109578230D01*
X165855447Y-109644552D01*
X165921769Y-109688867D01*
X165921770Y-109688868D01*
X165980247Y-109700499D01*
X165980250Y-109700500D01*
X165980252Y-109700500D01*
X167019750Y-109700500D01*
X167019751Y-109700499D01*
X167034568Y-109697552D01*
X167078229Y-109688868D01*
X167078229Y-109688867D01*
X167078231Y-109688867D01*
X167144552Y-109644552D01*
X167175899Y-109597638D01*
X167229508Y-109552836D01*
X167298833Y-109544127D01*
X167361225Y-109573715D01*
X167369148Y-109580734D01*
X167519775Y-109659790D01*
X167684944Y-109700500D01*
X167855056Y-109700500D01*
X168020225Y-109659790D01*
X168138639Y-109597641D01*
X168170849Y-109580736D01*
X168170850Y-109580734D01*
X168170852Y-109580734D01*
X168298183Y-109467929D01*
X168302950Y-109461021D01*
X168357230Y-109417033D01*
X168426678Y-109409372D01*
X168489244Y-109440473D01*
X168507046Y-109461017D01*
X168511817Y-109467929D01*
X168597827Y-109544127D01*
X168639150Y-109580736D01*
X168789773Y-109659789D01*
X168789775Y-109659790D01*
X168954944Y-109700500D01*
X169125056Y-109700500D01*
X169290225Y-109659790D01*
X169408639Y-109597641D01*
X169440849Y-109580736D01*
X169440850Y-109580734D01*
X169440852Y-109580734D01*
X169568183Y-109467929D01*
X169572950Y-109461021D01*
X169627230Y-109417033D01*
X169696678Y-109409372D01*
X169759244Y-109440473D01*
X169777046Y-109461017D01*
X169781817Y-109467929D01*
X169867827Y-109544127D01*
X169909150Y-109580736D01*
X170059773Y-109659789D01*
X170059775Y-109659790D01*
X170224944Y-109700500D01*
X170395056Y-109700500D01*
X170560225Y-109659790D01*
X170678639Y-109597641D01*
X170710849Y-109580736D01*
X170710850Y-109580734D01*
X170710852Y-109580734D01*
X170838183Y-109467929D01*
X170842950Y-109461021D01*
X170897230Y-109417033D01*
X170966678Y-109409372D01*
X171029244Y-109440473D01*
X171047046Y-109461017D01*
X171051817Y-109467929D01*
X171137827Y-109544127D01*
X171179150Y-109580736D01*
X171329773Y-109659789D01*
X171329775Y-109659790D01*
X171494944Y-109700500D01*
X171665056Y-109700500D01*
X171830225Y-109659790D01*
X171948639Y-109597641D01*
X171980849Y-109580736D01*
X171980850Y-109580734D01*
X171980852Y-109580734D01*
X172108183Y-109467929D01*
X172112950Y-109461021D01*
X172167230Y-109417033D01*
X172236678Y-109409372D01*
X172299244Y-109440473D01*
X172317046Y-109461017D01*
X172321817Y-109467929D01*
X172407827Y-109544127D01*
X172449150Y-109580736D01*
X172599773Y-109659789D01*
X172599775Y-109659790D01*
X172764944Y-109700500D01*
X172935056Y-109700500D01*
X173100225Y-109659790D01*
X173218639Y-109597641D01*
X173250849Y-109580736D01*
X173250850Y-109580734D01*
X173250852Y-109580734D01*
X173378183Y-109467929D01*
X173382950Y-109461021D01*
X173437230Y-109417033D01*
X173506678Y-109409372D01*
X173569244Y-109440473D01*
X173587046Y-109461017D01*
X173591817Y-109467929D01*
X173677827Y-109544127D01*
X173719150Y-109580736D01*
X173869773Y-109659789D01*
X173869775Y-109659790D01*
X174034944Y-109700500D01*
X174205056Y-109700500D01*
X174370225Y-109659790D01*
X174488639Y-109597641D01*
X174520849Y-109580736D01*
X174520850Y-109580734D01*
X174520852Y-109580734D01*
X174648183Y-109467929D01*
X174652950Y-109461021D01*
X174707230Y-109417033D01*
X174776678Y-109409372D01*
X174839244Y-109440473D01*
X174857046Y-109461017D01*
X174861817Y-109467929D01*
X174947827Y-109544127D01*
X174989150Y-109580736D01*
X175139773Y-109659789D01*
X175139775Y-109659790D01*
X175304944Y-109700500D01*
X175475056Y-109700500D01*
X175640225Y-109659790D01*
X175758639Y-109597641D01*
X175790849Y-109580736D01*
X175790850Y-109580734D01*
X175790852Y-109580734D01*
X175918183Y-109467929D01*
X175922950Y-109461021D01*
X175977230Y-109417033D01*
X176046678Y-109409372D01*
X176109244Y-109440473D01*
X176127046Y-109461017D01*
X176131817Y-109467929D01*
X176217827Y-109544127D01*
X176259150Y-109580736D01*
X176409773Y-109659789D01*
X176409775Y-109659790D01*
X176574944Y-109700500D01*
X176745056Y-109700500D01*
X176910225Y-109659790D01*
X177028639Y-109597641D01*
X177060849Y-109580736D01*
X177060850Y-109580734D01*
X177060852Y-109580734D01*
X177188183Y-109467929D01*
X177273951Y-109343672D01*
X177328233Y-109299684D01*
X177397681Y-109292024D01*
X177460246Y-109323127D01*
X177496064Y-109383118D01*
X177500000Y-109414114D01*
X177500000Y-111947329D01*
X177480315Y-112014368D01*
X177427511Y-112060123D01*
X177358353Y-112070067D01*
X177317555Y-112056692D01*
X177313957Y-112054769D01*
X177180771Y-112014368D01*
X177115934Y-111994700D01*
X177115932Y-111994699D01*
X177115934Y-111994699D01*
X176910000Y-111974417D01*
X176704067Y-111994699D01*
X176506043Y-112054769D01*
X176395898Y-112113643D01*
X176323550Y-112152315D01*
X176323548Y-112152316D01*
X176323547Y-112152317D01*
X176163589Y-112283589D01*
X176032317Y-112443547D01*
X175934769Y-112626043D01*
X175874699Y-112824067D01*
X175854417Y-113030000D01*
X175874699Y-113235932D01*
X175874700Y-113235934D01*
X175934768Y-113433954D01*
X176032315Y-113616450D01*
X176032317Y-113616452D01*
X176163589Y-113776410D01*
X176260209Y-113855702D01*
X176323550Y-113907685D01*
X176506046Y-114005232D01*
X176704066Y-114065300D01*
X176704065Y-114065300D01*
X176722529Y-114067118D01*
X176910000Y-114085583D01*
X177115934Y-114065300D01*
X177313954Y-114005232D01*
X177317546Y-114003311D01*
X177385948Y-113989070D01*
X177451192Y-114014069D01*
X177492563Y-114070374D01*
X177500000Y-114112670D01*
X177500000Y-114487329D01*
X177480315Y-114554368D01*
X177427511Y-114600123D01*
X177358353Y-114610067D01*
X177317555Y-114596692D01*
X177313957Y-114594769D01*
X177180771Y-114554368D01*
X177115934Y-114534700D01*
X177115932Y-114534699D01*
X177115934Y-114534699D01*
X176910000Y-114514417D01*
X176704067Y-114534699D01*
X176506043Y-114594769D01*
X176472634Y-114612627D01*
X176323550Y-114692315D01*
X176323548Y-114692316D01*
X176323547Y-114692317D01*
X176163589Y-114823589D01*
X176032317Y-114983547D01*
X175934769Y-115166043D01*
X175874699Y-115364067D01*
X175854417Y-115570000D01*
X175874699Y-115775932D01*
X175874700Y-115775934D01*
X175934768Y-115973954D01*
X176032315Y-116156450D01*
X176032317Y-116156452D01*
X176163589Y-116316410D01*
X176260209Y-116395702D01*
X176323550Y-116447685D01*
X176506046Y-116545232D01*
X176704066Y-116605300D01*
X176704065Y-116605300D01*
X176722529Y-116607118D01*
X176910000Y-116625583D01*
X177115934Y-116605300D01*
X177313954Y-116545232D01*
X177317546Y-116543311D01*
X177385948Y-116529070D01*
X177451192Y-116554069D01*
X177492563Y-116610374D01*
X177500000Y-116652670D01*
X177500000Y-118376000D01*
X177480315Y-118443039D01*
X177427511Y-118488794D01*
X177376000Y-118500000D01*
X126624000Y-118500000D01*
X126556961Y-118480315D01*
X126511206Y-118427511D01*
X126500000Y-118376000D01*
X126500000Y-116467844D01*
X127300000Y-116467844D01*
X127306401Y-116527372D01*
X127306403Y-116527379D01*
X127356645Y-116662086D01*
X127356649Y-116662093D01*
X127442809Y-116777187D01*
X127442812Y-116777190D01*
X127557906Y-116863350D01*
X127557913Y-116863354D01*
X127692620Y-116913596D01*
X127692627Y-116913598D01*
X127752155Y-116919999D01*
X127752172Y-116920000D01*
X128400000Y-116920000D01*
X128400000Y-116003012D01*
X128457007Y-116035925D01*
X128584174Y-116070000D01*
X128715826Y-116070000D01*
X128842993Y-116035925D01*
X128900000Y-116003012D01*
X128900000Y-116920000D01*
X128905314Y-116925314D01*
X128954254Y-116939685D01*
X129000009Y-116992489D01*
X129009953Y-117061647D01*
X128985591Y-117119486D01*
X128964664Y-117146757D01*
X128904156Y-117292837D01*
X128904155Y-117292839D01*
X128883518Y-117449598D01*
X128883518Y-117449601D01*
X128904155Y-117606360D01*
X128904156Y-117606362D01*
X128964664Y-117752441D01*
X129060918Y-117877882D01*
X129186359Y-117974136D01*
X129332438Y-118034644D01*
X129410819Y-118044963D01*
X129489199Y-118055282D01*
X129489200Y-118055282D01*
X129489201Y-118055282D01*
X129541454Y-118048402D01*
X129645962Y-118034644D01*
X129792041Y-117974136D01*
X129917482Y-117877882D01*
X130013736Y-117752441D01*
X130074244Y-117606362D01*
X130088194Y-117500398D01*
X130094882Y-117449601D01*
X130094882Y-117449598D01*
X130074244Y-117292839D01*
X130074244Y-117292838D01*
X130013736Y-117146759D01*
X129917482Y-117021318D01*
X129917480Y-117021316D01*
X129917479Y-117021315D01*
X129856461Y-116974494D01*
X129815258Y-116918066D01*
X129811104Y-116848320D01*
X129845317Y-116787400D01*
X129856854Y-116777523D01*
X129857190Y-116777187D01*
X129943350Y-116662093D01*
X129943354Y-116662086D01*
X129993596Y-116527379D01*
X129993598Y-116527372D01*
X129999999Y-116467844D01*
X130000000Y-116467827D01*
X130000000Y-116067186D01*
X130019685Y-116000147D01*
X130072489Y-115954392D01*
X130141647Y-115944448D01*
X130205203Y-115973473D01*
X130233356Y-116008729D01*
X130312315Y-116156450D01*
X130312317Y-116156452D01*
X130443589Y-116316410D01*
X130540209Y-116395702D01*
X130603550Y-116447685D01*
X130786046Y-116545232D01*
X130786051Y-116545233D01*
X130787951Y-116546021D01*
X130788796Y-116546701D01*
X130791419Y-116548104D01*
X130791153Y-116548601D01*
X130842355Y-116589862D01*
X130864421Y-116656156D01*
X130864500Y-116660583D01*
X130864500Y-116975997D01*
X130844815Y-117043036D01*
X130815987Y-117074372D01*
X130686520Y-117173716D01*
X130686519Y-117173717D01*
X130686518Y-117173718D01*
X130622348Y-117257345D01*
X130590263Y-117299160D01*
X130529756Y-117445237D01*
X130529755Y-117445239D01*
X130509118Y-117601998D01*
X130509118Y-117602001D01*
X130529755Y-117758760D01*
X130529756Y-117758762D01*
X130590264Y-117904841D01*
X130686518Y-118030282D01*
X130811959Y-118126536D01*
X130958038Y-118187044D01*
X131036419Y-118197363D01*
X131114799Y-118207682D01*
X131114800Y-118207682D01*
X131114801Y-118207682D01*
X131167054Y-118200802D01*
X131271562Y-118187044D01*
X131417641Y-118126536D01*
X131543082Y-118030282D01*
X131639336Y-117904841D01*
X131699844Y-117758762D01*
X131710571Y-117677280D01*
X131738836Y-117613386D01*
X131797160Y-117574914D01*
X131867024Y-117574082D01*
X131926248Y-117611154D01*
X131947356Y-117650352D01*
X131949046Y-117649653D01*
X131952155Y-117657160D01*
X131952156Y-117657162D01*
X132012664Y-117803241D01*
X132108918Y-117928682D01*
X132234359Y-118024936D01*
X132380438Y-118085444D01*
X132458819Y-118095763D01*
X132537199Y-118106082D01*
X132537200Y-118106082D01*
X132537201Y-118106082D01*
X132589454Y-118099202D01*
X132693962Y-118085444D01*
X132840041Y-118024936D01*
X132965482Y-117928682D01*
X133061736Y-117803241D01*
X133122244Y-117657162D01*
X133142882Y-117500400D01*
X133136608Y-117452747D01*
X133122244Y-117343639D01*
X133122244Y-117343638D01*
X133061736Y-117197559D01*
X132965482Y-117072118D01*
X132840041Y-116975864D01*
X132693962Y-116915356D01*
X132693960Y-116915355D01*
X132537201Y-116894718D01*
X132537199Y-116894718D01*
X132380439Y-116915355D01*
X132380437Y-116915356D01*
X132234360Y-116975863D01*
X132108918Y-117072118D01*
X132012663Y-117197560D01*
X131952156Y-117343637D01*
X131952156Y-117343638D01*
X131941429Y-117425118D01*
X131913162Y-117489014D01*
X131854838Y-117527485D01*
X131784973Y-117528316D01*
X131725750Y-117491244D01*
X131704646Y-117452045D01*
X131702954Y-117452747D01*
X131699843Y-117445237D01*
X131639336Y-117299159D01*
X131639335Y-117299158D01*
X131639335Y-117299157D01*
X131541124Y-117171165D01*
X131515930Y-117105996D01*
X131515500Y-117095679D01*
X131515500Y-116660583D01*
X131535185Y-116593544D01*
X131587989Y-116547789D01*
X131592049Y-116546021D01*
X131593945Y-116545234D01*
X131593954Y-116545232D01*
X131776450Y-116447685D01*
X131936410Y-116316410D01*
X132067685Y-116156450D01*
X132165232Y-115973954D01*
X132225300Y-115775934D01*
X132245583Y-115570000D01*
X132674417Y-115570000D01*
X132694699Y-115775932D01*
X132694700Y-115775934D01*
X132754768Y-115973954D01*
X132852315Y-116156450D01*
X132852317Y-116156452D01*
X132983589Y-116316410D01*
X133080209Y-116395702D01*
X133143550Y-116447685D01*
X133326046Y-116545232D01*
X133524066Y-116605300D01*
X133524065Y-116605300D01*
X133542529Y-116607118D01*
X133730000Y-116625583D01*
X133935934Y-116605300D01*
X134133954Y-116545232D01*
X134316450Y-116447685D01*
X134476410Y-116316410D01*
X134607685Y-116156450D01*
X134705232Y-115973954D01*
X134765300Y-115775934D01*
X134785583Y-115570000D01*
X135214417Y-115570000D01*
X135234699Y-115775932D01*
X135234700Y-115775934D01*
X135294768Y-115973954D01*
X135392315Y-116156450D01*
X135392317Y-116156452D01*
X135523589Y-116316410D01*
X135620209Y-116395702D01*
X135683550Y-116447685D01*
X135866046Y-116545232D01*
X136064066Y-116605300D01*
X136064065Y-116605300D01*
X136082529Y-116607118D01*
X136270000Y-116625583D01*
X136475934Y-116605300D01*
X136673954Y-116545232D01*
X136856450Y-116447685D01*
X137016410Y-116316410D01*
X137147685Y-116156450D01*
X137245232Y-115973954D01*
X137305300Y-115775934D01*
X137325583Y-115570000D01*
X137754417Y-115570000D01*
X137774699Y-115775932D01*
X137774700Y-115775934D01*
X137834768Y-115973954D01*
X137932315Y-116156450D01*
X137932317Y-116156452D01*
X138063589Y-116316410D01*
X138160209Y-116395702D01*
X138223550Y-116447685D01*
X138406046Y-116545232D01*
X138604066Y-116605300D01*
X138604065Y-116605300D01*
X138622529Y-116607118D01*
X138810000Y-116625583D01*
X139015934Y-116605300D01*
X139213954Y-116545232D01*
X139396450Y-116447685D01*
X139556410Y-116316410D01*
X139687685Y-116156450D01*
X139785232Y-115973954D01*
X139845300Y-115775934D01*
X139865583Y-115570000D01*
X140294417Y-115570000D01*
X140314699Y-115775932D01*
X140314700Y-115775934D01*
X140374768Y-115973954D01*
X140472315Y-116156450D01*
X140472317Y-116156452D01*
X140603589Y-116316410D01*
X140700209Y-116395702D01*
X140763550Y-116447685D01*
X140946046Y-116545232D01*
X141144066Y-116605300D01*
X141144065Y-116605300D01*
X141162529Y-116607118D01*
X141350000Y-116625583D01*
X141555934Y-116605300D01*
X141753954Y-116545232D01*
X141936450Y-116447685D01*
X142096410Y-116316410D01*
X142227685Y-116156450D01*
X142325232Y-115973954D01*
X142385300Y-115775934D01*
X142405583Y-115570000D01*
X142834417Y-115570000D01*
X142854699Y-115775932D01*
X142854700Y-115775934D01*
X142914768Y-115973954D01*
X143012315Y-116156450D01*
X143012317Y-116156452D01*
X143143589Y-116316410D01*
X143240209Y-116395702D01*
X143303550Y-116447685D01*
X143486046Y-116545232D01*
X143684066Y-116605300D01*
X143684065Y-116605300D01*
X143702529Y-116607118D01*
X143890000Y-116625583D01*
X144095934Y-116605300D01*
X144293954Y-116545232D01*
X144476450Y-116447685D01*
X144636410Y-116316410D01*
X144767685Y-116156450D01*
X144865232Y-115973954D01*
X144925300Y-115775934D01*
X144945583Y-115570000D01*
X145374417Y-115570000D01*
X145394699Y-115775932D01*
X145394700Y-115775934D01*
X145454768Y-115973954D01*
X145552315Y-116156450D01*
X145552317Y-116156452D01*
X145683589Y-116316410D01*
X145780209Y-116395702D01*
X145843550Y-116447685D01*
X146026046Y-116545232D01*
X146224066Y-116605300D01*
X146224065Y-116605300D01*
X146242529Y-116607118D01*
X146430000Y-116625583D01*
X146635934Y-116605300D01*
X146833954Y-116545232D01*
X147016450Y-116447685D01*
X147176410Y-116316410D01*
X147307685Y-116156450D01*
X147405232Y-115973954D01*
X147465300Y-115775934D01*
X147485583Y-115570000D01*
X147914417Y-115570000D01*
X147934699Y-115775932D01*
X147934700Y-115775934D01*
X147994768Y-115973954D01*
X148092315Y-116156450D01*
X148092317Y-116156452D01*
X148223589Y-116316410D01*
X148320209Y-116395702D01*
X148383550Y-116447685D01*
X148566046Y-116545232D01*
X148764066Y-116605300D01*
X148764065Y-116605300D01*
X148782529Y-116607118D01*
X148970000Y-116625583D01*
X149175934Y-116605300D01*
X149373954Y-116545232D01*
X149556450Y-116447685D01*
X149716410Y-116316410D01*
X149847685Y-116156450D01*
X149945232Y-115973954D01*
X150005300Y-115775934D01*
X150025583Y-115570000D01*
X150454417Y-115570000D01*
X150474699Y-115775932D01*
X150474700Y-115775934D01*
X150534768Y-115973954D01*
X150632315Y-116156450D01*
X150632317Y-116156452D01*
X150763589Y-116316410D01*
X150860209Y-116395702D01*
X150923550Y-116447685D01*
X151106046Y-116545232D01*
X151304066Y-116605300D01*
X151304065Y-116605300D01*
X151322529Y-116607118D01*
X151510000Y-116625583D01*
X151715934Y-116605300D01*
X151913954Y-116545232D01*
X152096450Y-116447685D01*
X152256410Y-116316410D01*
X152387685Y-116156450D01*
X152485232Y-115973954D01*
X152545300Y-115775934D01*
X152565583Y-115570000D01*
X152994417Y-115570000D01*
X153014699Y-115775932D01*
X153014700Y-115775934D01*
X153074768Y-115973954D01*
X153172315Y-116156450D01*
X153172317Y-116156452D01*
X153303589Y-116316410D01*
X153400209Y-116395702D01*
X153463550Y-116447685D01*
X153646046Y-116545232D01*
X153844066Y-116605300D01*
X153844065Y-116605300D01*
X153862529Y-116607118D01*
X154050000Y-116625583D01*
X154255934Y-116605300D01*
X154453954Y-116545232D01*
X154636450Y-116447685D01*
X154796410Y-116316410D01*
X154927685Y-116156450D01*
X155025232Y-115973954D01*
X155085300Y-115775934D01*
X155105583Y-115570000D01*
X155534417Y-115570000D01*
X155554699Y-115775932D01*
X155554700Y-115775934D01*
X155614768Y-115973954D01*
X155712315Y-116156450D01*
X155712317Y-116156452D01*
X155843589Y-116316410D01*
X155940209Y-116395702D01*
X156003550Y-116447685D01*
X156186046Y-116545232D01*
X156384066Y-116605300D01*
X156384065Y-116605300D01*
X156402529Y-116607118D01*
X156590000Y-116625583D01*
X156795934Y-116605300D01*
X156993954Y-116545232D01*
X157176450Y-116447685D01*
X157336410Y-116316410D01*
X157467685Y-116156450D01*
X157565232Y-115973954D01*
X157625300Y-115775934D01*
X157645583Y-115570000D01*
X158074417Y-115570000D01*
X158094699Y-115775932D01*
X158094700Y-115775934D01*
X158154768Y-115973954D01*
X158252315Y-116156450D01*
X158252317Y-116156452D01*
X158383589Y-116316410D01*
X158480209Y-116395702D01*
X158543550Y-116447685D01*
X158726046Y-116545232D01*
X158924066Y-116605300D01*
X158924065Y-116605300D01*
X158942529Y-116607118D01*
X159130000Y-116625583D01*
X159335934Y-116605300D01*
X159533954Y-116545232D01*
X159716450Y-116447685D01*
X159876410Y-116316410D01*
X160007685Y-116156450D01*
X160105232Y-115973954D01*
X160165300Y-115775934D01*
X160185583Y-115570000D01*
X160614417Y-115570000D01*
X160634699Y-115775932D01*
X160634700Y-115775934D01*
X160694768Y-115973954D01*
X160792315Y-116156450D01*
X160792317Y-116156452D01*
X160923589Y-116316410D01*
X161020209Y-116395702D01*
X161083550Y-116447685D01*
X161266046Y-116545232D01*
X161464066Y-116605300D01*
X161464065Y-116605300D01*
X161482529Y-116607118D01*
X161670000Y-116625583D01*
X161875934Y-116605300D01*
X162073954Y-116545232D01*
X162256450Y-116447685D01*
X162416410Y-116316410D01*
X162547685Y-116156450D01*
X162645232Y-115973954D01*
X162705300Y-115775934D01*
X162725583Y-115570000D01*
X163154417Y-115570000D01*
X163174699Y-115775932D01*
X163174700Y-115775934D01*
X163234768Y-115973954D01*
X163332315Y-116156450D01*
X163332317Y-116156452D01*
X163463589Y-116316410D01*
X163560209Y-116395702D01*
X163623550Y-116447685D01*
X163806046Y-116545232D01*
X164004066Y-116605300D01*
X164004065Y-116605300D01*
X164022529Y-116607118D01*
X164210000Y-116625583D01*
X164415934Y-116605300D01*
X164613954Y-116545232D01*
X164796450Y-116447685D01*
X164956410Y-116316410D01*
X165087685Y-116156450D01*
X165185232Y-115973954D01*
X165245300Y-115775934D01*
X165265583Y-115570000D01*
X165694417Y-115570000D01*
X165714699Y-115775932D01*
X165714700Y-115775934D01*
X165774768Y-115973954D01*
X165872315Y-116156450D01*
X165872317Y-116156452D01*
X166003589Y-116316410D01*
X166100209Y-116395702D01*
X166163550Y-116447685D01*
X166346046Y-116545232D01*
X166544066Y-116605300D01*
X166544065Y-116605300D01*
X166562529Y-116607118D01*
X166750000Y-116625583D01*
X166955934Y-116605300D01*
X167153954Y-116545232D01*
X167336450Y-116447685D01*
X167496410Y-116316410D01*
X167627685Y-116156450D01*
X167725232Y-115973954D01*
X167785300Y-115775934D01*
X167805583Y-115570000D01*
X168234417Y-115570000D01*
X168254699Y-115775932D01*
X168254700Y-115775934D01*
X168314768Y-115973954D01*
X168412315Y-116156450D01*
X168412317Y-116156452D01*
X168543589Y-116316410D01*
X168640209Y-116395702D01*
X168703550Y-116447685D01*
X168886046Y-116545232D01*
X169084066Y-116605300D01*
X169084065Y-116605300D01*
X169102529Y-116607118D01*
X169290000Y-116625583D01*
X169495934Y-116605300D01*
X169693954Y-116545232D01*
X169876450Y-116447685D01*
X170036410Y-116316410D01*
X170167685Y-116156450D01*
X170265232Y-115973954D01*
X170325300Y-115775934D01*
X170345583Y-115570000D01*
X170774417Y-115570000D01*
X170794699Y-115775932D01*
X170794700Y-115775934D01*
X170854768Y-115973954D01*
X170952315Y-116156450D01*
X170952317Y-116156452D01*
X171083589Y-116316410D01*
X171180209Y-116395702D01*
X171243550Y-116447685D01*
X171426046Y-116545232D01*
X171624066Y-116605300D01*
X171624065Y-116605300D01*
X171642529Y-116607118D01*
X171830000Y-116625583D01*
X172035934Y-116605300D01*
X172233954Y-116545232D01*
X172416450Y-116447685D01*
X172576410Y-116316410D01*
X172707685Y-116156450D01*
X172805232Y-115973954D01*
X172865300Y-115775934D01*
X172885583Y-115570000D01*
X173314417Y-115570000D01*
X173334699Y-115775932D01*
X173334700Y-115775934D01*
X173394768Y-115973954D01*
X173492315Y-116156450D01*
X173492317Y-116156452D01*
X173623589Y-116316410D01*
X173720209Y-116395702D01*
X173783550Y-116447685D01*
X173966046Y-116545232D01*
X174164066Y-116605300D01*
X174164065Y-116605300D01*
X174182529Y-116607118D01*
X174370000Y-116625583D01*
X174575934Y-116605300D01*
X174773954Y-116545232D01*
X174956450Y-116447685D01*
X175116410Y-116316410D01*
X175247685Y-116156450D01*
X175345232Y-115973954D01*
X175405300Y-115775934D01*
X175425583Y-115570000D01*
X175405300Y-115364066D01*
X175345232Y-115166046D01*
X175247685Y-114983550D01*
X175195702Y-114920209D01*
X175116410Y-114823589D01*
X174956452Y-114692317D01*
X174956453Y-114692317D01*
X174956450Y-114692315D01*
X174773954Y-114594768D01*
X174575934Y-114534700D01*
X174575932Y-114534699D01*
X174575934Y-114534699D01*
X174370000Y-114514417D01*
X174164067Y-114534699D01*
X173966043Y-114594769D01*
X173932634Y-114612627D01*
X173783550Y-114692315D01*
X173783548Y-114692316D01*
X173783547Y-114692317D01*
X173623589Y-114823589D01*
X173492317Y-114983547D01*
X173394769Y-115166043D01*
X173334699Y-115364067D01*
X173314417Y-115570000D01*
X172885583Y-115570000D01*
X172865300Y-115364066D01*
X172805232Y-115166046D01*
X172707685Y-114983550D01*
X172655702Y-114920209D01*
X172576410Y-114823589D01*
X172416452Y-114692317D01*
X172416453Y-114692317D01*
X172416450Y-114692315D01*
X172233954Y-114594768D01*
X172035934Y-114534700D01*
X172035932Y-114534699D01*
X172035934Y-114534699D01*
X171830000Y-114514417D01*
X171624067Y-114534699D01*
X171426043Y-114594769D01*
X171392634Y-114612627D01*
X171243550Y-114692315D01*
X171243548Y-114692316D01*
X171243547Y-114692317D01*
X171083589Y-114823589D01*
X170952317Y-114983547D01*
X170854769Y-115166043D01*
X170794699Y-115364067D01*
X170774417Y-115570000D01*
X170345583Y-115570000D01*
X170325300Y-115364066D01*
X170265232Y-115166046D01*
X170167685Y-114983550D01*
X170115702Y-114920209D01*
X170036410Y-114823589D01*
X169876452Y-114692317D01*
X169876453Y-114692317D01*
X169876450Y-114692315D01*
X169693954Y-114594768D01*
X169495934Y-114534700D01*
X169495932Y-114534699D01*
X169495934Y-114534699D01*
X169290000Y-114514417D01*
X169084067Y-114534699D01*
X168886043Y-114594769D01*
X168852634Y-114612627D01*
X168703550Y-114692315D01*
X168703548Y-114692316D01*
X168703547Y-114692317D01*
X168543589Y-114823589D01*
X168412317Y-114983547D01*
X168314769Y-115166043D01*
X168254699Y-115364067D01*
X168234417Y-115570000D01*
X167805583Y-115570000D01*
X167785300Y-115364066D01*
X167725232Y-115166046D01*
X167627685Y-114983550D01*
X167575702Y-114920209D01*
X167496410Y-114823589D01*
X167336452Y-114692317D01*
X167336453Y-114692317D01*
X167336450Y-114692315D01*
X167153954Y-114594768D01*
X166955934Y-114534700D01*
X166955932Y-114534699D01*
X166955934Y-114534699D01*
X166750000Y-114514417D01*
X166544067Y-114534699D01*
X166346043Y-114594769D01*
X166312634Y-114612627D01*
X166163550Y-114692315D01*
X166163548Y-114692316D01*
X166163547Y-114692317D01*
X166003589Y-114823589D01*
X165872317Y-114983547D01*
X165774769Y-115166043D01*
X165714699Y-115364067D01*
X165694417Y-115570000D01*
X165265583Y-115570000D01*
X165245300Y-115364066D01*
X165185232Y-115166046D01*
X165087685Y-114983550D01*
X165035702Y-114920209D01*
X164956410Y-114823589D01*
X164796452Y-114692317D01*
X164796453Y-114692317D01*
X164796450Y-114692315D01*
X164613954Y-114594768D01*
X164415934Y-114534700D01*
X164415932Y-114534699D01*
X164415934Y-114534699D01*
X164210000Y-114514417D01*
X164004067Y-114534699D01*
X163806043Y-114594769D01*
X163772634Y-114612627D01*
X163623550Y-114692315D01*
X163623548Y-114692316D01*
X163623547Y-114692317D01*
X163463589Y-114823589D01*
X163332317Y-114983547D01*
X163234769Y-115166043D01*
X163174699Y-115364067D01*
X163154417Y-115570000D01*
X162725583Y-115570000D01*
X162705300Y-115364066D01*
X162645232Y-115166046D01*
X162547685Y-114983550D01*
X162495702Y-114920209D01*
X162416410Y-114823589D01*
X162256452Y-114692317D01*
X162256453Y-114692317D01*
X162256450Y-114692315D01*
X162073954Y-114594768D01*
X161875934Y-114534700D01*
X161875932Y-114534699D01*
X161875934Y-114534699D01*
X161670000Y-114514417D01*
X161464067Y-114534699D01*
X161266043Y-114594769D01*
X161232634Y-114612627D01*
X161083550Y-114692315D01*
X161083548Y-114692316D01*
X161083547Y-114692317D01*
X160923589Y-114823589D01*
X160792317Y-114983547D01*
X160694769Y-115166043D01*
X160634699Y-115364067D01*
X160614417Y-115570000D01*
X160185583Y-115570000D01*
X160165300Y-115364066D01*
X160105232Y-115166046D01*
X160007685Y-114983550D01*
X159955702Y-114920209D01*
X159876410Y-114823589D01*
X159716452Y-114692317D01*
X159716453Y-114692317D01*
X159716450Y-114692315D01*
X159533954Y-114594768D01*
X159335934Y-114534700D01*
X159335932Y-114534699D01*
X159335934Y-114534699D01*
X159130000Y-114514417D01*
X158924067Y-114534699D01*
X158726043Y-114594769D01*
X158692634Y-114612627D01*
X158543550Y-114692315D01*
X158543548Y-114692316D01*
X158543547Y-114692317D01*
X158383589Y-114823589D01*
X158252317Y-114983547D01*
X158154769Y-115166043D01*
X158094699Y-115364067D01*
X158074417Y-115570000D01*
X157645583Y-115570000D01*
X157625300Y-115364066D01*
X157565232Y-115166046D01*
X157467685Y-114983550D01*
X157415702Y-114920209D01*
X157336410Y-114823589D01*
X157176452Y-114692317D01*
X157176453Y-114692317D01*
X157176450Y-114692315D01*
X156993954Y-114594768D01*
X156795934Y-114534700D01*
X156795932Y-114534699D01*
X156795934Y-114534699D01*
X156590000Y-114514417D01*
X156384067Y-114534699D01*
X156186043Y-114594769D01*
X156152634Y-114612627D01*
X156003550Y-114692315D01*
X156003548Y-114692316D01*
X156003547Y-114692317D01*
X155843589Y-114823589D01*
X155712317Y-114983547D01*
X155614769Y-115166043D01*
X155554699Y-115364067D01*
X155534417Y-115570000D01*
X155105583Y-115570000D01*
X155085300Y-115364066D01*
X155025232Y-115166046D01*
X154927685Y-114983550D01*
X154875702Y-114920209D01*
X154796410Y-114823589D01*
X154636452Y-114692317D01*
X154636453Y-114692317D01*
X154636450Y-114692315D01*
X154453954Y-114594768D01*
X154255934Y-114534700D01*
X154255932Y-114534699D01*
X154255934Y-114534699D01*
X154050000Y-114514417D01*
X153844067Y-114534699D01*
X153646043Y-114594769D01*
X153612634Y-114612627D01*
X153463550Y-114692315D01*
X153463548Y-114692316D01*
X153463547Y-114692317D01*
X153303589Y-114823589D01*
X153172317Y-114983547D01*
X153074769Y-115166043D01*
X153014699Y-115364067D01*
X152994417Y-115570000D01*
X152565583Y-115570000D01*
X152545300Y-115364066D01*
X152485232Y-115166046D01*
X152387685Y-114983550D01*
X152335702Y-114920209D01*
X152256410Y-114823589D01*
X152096452Y-114692317D01*
X152096453Y-114692317D01*
X152096450Y-114692315D01*
X151913954Y-114594768D01*
X151715934Y-114534700D01*
X151715932Y-114534699D01*
X151715934Y-114534699D01*
X151510000Y-114514417D01*
X151304067Y-114534699D01*
X151106043Y-114594769D01*
X151072634Y-114612627D01*
X150923550Y-114692315D01*
X150923548Y-114692316D01*
X150923547Y-114692317D01*
X150763589Y-114823589D01*
X150632317Y-114983547D01*
X150534769Y-115166043D01*
X150474699Y-115364067D01*
X150454417Y-115570000D01*
X150025583Y-115570000D01*
X150005300Y-115364066D01*
X149945232Y-115166046D01*
X149847685Y-114983550D01*
X149795702Y-114920209D01*
X149716410Y-114823589D01*
X149556452Y-114692317D01*
X149556453Y-114692317D01*
X149556450Y-114692315D01*
X149373954Y-114594768D01*
X149175934Y-114534700D01*
X149175932Y-114534699D01*
X149175934Y-114534699D01*
X148970000Y-114514417D01*
X148764067Y-114534699D01*
X148566043Y-114594769D01*
X148532634Y-114612627D01*
X148383550Y-114692315D01*
X148383548Y-114692316D01*
X148383547Y-114692317D01*
X148223589Y-114823589D01*
X148092317Y-114983547D01*
X147994769Y-115166043D01*
X147934699Y-115364067D01*
X147914417Y-115570000D01*
X147485583Y-115570000D01*
X147465300Y-115364066D01*
X147405232Y-115166046D01*
X147307685Y-114983550D01*
X147255702Y-114920209D01*
X147176410Y-114823589D01*
X147016452Y-114692317D01*
X147016453Y-114692317D01*
X147016450Y-114692315D01*
X146833954Y-114594768D01*
X146635934Y-114534700D01*
X146635932Y-114534699D01*
X146635934Y-114534699D01*
X146430000Y-114514417D01*
X146224067Y-114534699D01*
X146026043Y-114594769D01*
X145992634Y-114612627D01*
X145843550Y-114692315D01*
X145843548Y-114692316D01*
X145843547Y-114692317D01*
X145683589Y-114823589D01*
X145552317Y-114983547D01*
X145454769Y-115166043D01*
X145394699Y-115364067D01*
X145374417Y-115570000D01*
X144945583Y-115570000D01*
X144925300Y-115364066D01*
X144865232Y-115166046D01*
X144767685Y-114983550D01*
X144715702Y-114920209D01*
X144636410Y-114823589D01*
X144476452Y-114692317D01*
X144476453Y-114692317D01*
X144476450Y-114692315D01*
X144293954Y-114594768D01*
X144095934Y-114534700D01*
X144095932Y-114534699D01*
X144095934Y-114534699D01*
X143890000Y-114514417D01*
X143684067Y-114534699D01*
X143486043Y-114594769D01*
X143452634Y-114612627D01*
X143303550Y-114692315D01*
X143303548Y-114692316D01*
X143303547Y-114692317D01*
X143143589Y-114823589D01*
X143012317Y-114983547D01*
X142914769Y-115166043D01*
X142854699Y-115364067D01*
X142834417Y-115570000D01*
X142405583Y-115570000D01*
X142385300Y-115364066D01*
X142325232Y-115166046D01*
X142227685Y-114983550D01*
X142175702Y-114920209D01*
X142096410Y-114823589D01*
X141936452Y-114692317D01*
X141936453Y-114692317D01*
X141936450Y-114692315D01*
X141753954Y-114594768D01*
X141555934Y-114534700D01*
X141555932Y-114534699D01*
X141555934Y-114534699D01*
X141350000Y-114514417D01*
X141144067Y-114534699D01*
X140946043Y-114594769D01*
X140912634Y-114612627D01*
X140763550Y-114692315D01*
X140763548Y-114692316D01*
X140763547Y-114692317D01*
X140603589Y-114823589D01*
X140472317Y-114983547D01*
X140374769Y-115166043D01*
X140314699Y-115364067D01*
X140294417Y-115570000D01*
X139865583Y-115570000D01*
X139845300Y-115364066D01*
X139785232Y-115166046D01*
X139687685Y-114983550D01*
X139635702Y-114920209D01*
X139556410Y-114823589D01*
X139396452Y-114692317D01*
X139396453Y-114692317D01*
X139396450Y-114692315D01*
X139213954Y-114594768D01*
X139015934Y-114534700D01*
X139015932Y-114534699D01*
X139015934Y-114534699D01*
X138810000Y-114514417D01*
X138604067Y-114534699D01*
X138406043Y-114594769D01*
X138372634Y-114612627D01*
X138223550Y-114692315D01*
X138223548Y-114692316D01*
X138223547Y-114692317D01*
X138063589Y-114823589D01*
X137932317Y-114983547D01*
X137834769Y-115166043D01*
X137774699Y-115364067D01*
X137754417Y-115570000D01*
X137325583Y-115570000D01*
X137305300Y-115364066D01*
X137245232Y-115166046D01*
X137147685Y-114983550D01*
X137095702Y-114920209D01*
X137016410Y-114823589D01*
X136856452Y-114692317D01*
X136856453Y-114692317D01*
X136856450Y-114692315D01*
X136673954Y-114594768D01*
X136475934Y-114534700D01*
X136475932Y-114534699D01*
X136475934Y-114534699D01*
X136270000Y-114514417D01*
X136064067Y-114534699D01*
X135866043Y-114594769D01*
X135832634Y-114612627D01*
X135683550Y-114692315D01*
X135683548Y-114692316D01*
X135683547Y-114692317D01*
X135523589Y-114823589D01*
X135392317Y-114983547D01*
X135294769Y-115166043D01*
X135234699Y-115364067D01*
X135214417Y-115570000D01*
X134785583Y-115570000D01*
X134765300Y-115364066D01*
X134705232Y-115166046D01*
X134607685Y-114983550D01*
X134555702Y-114920209D01*
X134476410Y-114823589D01*
X134316452Y-114692317D01*
X134316453Y-114692317D01*
X134316450Y-114692315D01*
X134133954Y-114594768D01*
X133935934Y-114534700D01*
X133935932Y-114534699D01*
X133935934Y-114534699D01*
X133730000Y-114514417D01*
X133524067Y-114534699D01*
X133326043Y-114594769D01*
X133292634Y-114612627D01*
X133143550Y-114692315D01*
X133143548Y-114692316D01*
X133143547Y-114692317D01*
X132983589Y-114823589D01*
X132852317Y-114983547D01*
X132754769Y-115166043D01*
X132694699Y-115364067D01*
X132674417Y-115570000D01*
X132245583Y-115570000D01*
X132225300Y-115364066D01*
X132165232Y-115166046D01*
X132067685Y-114983550D01*
X132015702Y-114920209D01*
X131936410Y-114823589D01*
X131776452Y-114692317D01*
X131776453Y-114692317D01*
X131776450Y-114692315D01*
X131593954Y-114594768D01*
X131395934Y-114534700D01*
X131395932Y-114534699D01*
X131395934Y-114534699D01*
X131190000Y-114514417D01*
X130984067Y-114534699D01*
X130786043Y-114594769D01*
X130752634Y-114612627D01*
X130603550Y-114692315D01*
X130603548Y-114692316D01*
X130603547Y-114692317D01*
X130443589Y-114823589D01*
X130312317Y-114983547D01*
X130312315Y-114983550D01*
X130240887Y-115117181D01*
X130233358Y-115131267D01*
X130184395Y-115181111D01*
X130116257Y-115196571D01*
X130050578Y-115172739D01*
X130008209Y-115117181D01*
X130000000Y-115072813D01*
X130000000Y-114672172D01*
X129999999Y-114672155D01*
X129993598Y-114612627D01*
X129993596Y-114612620D01*
X129943354Y-114477913D01*
X129943350Y-114477906D01*
X129857190Y-114362812D01*
X129857187Y-114362809D01*
X129742093Y-114276649D01*
X129742086Y-114276645D01*
X129610013Y-114227385D01*
X129554079Y-114185514D01*
X129529662Y-114120049D01*
X129544514Y-114051776D01*
X129565665Y-114023521D01*
X129688108Y-113901078D01*
X129823600Y-113707578D01*
X129923429Y-113493492D01*
X129923433Y-113493483D01*
X129956158Y-113371350D01*
X129992522Y-113311690D01*
X130055369Y-113281160D01*
X130124745Y-113289454D01*
X130178623Y-113333939D01*
X130194593Y-113367447D01*
X130214768Y-113433954D01*
X130312315Y-113616450D01*
X130312317Y-113616452D01*
X130443589Y-113776410D01*
X130540209Y-113855702D01*
X130603550Y-113907685D01*
X130786046Y-114005232D01*
X130984066Y-114065300D01*
X130984065Y-114065300D01*
X131002529Y-114067118D01*
X131190000Y-114085583D01*
X131395934Y-114065300D01*
X131593954Y-114005232D01*
X131776450Y-113907685D01*
X131936410Y-113776410D01*
X132067685Y-113616450D01*
X132165232Y-113433954D01*
X132225300Y-113235934D01*
X132245583Y-113030000D01*
X132674417Y-113030000D01*
X132694699Y-113235932D01*
X132694700Y-113235934D01*
X132754768Y-113433954D01*
X132852315Y-113616450D01*
X132852317Y-113616452D01*
X132983589Y-113776410D01*
X133080209Y-113855702D01*
X133143550Y-113907685D01*
X133326046Y-114005232D01*
X133524066Y-114065300D01*
X133524065Y-114065300D01*
X133542529Y-114067118D01*
X133730000Y-114085583D01*
X133935934Y-114065300D01*
X134133954Y-114005232D01*
X134316450Y-113907685D01*
X134476410Y-113776410D01*
X134607685Y-113616450D01*
X134705232Y-113433954D01*
X134765300Y-113235934D01*
X134785583Y-113030000D01*
X135214417Y-113030000D01*
X135234699Y-113235932D01*
X135234700Y-113235934D01*
X135294768Y-113433954D01*
X135392315Y-113616450D01*
X135392317Y-113616452D01*
X135523589Y-113776410D01*
X135620209Y-113855702D01*
X135683550Y-113907685D01*
X135866046Y-114005232D01*
X136064066Y-114065300D01*
X136064065Y-114065300D01*
X136082529Y-114067118D01*
X136270000Y-114085583D01*
X136475934Y-114065300D01*
X136673954Y-114005232D01*
X136856450Y-113907685D01*
X137016410Y-113776410D01*
X137147685Y-113616450D01*
X137245232Y-113433954D01*
X137305300Y-113235934D01*
X137325583Y-113030000D01*
X137754417Y-113030000D01*
X137774699Y-113235932D01*
X137774700Y-113235934D01*
X137834768Y-113433954D01*
X137932315Y-113616450D01*
X137932317Y-113616452D01*
X138063589Y-113776410D01*
X138160209Y-113855702D01*
X138223550Y-113907685D01*
X138406046Y-114005232D01*
X138604066Y-114065300D01*
X138604065Y-114065300D01*
X138622529Y-114067118D01*
X138810000Y-114085583D01*
X139015934Y-114065300D01*
X139213954Y-114005232D01*
X139396450Y-113907685D01*
X139556410Y-113776410D01*
X139687685Y-113616450D01*
X139785232Y-113433954D01*
X139845300Y-113235934D01*
X139865583Y-113030000D01*
X140294417Y-113030000D01*
X140314699Y-113235932D01*
X140314700Y-113235934D01*
X140374768Y-113433954D01*
X140472315Y-113616450D01*
X140472317Y-113616452D01*
X140603589Y-113776410D01*
X140700209Y-113855702D01*
X140763550Y-113907685D01*
X140946046Y-114005232D01*
X141144066Y-114065300D01*
X141144065Y-114065300D01*
X141162529Y-114067118D01*
X141350000Y-114085583D01*
X141555934Y-114065300D01*
X141753954Y-114005232D01*
X141936450Y-113907685D01*
X142096410Y-113776410D01*
X142227685Y-113616450D01*
X142325232Y-113433954D01*
X142385300Y-113235934D01*
X142405583Y-113030000D01*
X142834417Y-113030000D01*
X142854699Y-113235932D01*
X142854700Y-113235934D01*
X142914768Y-113433954D01*
X143012315Y-113616450D01*
X143012317Y-113616452D01*
X143143589Y-113776410D01*
X143240209Y-113855702D01*
X143303550Y-113907685D01*
X143486046Y-114005232D01*
X143684066Y-114065300D01*
X143684065Y-114065300D01*
X143702529Y-114067118D01*
X143890000Y-114085583D01*
X144095934Y-114065300D01*
X144293954Y-114005232D01*
X144476450Y-113907685D01*
X144636410Y-113776410D01*
X144767685Y-113616450D01*
X144865232Y-113433954D01*
X144925300Y-113235934D01*
X144945583Y-113030000D01*
X145374417Y-113030000D01*
X145394699Y-113235932D01*
X145394700Y-113235934D01*
X145454768Y-113433954D01*
X145552315Y-113616450D01*
X145552317Y-113616452D01*
X145683589Y-113776410D01*
X145780209Y-113855702D01*
X145843550Y-113907685D01*
X146026046Y-114005232D01*
X146224066Y-114065300D01*
X146224065Y-114065300D01*
X146242529Y-114067118D01*
X146430000Y-114085583D01*
X146635934Y-114065300D01*
X146833954Y-114005232D01*
X147016450Y-113907685D01*
X147176410Y-113776410D01*
X147307685Y-113616450D01*
X147405232Y-113433954D01*
X147465300Y-113235934D01*
X147485583Y-113030000D01*
X147914417Y-113030000D01*
X147934699Y-113235932D01*
X147934700Y-113235934D01*
X147994768Y-113433954D01*
X148092315Y-113616450D01*
X148092317Y-113616452D01*
X148223589Y-113776410D01*
X148320209Y-113855702D01*
X148383550Y-113907685D01*
X148566046Y-114005232D01*
X148764066Y-114065300D01*
X148764065Y-114065300D01*
X148782529Y-114067118D01*
X148970000Y-114085583D01*
X149175934Y-114065300D01*
X149373954Y-114005232D01*
X149556450Y-113907685D01*
X149716410Y-113776410D01*
X149847685Y-113616450D01*
X149945232Y-113433954D01*
X150005300Y-113235934D01*
X150025583Y-113030000D01*
X150454417Y-113030000D01*
X150474699Y-113235932D01*
X150474700Y-113235934D01*
X150534768Y-113433954D01*
X150632315Y-113616450D01*
X150632317Y-113616452D01*
X150763589Y-113776410D01*
X150860209Y-113855702D01*
X150923550Y-113907685D01*
X151106046Y-114005232D01*
X151304066Y-114065300D01*
X151304065Y-114065300D01*
X151322529Y-114067118D01*
X151510000Y-114085583D01*
X151715934Y-114065300D01*
X151913954Y-114005232D01*
X152096450Y-113907685D01*
X152256410Y-113776410D01*
X152387685Y-113616450D01*
X152485232Y-113433954D01*
X152545300Y-113235934D01*
X152565583Y-113030000D01*
X152994417Y-113030000D01*
X153014699Y-113235932D01*
X153014700Y-113235934D01*
X153074768Y-113433954D01*
X153172315Y-113616450D01*
X153172317Y-113616452D01*
X153303589Y-113776410D01*
X153400209Y-113855702D01*
X153463550Y-113907685D01*
X153646046Y-114005232D01*
X153844066Y-114065300D01*
X153844065Y-114065300D01*
X153862529Y-114067118D01*
X154050000Y-114085583D01*
X154255934Y-114065300D01*
X154453954Y-114005232D01*
X154636450Y-113907685D01*
X154796410Y-113776410D01*
X154927685Y-113616450D01*
X155025232Y-113433954D01*
X155085300Y-113235934D01*
X155105583Y-113030000D01*
X155534417Y-113030000D01*
X155554699Y-113235932D01*
X155554700Y-113235934D01*
X155614768Y-113433954D01*
X155712315Y-113616450D01*
X155712317Y-113616452D01*
X155843589Y-113776410D01*
X155940209Y-113855702D01*
X156003550Y-113907685D01*
X156186046Y-114005232D01*
X156384066Y-114065300D01*
X156384065Y-114065300D01*
X156402529Y-114067118D01*
X156590000Y-114085583D01*
X156795934Y-114065300D01*
X156993954Y-114005232D01*
X157176450Y-113907685D01*
X157336410Y-113776410D01*
X157467685Y-113616450D01*
X157565232Y-113433954D01*
X157625300Y-113235934D01*
X157645583Y-113030000D01*
X158074417Y-113030000D01*
X158094699Y-113235932D01*
X158094700Y-113235934D01*
X158154768Y-113433954D01*
X158252315Y-113616450D01*
X158252317Y-113616452D01*
X158383589Y-113776410D01*
X158480209Y-113855702D01*
X158543550Y-113907685D01*
X158726046Y-114005232D01*
X158924066Y-114065300D01*
X158924065Y-114065300D01*
X158942529Y-114067118D01*
X159130000Y-114085583D01*
X159335934Y-114065300D01*
X159533954Y-114005232D01*
X159716450Y-113907685D01*
X159876410Y-113776410D01*
X160007685Y-113616450D01*
X160105232Y-113433954D01*
X160165300Y-113235934D01*
X160185583Y-113030000D01*
X160614417Y-113030000D01*
X160634699Y-113235932D01*
X160634700Y-113235934D01*
X160694768Y-113433954D01*
X160792315Y-113616450D01*
X160792317Y-113616452D01*
X160923589Y-113776410D01*
X161020209Y-113855702D01*
X161083550Y-113907685D01*
X161266046Y-114005232D01*
X161464066Y-114065300D01*
X161464065Y-114065300D01*
X161482529Y-114067118D01*
X161670000Y-114085583D01*
X161875934Y-114065300D01*
X162073954Y-114005232D01*
X162256450Y-113907685D01*
X162416410Y-113776410D01*
X162547685Y-113616450D01*
X162645232Y-113433954D01*
X162705300Y-113235934D01*
X162725583Y-113030000D01*
X163154417Y-113030000D01*
X163174699Y-113235932D01*
X163174700Y-113235934D01*
X163234768Y-113433954D01*
X163332315Y-113616450D01*
X163332317Y-113616452D01*
X163463589Y-113776410D01*
X163560209Y-113855702D01*
X163623550Y-113907685D01*
X163806046Y-114005232D01*
X164004066Y-114065300D01*
X164004065Y-114065300D01*
X164022529Y-114067118D01*
X164210000Y-114085583D01*
X164415934Y-114065300D01*
X164613954Y-114005232D01*
X164796450Y-113907685D01*
X164956410Y-113776410D01*
X165087685Y-113616450D01*
X165185232Y-113433954D01*
X165245300Y-113235934D01*
X165265583Y-113030000D01*
X165694417Y-113030000D01*
X165714699Y-113235932D01*
X165714700Y-113235934D01*
X165774768Y-113433954D01*
X165872315Y-113616450D01*
X165872317Y-113616452D01*
X166003589Y-113776410D01*
X166100209Y-113855702D01*
X166163550Y-113907685D01*
X166346046Y-114005232D01*
X166544066Y-114065300D01*
X166544065Y-114065300D01*
X166562529Y-114067118D01*
X166750000Y-114085583D01*
X166955934Y-114065300D01*
X167153954Y-114005232D01*
X167336450Y-113907685D01*
X167496410Y-113776410D01*
X167627685Y-113616450D01*
X167725232Y-113433954D01*
X167785300Y-113235934D01*
X167805583Y-113030000D01*
X168234417Y-113030000D01*
X168254699Y-113235932D01*
X168254700Y-113235934D01*
X168314768Y-113433954D01*
X168412315Y-113616450D01*
X168412317Y-113616452D01*
X168543589Y-113776410D01*
X168640209Y-113855702D01*
X168703550Y-113907685D01*
X168886046Y-114005232D01*
X169084066Y-114065300D01*
X169084065Y-114065300D01*
X169102529Y-114067118D01*
X169290000Y-114085583D01*
X169495934Y-114065300D01*
X169693954Y-114005232D01*
X169876450Y-113907685D01*
X170036410Y-113776410D01*
X170167685Y-113616450D01*
X170265232Y-113433954D01*
X170325300Y-113235934D01*
X170345583Y-113030000D01*
X170774417Y-113030000D01*
X170794699Y-113235932D01*
X170794700Y-113235934D01*
X170854768Y-113433954D01*
X170952315Y-113616450D01*
X170952317Y-113616452D01*
X171083589Y-113776410D01*
X171180209Y-113855702D01*
X171243550Y-113907685D01*
X171426046Y-114005232D01*
X171624066Y-114065300D01*
X171624065Y-114065300D01*
X171642529Y-114067118D01*
X171830000Y-114085583D01*
X172035934Y-114065300D01*
X172233954Y-114005232D01*
X172416450Y-113907685D01*
X172576410Y-113776410D01*
X172707685Y-113616450D01*
X172805232Y-113433954D01*
X172865300Y-113235934D01*
X172885583Y-113030000D01*
X173314417Y-113030000D01*
X173334699Y-113235932D01*
X173334700Y-113235934D01*
X173394768Y-113433954D01*
X173492315Y-113616450D01*
X173492317Y-113616452D01*
X173623589Y-113776410D01*
X173720209Y-113855702D01*
X173783550Y-113907685D01*
X173966046Y-114005232D01*
X174164066Y-114065300D01*
X174164065Y-114065300D01*
X174182529Y-114067118D01*
X174370000Y-114085583D01*
X174575934Y-114065300D01*
X174773954Y-114005232D01*
X174956450Y-113907685D01*
X175116410Y-113776410D01*
X175247685Y-113616450D01*
X175345232Y-113433954D01*
X175405300Y-113235934D01*
X175425583Y-113030000D01*
X175405300Y-112824066D01*
X175345232Y-112626046D01*
X175247685Y-112443550D01*
X175172897Y-112352420D01*
X175116410Y-112283589D01*
X174998677Y-112186969D01*
X174956450Y-112152315D01*
X174773954Y-112054768D01*
X174575934Y-111994700D01*
X174575932Y-111994699D01*
X174575934Y-111994699D01*
X174370000Y-111974417D01*
X174164067Y-111994699D01*
X173966043Y-112054769D01*
X173855898Y-112113643D01*
X173783550Y-112152315D01*
X173783548Y-112152316D01*
X173783547Y-112152317D01*
X173623589Y-112283589D01*
X173492317Y-112443547D01*
X173394769Y-112626043D01*
X173334699Y-112824067D01*
X173314417Y-113030000D01*
X172885583Y-113030000D01*
X172865300Y-112824066D01*
X172805232Y-112626046D01*
X172707685Y-112443550D01*
X172632897Y-112352420D01*
X172576410Y-112283589D01*
X172458677Y-112186969D01*
X172416450Y-112152315D01*
X172233954Y-112054768D01*
X172035934Y-111994700D01*
X172035932Y-111994699D01*
X172035934Y-111994699D01*
X171830000Y-111974417D01*
X171624067Y-111994699D01*
X171426043Y-112054769D01*
X171315898Y-112113643D01*
X171243550Y-112152315D01*
X171243548Y-112152316D01*
X171243547Y-112152317D01*
X171083589Y-112283589D01*
X170952317Y-112443547D01*
X170854769Y-112626043D01*
X170794699Y-112824067D01*
X170774417Y-113030000D01*
X170345583Y-113030000D01*
X170325300Y-112824066D01*
X170265232Y-112626046D01*
X170167685Y-112443550D01*
X170092897Y-112352420D01*
X170036410Y-112283589D01*
X169918677Y-112186969D01*
X169876450Y-112152315D01*
X169693954Y-112054768D01*
X169495934Y-111994700D01*
X169495932Y-111994699D01*
X169495934Y-111994699D01*
X169290000Y-111974417D01*
X169084067Y-111994699D01*
X168886043Y-112054769D01*
X168775898Y-112113643D01*
X168703550Y-112152315D01*
X168703548Y-112152316D01*
X168703547Y-112152317D01*
X168543589Y-112283589D01*
X168412317Y-112443547D01*
X168314769Y-112626043D01*
X168254699Y-112824067D01*
X168234417Y-113030000D01*
X167805583Y-113030000D01*
X167785300Y-112824066D01*
X167725232Y-112626046D01*
X167627685Y-112443550D01*
X167552897Y-112352420D01*
X167496410Y-112283589D01*
X167378677Y-112186969D01*
X167336450Y-112152315D01*
X167153954Y-112054768D01*
X166955934Y-111994700D01*
X166955932Y-111994699D01*
X166955934Y-111994699D01*
X166750000Y-111974417D01*
X166544067Y-111994699D01*
X166346043Y-112054769D01*
X166235898Y-112113643D01*
X166163550Y-112152315D01*
X166163548Y-112152316D01*
X166163547Y-112152317D01*
X166003589Y-112283589D01*
X165872317Y-112443547D01*
X165774769Y-112626043D01*
X165714699Y-112824067D01*
X165694417Y-113030000D01*
X165265583Y-113030000D01*
X165245300Y-112824066D01*
X165185232Y-112626046D01*
X165087685Y-112443550D01*
X165012897Y-112352420D01*
X164956410Y-112283589D01*
X164838677Y-112186969D01*
X164796450Y-112152315D01*
X164613954Y-112054768D01*
X164415934Y-111994700D01*
X164415932Y-111994699D01*
X164415934Y-111994699D01*
X164210000Y-111974417D01*
X164004067Y-111994699D01*
X163806043Y-112054769D01*
X163695898Y-112113643D01*
X163623550Y-112152315D01*
X163623548Y-112152316D01*
X163623547Y-112152317D01*
X163463589Y-112283589D01*
X163332317Y-112443547D01*
X163234769Y-112626043D01*
X163174699Y-112824067D01*
X163154417Y-113030000D01*
X162725583Y-113030000D01*
X162705300Y-112824066D01*
X162645232Y-112626046D01*
X162547685Y-112443550D01*
X162472897Y-112352420D01*
X162416410Y-112283589D01*
X162298677Y-112186969D01*
X162256450Y-112152315D01*
X162073954Y-112054768D01*
X161875934Y-111994700D01*
X161875932Y-111994699D01*
X161875934Y-111994699D01*
X161670000Y-111974417D01*
X161464067Y-111994699D01*
X161266043Y-112054769D01*
X161155898Y-112113643D01*
X161083550Y-112152315D01*
X161083548Y-112152316D01*
X161083547Y-112152317D01*
X160923589Y-112283589D01*
X160792317Y-112443547D01*
X160694769Y-112626043D01*
X160634699Y-112824067D01*
X160614417Y-113030000D01*
X160185583Y-113030000D01*
X160165300Y-112824066D01*
X160105232Y-112626046D01*
X160007685Y-112443550D01*
X159932897Y-112352420D01*
X159876410Y-112283589D01*
X159758677Y-112186969D01*
X159716450Y-112152315D01*
X159533954Y-112054768D01*
X159335934Y-111994700D01*
X159335932Y-111994699D01*
X159335934Y-111994699D01*
X159130000Y-111974417D01*
X158924067Y-111994699D01*
X158726043Y-112054769D01*
X158615898Y-112113643D01*
X158543550Y-112152315D01*
X158543548Y-112152316D01*
X158543547Y-112152317D01*
X158383589Y-112283589D01*
X158252317Y-112443547D01*
X158154769Y-112626043D01*
X158094699Y-112824067D01*
X158074417Y-113030000D01*
X157645583Y-113030000D01*
X157625300Y-112824066D01*
X157565232Y-112626046D01*
X157467685Y-112443550D01*
X157392897Y-112352420D01*
X157336410Y-112283589D01*
X157218677Y-112186969D01*
X157176450Y-112152315D01*
X156993954Y-112054768D01*
X156795934Y-111994700D01*
X156795932Y-111994699D01*
X156795934Y-111994699D01*
X156590000Y-111974417D01*
X156384067Y-111994699D01*
X156186043Y-112054769D01*
X156075898Y-112113643D01*
X156003550Y-112152315D01*
X156003548Y-112152316D01*
X156003547Y-112152317D01*
X155843589Y-112283589D01*
X155712317Y-112443547D01*
X155614769Y-112626043D01*
X155554699Y-112824067D01*
X155534417Y-113030000D01*
X155105583Y-113030000D01*
X155085300Y-112824066D01*
X155025232Y-112626046D01*
X154927685Y-112443550D01*
X154852897Y-112352420D01*
X154796410Y-112283589D01*
X154678677Y-112186969D01*
X154636450Y-112152315D01*
X154453954Y-112054768D01*
X154255934Y-111994700D01*
X154255932Y-111994699D01*
X154255934Y-111994699D01*
X154050000Y-111974417D01*
X153844067Y-111994699D01*
X153646043Y-112054769D01*
X153535898Y-112113643D01*
X153463550Y-112152315D01*
X153463548Y-112152316D01*
X153463547Y-112152317D01*
X153303589Y-112283589D01*
X153172317Y-112443547D01*
X153074769Y-112626043D01*
X153014699Y-112824067D01*
X152994417Y-113030000D01*
X152565583Y-113030000D01*
X152545300Y-112824066D01*
X152485232Y-112626046D01*
X152387685Y-112443550D01*
X152312897Y-112352420D01*
X152256410Y-112283589D01*
X152138677Y-112186969D01*
X152096450Y-112152315D01*
X151913954Y-112054768D01*
X151715934Y-111994700D01*
X151715932Y-111994699D01*
X151715934Y-111994699D01*
X151510000Y-111974417D01*
X151304067Y-111994699D01*
X151106043Y-112054769D01*
X150995898Y-112113643D01*
X150923550Y-112152315D01*
X150923548Y-112152316D01*
X150923547Y-112152317D01*
X150763589Y-112283589D01*
X150632317Y-112443547D01*
X150534769Y-112626043D01*
X150474699Y-112824067D01*
X150454417Y-113030000D01*
X150025583Y-113030000D01*
X150005300Y-112824066D01*
X149945232Y-112626046D01*
X149847685Y-112443550D01*
X149772897Y-112352420D01*
X149716410Y-112283589D01*
X149598677Y-112186969D01*
X149556450Y-112152315D01*
X149373954Y-112054768D01*
X149175934Y-111994700D01*
X149175932Y-111994699D01*
X149175934Y-111994699D01*
X148970000Y-111974417D01*
X148764067Y-111994699D01*
X148566043Y-112054769D01*
X148455898Y-112113643D01*
X148383550Y-112152315D01*
X148383548Y-112152316D01*
X148383547Y-112152317D01*
X148223589Y-112283589D01*
X148092317Y-112443547D01*
X147994769Y-112626043D01*
X147934699Y-112824067D01*
X147914417Y-113030000D01*
X147485583Y-113030000D01*
X147465300Y-112824066D01*
X147405232Y-112626046D01*
X147307685Y-112443550D01*
X147232897Y-112352420D01*
X147176410Y-112283589D01*
X147058677Y-112186969D01*
X147016450Y-112152315D01*
X146833954Y-112054768D01*
X146635934Y-111994700D01*
X146635932Y-111994699D01*
X146635934Y-111994699D01*
X146430000Y-111974417D01*
X146224067Y-111994699D01*
X146026043Y-112054769D01*
X145915898Y-112113643D01*
X145843550Y-112152315D01*
X145843548Y-112152316D01*
X145843547Y-112152317D01*
X145683589Y-112283589D01*
X145552317Y-112443547D01*
X145454769Y-112626043D01*
X145394699Y-112824067D01*
X145374417Y-113030000D01*
X144945583Y-113030000D01*
X144925300Y-112824066D01*
X144865232Y-112626046D01*
X144767685Y-112443550D01*
X144692897Y-112352420D01*
X144636410Y-112283589D01*
X144518677Y-112186969D01*
X144476450Y-112152315D01*
X144293954Y-112054768D01*
X144095934Y-111994700D01*
X144095932Y-111994699D01*
X144095934Y-111994699D01*
X143890000Y-111974417D01*
X143684067Y-111994699D01*
X143486043Y-112054769D01*
X143375898Y-112113643D01*
X143303550Y-112152315D01*
X143303548Y-112152316D01*
X143303547Y-112152317D01*
X143143589Y-112283589D01*
X143012317Y-112443547D01*
X142914769Y-112626043D01*
X142854699Y-112824067D01*
X142834417Y-113030000D01*
X142405583Y-113030000D01*
X142385300Y-112824066D01*
X142325232Y-112626046D01*
X142227685Y-112443550D01*
X142152897Y-112352420D01*
X142096410Y-112283589D01*
X141978677Y-112186969D01*
X141936450Y-112152315D01*
X141753954Y-112054768D01*
X141555934Y-111994700D01*
X141555932Y-111994699D01*
X141555934Y-111994699D01*
X141350000Y-111974417D01*
X141144067Y-111994699D01*
X140946043Y-112054769D01*
X140835898Y-112113643D01*
X140763550Y-112152315D01*
X140763548Y-112152316D01*
X140763547Y-112152317D01*
X140603589Y-112283589D01*
X140472317Y-112443547D01*
X140374769Y-112626043D01*
X140314699Y-112824067D01*
X140294417Y-113030000D01*
X139865583Y-113030000D01*
X139845300Y-112824066D01*
X139785232Y-112626046D01*
X139687685Y-112443550D01*
X139612897Y-112352420D01*
X139556410Y-112283589D01*
X139438677Y-112186969D01*
X139396450Y-112152315D01*
X139213954Y-112054768D01*
X139015934Y-111994700D01*
X139015932Y-111994699D01*
X139015934Y-111994699D01*
X138810000Y-111974417D01*
X138604067Y-111994699D01*
X138406043Y-112054769D01*
X138295898Y-112113643D01*
X138223550Y-112152315D01*
X138223548Y-112152316D01*
X138223547Y-112152317D01*
X138063589Y-112283589D01*
X137932317Y-112443547D01*
X137834769Y-112626043D01*
X137774699Y-112824067D01*
X137754417Y-113030000D01*
X137325583Y-113030000D01*
X137305300Y-112824066D01*
X137245232Y-112626046D01*
X137147685Y-112443550D01*
X137072897Y-112352420D01*
X137016410Y-112283589D01*
X136898677Y-112186969D01*
X136856450Y-112152315D01*
X136673954Y-112054768D01*
X136475934Y-111994700D01*
X136475932Y-111994699D01*
X136475934Y-111994699D01*
X136270000Y-111974417D01*
X136064067Y-111994699D01*
X135866043Y-112054769D01*
X135755898Y-112113643D01*
X135683550Y-112152315D01*
X135683548Y-112152316D01*
X135683547Y-112152317D01*
X135523589Y-112283589D01*
X135392317Y-112443547D01*
X135294769Y-112626043D01*
X135234699Y-112824067D01*
X135214417Y-113030000D01*
X134785583Y-113030000D01*
X134765300Y-112824066D01*
X134705232Y-112626046D01*
X134607685Y-112443550D01*
X134532897Y-112352420D01*
X134476410Y-112283589D01*
X134358677Y-112186969D01*
X134316450Y-112152315D01*
X134133954Y-112054768D01*
X133935934Y-111994700D01*
X133935932Y-111994699D01*
X133935934Y-111994699D01*
X133730000Y-111974417D01*
X133524067Y-111994699D01*
X133326043Y-112054769D01*
X133215898Y-112113643D01*
X133143550Y-112152315D01*
X133143548Y-112152316D01*
X133143547Y-112152317D01*
X132983589Y-112283589D01*
X132852317Y-112443547D01*
X132754769Y-112626043D01*
X132694699Y-112824067D01*
X132674417Y-113030000D01*
X132245583Y-113030000D01*
X132225300Y-112824066D01*
X132165232Y-112626046D01*
X132067685Y-112443550D01*
X131992897Y-112352420D01*
X131936410Y-112283589D01*
X131818677Y-112186969D01*
X131776450Y-112152315D01*
X131593954Y-112054768D01*
X131395934Y-111994700D01*
X131395932Y-111994699D01*
X131395934Y-111994699D01*
X131190000Y-111974417D01*
X130984067Y-111994699D01*
X130786043Y-112054769D01*
X130675898Y-112113643D01*
X130603550Y-112152315D01*
X130603548Y-112152316D01*
X130603547Y-112152317D01*
X130443589Y-112283589D01*
X130312317Y-112443547D01*
X130214767Y-112626046D01*
X130194593Y-112692552D01*
X130156296Y-112750990D01*
X130092483Y-112779447D01*
X130023416Y-112768886D01*
X129971023Y-112722661D01*
X129956158Y-112688649D01*
X129923433Y-112566516D01*
X129923429Y-112566507D01*
X129823600Y-112352422D01*
X129823599Y-112352420D01*
X129688113Y-112158926D01*
X129688108Y-112158920D01*
X129521082Y-111991894D01*
X129327578Y-111856399D01*
X129113492Y-111756570D01*
X129113486Y-111756567D01*
X128900000Y-111699364D01*
X128900000Y-112596988D01*
X128842993Y-112564075D01*
X128715826Y-112530000D01*
X128584174Y-112530000D01*
X128457007Y-112564075D01*
X128400000Y-112596988D01*
X128400000Y-111699364D01*
X128399999Y-111699364D01*
X128186513Y-111756567D01*
X128186507Y-111756570D01*
X127972422Y-111856399D01*
X127972420Y-111856400D01*
X127778926Y-111991886D01*
X127778920Y-111991891D01*
X127611891Y-112158920D01*
X127611886Y-112158926D01*
X127476400Y-112352420D01*
X127476399Y-112352422D01*
X127376570Y-112566507D01*
X127376567Y-112566513D01*
X127319364Y-112779999D01*
X127319364Y-112780000D01*
X128216988Y-112780000D01*
X128184075Y-112837007D01*
X128150000Y-112964174D01*
X128150000Y-113095826D01*
X128184075Y-113222993D01*
X128216988Y-113280000D01*
X127319364Y-113280000D01*
X127376567Y-113493486D01*
X127376570Y-113493492D01*
X127476399Y-113707578D01*
X127611894Y-113901082D01*
X127734334Y-114023522D01*
X127767819Y-114084845D01*
X127762835Y-114154537D01*
X127720963Y-114210470D01*
X127689987Y-114227385D01*
X127557911Y-114276646D01*
X127557906Y-114276649D01*
X127442812Y-114362809D01*
X127442809Y-114362812D01*
X127356649Y-114477906D01*
X127356645Y-114477913D01*
X127306403Y-114612620D01*
X127306401Y-114612627D01*
X127300000Y-114672155D01*
X127300000Y-115320000D01*
X128216988Y-115320000D01*
X128184075Y-115377007D01*
X128150000Y-115504174D01*
X128150000Y-115635826D01*
X128184075Y-115762993D01*
X128216988Y-115820000D01*
X127300000Y-115820000D01*
X127300000Y-116467844D01*
X126500000Y-116467844D01*
X126500000Y-109519752D01*
X127449500Y-109519752D01*
X127461131Y-109578229D01*
X127461132Y-109578230D01*
X127505447Y-109644552D01*
X127571769Y-109688867D01*
X127571770Y-109688868D01*
X127630247Y-109700499D01*
X127630250Y-109700500D01*
X127630252Y-109700500D01*
X128669750Y-109700500D01*
X128669751Y-109700499D01*
X128684568Y-109697552D01*
X128728229Y-109688868D01*
X128728229Y-109688867D01*
X128728231Y-109688867D01*
X128794552Y-109644552D01*
X128825899Y-109597638D01*
X128879508Y-109552836D01*
X128948833Y-109544127D01*
X129011225Y-109573715D01*
X129019148Y-109580734D01*
X129169775Y-109659790D01*
X129334944Y-109700500D01*
X129505056Y-109700500D01*
X129670225Y-109659790D01*
X129788639Y-109597641D01*
X129820849Y-109580736D01*
X129820850Y-109580734D01*
X129820852Y-109580734D01*
X129948183Y-109467929D01*
X129952950Y-109461021D01*
X130007230Y-109417033D01*
X130076678Y-109409372D01*
X130139244Y-109440473D01*
X130157046Y-109461017D01*
X130161817Y-109467929D01*
X130247827Y-109544127D01*
X130289150Y-109580736D01*
X130439773Y-109659789D01*
X130439775Y-109659790D01*
X130604944Y-109700500D01*
X130775056Y-109700500D01*
X130940225Y-109659790D01*
X131058639Y-109597641D01*
X131090849Y-109580736D01*
X131090850Y-109580734D01*
X131090852Y-109580734D01*
X131218183Y-109467929D01*
X131222950Y-109461021D01*
X131277230Y-109417033D01*
X131346678Y-109409372D01*
X131409244Y-109440473D01*
X131427046Y-109461017D01*
X131431817Y-109467929D01*
X131517827Y-109544127D01*
X131559150Y-109580736D01*
X131709773Y-109659789D01*
X131709775Y-109659790D01*
X131874944Y-109700500D01*
X132045056Y-109700500D01*
X132210225Y-109659790D01*
X132328639Y-109597641D01*
X132360849Y-109580736D01*
X132360850Y-109580734D01*
X132360852Y-109580734D01*
X132488183Y-109467929D01*
X132492950Y-109461021D01*
X132547230Y-109417033D01*
X132616678Y-109409372D01*
X132679244Y-109440473D01*
X132697046Y-109461017D01*
X132701817Y-109467929D01*
X132787827Y-109544127D01*
X132829150Y-109580736D01*
X132979773Y-109659789D01*
X132979775Y-109659790D01*
X133144944Y-109700500D01*
X133315056Y-109700500D01*
X133480225Y-109659790D01*
X133598639Y-109597641D01*
X133630849Y-109580736D01*
X133630850Y-109580734D01*
X133630852Y-109580734D01*
X133758183Y-109467929D01*
X133762950Y-109461021D01*
X133817230Y-109417033D01*
X133886678Y-109409372D01*
X133949244Y-109440473D01*
X133967046Y-109461017D01*
X133971817Y-109467929D01*
X134057827Y-109544127D01*
X134099150Y-109580736D01*
X134249773Y-109659789D01*
X134249775Y-109659790D01*
X134414944Y-109700500D01*
X134585056Y-109700500D01*
X134750225Y-109659790D01*
X134868639Y-109597641D01*
X134900849Y-109580736D01*
X134900850Y-109580734D01*
X134900852Y-109580734D01*
X135028183Y-109467929D01*
X135032950Y-109461021D01*
X135087230Y-109417033D01*
X135156678Y-109409372D01*
X135219244Y-109440473D01*
X135237046Y-109461017D01*
X135241817Y-109467929D01*
X135327827Y-109544127D01*
X135369150Y-109580736D01*
X135519773Y-109659789D01*
X135519775Y-109659790D01*
X135684944Y-109700500D01*
X135855056Y-109700500D01*
X136020225Y-109659790D01*
X136138639Y-109597641D01*
X136170849Y-109580736D01*
X136170850Y-109580734D01*
X136170852Y-109580734D01*
X136298183Y-109467929D01*
X136302950Y-109461021D01*
X136357230Y-109417033D01*
X136426678Y-109409372D01*
X136489244Y-109440473D01*
X136507046Y-109461017D01*
X136511817Y-109467929D01*
X136597827Y-109544127D01*
X136639150Y-109580736D01*
X136789773Y-109659789D01*
X136789775Y-109659790D01*
X136954944Y-109700500D01*
X137125056Y-109700500D01*
X137290225Y-109659790D01*
X137408639Y-109597641D01*
X137440849Y-109580736D01*
X137440850Y-109580734D01*
X137440852Y-109580734D01*
X137568183Y-109467929D01*
X137572950Y-109461021D01*
X137627230Y-109417033D01*
X137696678Y-109409372D01*
X137759244Y-109440473D01*
X137777046Y-109461017D01*
X137781817Y-109467929D01*
X137867827Y-109544127D01*
X137909150Y-109580736D01*
X138059773Y-109659789D01*
X138059775Y-109659790D01*
X138224944Y-109700500D01*
X138395056Y-109700500D01*
X138560225Y-109659790D01*
X138678639Y-109597641D01*
X138710849Y-109580736D01*
X138710850Y-109580734D01*
X138710852Y-109580734D01*
X138779687Y-109519752D01*
X140299500Y-109519752D01*
X140311131Y-109578229D01*
X140311132Y-109578230D01*
X140355447Y-109644552D01*
X140421769Y-109688867D01*
X140421770Y-109688868D01*
X140480247Y-109700499D01*
X140480250Y-109700500D01*
X140480252Y-109700500D01*
X141519750Y-109700500D01*
X141519751Y-109700499D01*
X141534568Y-109697552D01*
X141578229Y-109688868D01*
X141578229Y-109688867D01*
X141578231Y-109688867D01*
X141644552Y-109644552D01*
X141675899Y-109597638D01*
X141729508Y-109552836D01*
X141798833Y-109544127D01*
X141861225Y-109573715D01*
X141869148Y-109580734D01*
X142019775Y-109659790D01*
X142184944Y-109700500D01*
X142355056Y-109700500D01*
X142520225Y-109659790D01*
X142638639Y-109597641D01*
X142670849Y-109580736D01*
X142670850Y-109580734D01*
X142670852Y-109580734D01*
X142798183Y-109467929D01*
X142802950Y-109461021D01*
X142857230Y-109417033D01*
X142926678Y-109409372D01*
X142989244Y-109440473D01*
X143007046Y-109461017D01*
X143011817Y-109467929D01*
X143097827Y-109544127D01*
X143139150Y-109580736D01*
X143289773Y-109659789D01*
X143289775Y-109659790D01*
X143454944Y-109700500D01*
X143625056Y-109700500D01*
X143790225Y-109659790D01*
X143908639Y-109597641D01*
X143940849Y-109580736D01*
X143940850Y-109580734D01*
X143940852Y-109580734D01*
X144068183Y-109467929D01*
X144072950Y-109461021D01*
X144127230Y-109417033D01*
X144196678Y-109409372D01*
X144259244Y-109440473D01*
X144277046Y-109461017D01*
X144281817Y-109467929D01*
X144367827Y-109544127D01*
X144409150Y-109580736D01*
X144559773Y-109659789D01*
X144559775Y-109659790D01*
X144724944Y-109700500D01*
X144895056Y-109700500D01*
X145060225Y-109659790D01*
X145178639Y-109597641D01*
X145210849Y-109580736D01*
X145210850Y-109580734D01*
X145210852Y-109580734D01*
X145338183Y-109467929D01*
X145342950Y-109461021D01*
X145397230Y-109417033D01*
X145466678Y-109409372D01*
X145529244Y-109440473D01*
X145547046Y-109461017D01*
X145551817Y-109467929D01*
X145637827Y-109544127D01*
X145679150Y-109580736D01*
X145829773Y-109659789D01*
X145829775Y-109659790D01*
X145994944Y-109700500D01*
X146165056Y-109700500D01*
X146330225Y-109659790D01*
X146448639Y-109597641D01*
X146480849Y-109580736D01*
X146480850Y-109580734D01*
X146480852Y-109580734D01*
X146608183Y-109467929D01*
X146612950Y-109461021D01*
X146667230Y-109417033D01*
X146736678Y-109409372D01*
X146799244Y-109440473D01*
X146817046Y-109461017D01*
X146821817Y-109467929D01*
X146907827Y-109544127D01*
X146949150Y-109580736D01*
X147099773Y-109659789D01*
X147099775Y-109659790D01*
X147264944Y-109700500D01*
X147435056Y-109700500D01*
X147600225Y-109659790D01*
X147718639Y-109597641D01*
X147750849Y-109580736D01*
X147750850Y-109580734D01*
X147750852Y-109580734D01*
X147878183Y-109467929D01*
X147882950Y-109461021D01*
X147937230Y-109417033D01*
X148006678Y-109409372D01*
X148069244Y-109440473D01*
X148087046Y-109461017D01*
X148091817Y-109467929D01*
X148177827Y-109544127D01*
X148219150Y-109580736D01*
X148369773Y-109659789D01*
X148369775Y-109659790D01*
X148534944Y-109700500D01*
X148705056Y-109700500D01*
X148870225Y-109659790D01*
X148988639Y-109597641D01*
X149020849Y-109580736D01*
X149020850Y-109580734D01*
X149020852Y-109580734D01*
X149148183Y-109467929D01*
X149152950Y-109461021D01*
X149207230Y-109417033D01*
X149276678Y-109409372D01*
X149339244Y-109440473D01*
X149357046Y-109461017D01*
X149361817Y-109467929D01*
X149447827Y-109544127D01*
X149489150Y-109580736D01*
X149639773Y-109659789D01*
X149639775Y-109659790D01*
X149804944Y-109700500D01*
X149975056Y-109700500D01*
X150140225Y-109659790D01*
X150258639Y-109597641D01*
X150290849Y-109580736D01*
X150290850Y-109580734D01*
X150290852Y-109580734D01*
X150418183Y-109467929D01*
X150422950Y-109461021D01*
X150477230Y-109417033D01*
X150546678Y-109409372D01*
X150609244Y-109440473D01*
X150627046Y-109461017D01*
X150631817Y-109467929D01*
X150717827Y-109544127D01*
X150759150Y-109580736D01*
X150909773Y-109659789D01*
X150909775Y-109659790D01*
X151074944Y-109700500D01*
X151245056Y-109700500D01*
X151410225Y-109659790D01*
X151528639Y-109597641D01*
X151560849Y-109580736D01*
X151560850Y-109580734D01*
X151560852Y-109580734D01*
X151629687Y-109519752D01*
X152989500Y-109519752D01*
X153001131Y-109578229D01*
X153001132Y-109578230D01*
X153045447Y-109644552D01*
X153111769Y-109688867D01*
X153111770Y-109688868D01*
X153170247Y-109700499D01*
X153170250Y-109700500D01*
X153170252Y-109700500D01*
X154209750Y-109700500D01*
X154209751Y-109700499D01*
X154224568Y-109697552D01*
X154268229Y-109688868D01*
X154268229Y-109688867D01*
X154268231Y-109688867D01*
X154334552Y-109644552D01*
X154365899Y-109597638D01*
X154419508Y-109552836D01*
X154488833Y-109544127D01*
X154551225Y-109573715D01*
X154559148Y-109580734D01*
X154709775Y-109659790D01*
X154874944Y-109700500D01*
X155045056Y-109700500D01*
X155210225Y-109659790D01*
X155328639Y-109597641D01*
X155360849Y-109580736D01*
X155360850Y-109580734D01*
X155360852Y-109580734D01*
X155488183Y-109467929D01*
X155492950Y-109461021D01*
X155547230Y-109417033D01*
X155616678Y-109409372D01*
X155679244Y-109440473D01*
X155697046Y-109461017D01*
X155701817Y-109467929D01*
X155787827Y-109544127D01*
X155829150Y-109580736D01*
X155979773Y-109659789D01*
X155979775Y-109659790D01*
X156144944Y-109700500D01*
X156315056Y-109700500D01*
X156480225Y-109659790D01*
X156598639Y-109597641D01*
X156630849Y-109580736D01*
X156630850Y-109580734D01*
X156630852Y-109580734D01*
X156758183Y-109467929D01*
X156762950Y-109461021D01*
X156817230Y-109417033D01*
X156886678Y-109409372D01*
X156949244Y-109440473D01*
X156967046Y-109461017D01*
X156971817Y-109467929D01*
X157057827Y-109544127D01*
X157099150Y-109580736D01*
X157249773Y-109659789D01*
X157249775Y-109659790D01*
X157414944Y-109700500D01*
X157585056Y-109700500D01*
X157750225Y-109659790D01*
X157868639Y-109597641D01*
X157900849Y-109580736D01*
X157900850Y-109580734D01*
X157900852Y-109580734D01*
X158028183Y-109467929D01*
X158032950Y-109461021D01*
X158087230Y-109417033D01*
X158156678Y-109409372D01*
X158219244Y-109440473D01*
X158237046Y-109461017D01*
X158241817Y-109467929D01*
X158327827Y-109544127D01*
X158369150Y-109580736D01*
X158519773Y-109659789D01*
X158519775Y-109659790D01*
X158684944Y-109700500D01*
X158855056Y-109700500D01*
X159020225Y-109659790D01*
X159138639Y-109597641D01*
X159170849Y-109580736D01*
X159170850Y-109580734D01*
X159170852Y-109580734D01*
X159298183Y-109467929D01*
X159302950Y-109461021D01*
X159357230Y-109417033D01*
X159426678Y-109409372D01*
X159489244Y-109440473D01*
X159507046Y-109461017D01*
X159511817Y-109467929D01*
X159597827Y-109544127D01*
X159639150Y-109580736D01*
X159789773Y-109659789D01*
X159789775Y-109659790D01*
X159954944Y-109700500D01*
X160125056Y-109700500D01*
X160290225Y-109659790D01*
X160408639Y-109597641D01*
X160440849Y-109580736D01*
X160440850Y-109580734D01*
X160440852Y-109580734D01*
X160568183Y-109467929D01*
X160572950Y-109461021D01*
X160627230Y-109417033D01*
X160696678Y-109409372D01*
X160759244Y-109440473D01*
X160777046Y-109461017D01*
X160781817Y-109467929D01*
X160867827Y-109544127D01*
X160909150Y-109580736D01*
X161059773Y-109659789D01*
X161059775Y-109659790D01*
X161224944Y-109700500D01*
X161395056Y-109700500D01*
X161560225Y-109659790D01*
X161678639Y-109597641D01*
X161710849Y-109580736D01*
X161710850Y-109580734D01*
X161710852Y-109580734D01*
X161838183Y-109467929D01*
X161842950Y-109461021D01*
X161897230Y-109417033D01*
X161966678Y-109409372D01*
X162029244Y-109440473D01*
X162047046Y-109461017D01*
X162051817Y-109467929D01*
X162137827Y-109544127D01*
X162179150Y-109580736D01*
X162329773Y-109659789D01*
X162329775Y-109659790D01*
X162494944Y-109700500D01*
X162665056Y-109700500D01*
X162830225Y-109659790D01*
X162948639Y-109597641D01*
X162980849Y-109580736D01*
X162980850Y-109580734D01*
X162980852Y-109580734D01*
X163108183Y-109467929D01*
X163112950Y-109461021D01*
X163167230Y-109417033D01*
X163236678Y-109409372D01*
X163299244Y-109440473D01*
X163317046Y-109461017D01*
X163321817Y-109467929D01*
X163407827Y-109544127D01*
X163449150Y-109580736D01*
X163599773Y-109659789D01*
X163599775Y-109659790D01*
X163764944Y-109700500D01*
X163935056Y-109700500D01*
X164100225Y-109659790D01*
X164218639Y-109597641D01*
X164250849Y-109580736D01*
X164250850Y-109580734D01*
X164250852Y-109580734D01*
X164378183Y-109467929D01*
X164474818Y-109327930D01*
X164535140Y-109168872D01*
X164555645Y-109000000D01*
X164535140Y-108831128D01*
X164474818Y-108672070D01*
X164461602Y-108652924D01*
X164440476Y-108622318D01*
X164378183Y-108532071D01*
X164258776Y-108426286D01*
X164250849Y-108419263D01*
X164100226Y-108340210D01*
X163935056Y-108299500D01*
X163764944Y-108299500D01*
X163599773Y-108340210D01*
X163449150Y-108419263D01*
X163321815Y-108532072D01*
X163317049Y-108538978D01*
X163262766Y-108582968D01*
X163193317Y-108590627D01*
X163130753Y-108559523D01*
X163112951Y-108538978D01*
X163108184Y-108532072D01*
X162980849Y-108419263D01*
X162830226Y-108340210D01*
X162665056Y-108299500D01*
X162494944Y-108299500D01*
X162329773Y-108340210D01*
X162179150Y-108419263D01*
X162051815Y-108532072D01*
X162047049Y-108538978D01*
X161992766Y-108582968D01*
X161923317Y-108590627D01*
X161860753Y-108559523D01*
X161842951Y-108538978D01*
X161838184Y-108532072D01*
X161710849Y-108419263D01*
X161560226Y-108340210D01*
X161395056Y-108299500D01*
X161224944Y-108299500D01*
X161059773Y-108340210D01*
X160909150Y-108419263D01*
X160781815Y-108532072D01*
X160777049Y-108538978D01*
X160722766Y-108582968D01*
X160653317Y-108590627D01*
X160590753Y-108559523D01*
X160572951Y-108538978D01*
X160568184Y-108532072D01*
X160440849Y-108419263D01*
X160290226Y-108340210D01*
X160125056Y-108299500D01*
X159954944Y-108299500D01*
X159789773Y-108340210D01*
X159639150Y-108419263D01*
X159511815Y-108532072D01*
X159507049Y-108538978D01*
X159452766Y-108582968D01*
X159383317Y-108590627D01*
X159320753Y-108559523D01*
X159302951Y-108538978D01*
X159298184Y-108532072D01*
X159170849Y-108419263D01*
X159020226Y-108340210D01*
X158855056Y-108299500D01*
X158684944Y-108299500D01*
X158519773Y-108340210D01*
X158369150Y-108419263D01*
X158241815Y-108532072D01*
X158237049Y-108538978D01*
X158182766Y-108582968D01*
X158113317Y-108590627D01*
X158050753Y-108559523D01*
X158032951Y-108538978D01*
X158028184Y-108532072D01*
X157900849Y-108419263D01*
X157750226Y-108340210D01*
X157585056Y-108299500D01*
X157414944Y-108299500D01*
X157249773Y-108340210D01*
X157099150Y-108419263D01*
X156971815Y-108532072D01*
X156967049Y-108538978D01*
X156912766Y-108582968D01*
X156843317Y-108590627D01*
X156780753Y-108559523D01*
X156762951Y-108538978D01*
X156758184Y-108532072D01*
X156630849Y-108419263D01*
X156480226Y-108340210D01*
X156315056Y-108299500D01*
X156144944Y-108299500D01*
X155979773Y-108340210D01*
X155829150Y-108419263D01*
X155701815Y-108532072D01*
X155697049Y-108538978D01*
X155642766Y-108582968D01*
X155573317Y-108590627D01*
X155510753Y-108559523D01*
X155492951Y-108538978D01*
X155488184Y-108532072D01*
X155360849Y-108419263D01*
X155210226Y-108340210D01*
X155045056Y-108299500D01*
X154874944Y-108299500D01*
X154709773Y-108340210D01*
X154559149Y-108419264D01*
X154559147Y-108419266D01*
X154551223Y-108426286D01*
X154487989Y-108456005D01*
X154418726Y-108446820D01*
X154365897Y-108402358D01*
X154334553Y-108355448D01*
X154268230Y-108311132D01*
X154268229Y-108311131D01*
X154209752Y-108299500D01*
X154209748Y-108299500D01*
X153170252Y-108299500D01*
X153170247Y-108299500D01*
X153111770Y-108311131D01*
X153111769Y-108311132D01*
X153045447Y-108355447D01*
X153001132Y-108421769D01*
X153001131Y-108421770D01*
X152989500Y-108480247D01*
X152989500Y-109519752D01*
X151629687Y-109519752D01*
X151688183Y-109467929D01*
X151784818Y-109327930D01*
X151845140Y-109168872D01*
X151865645Y-109000000D01*
X151845140Y-108831128D01*
X151784818Y-108672070D01*
X151771602Y-108652924D01*
X151750476Y-108622318D01*
X151688183Y-108532071D01*
X151568776Y-108426286D01*
X151560849Y-108419263D01*
X151410226Y-108340210D01*
X151245056Y-108299500D01*
X151074944Y-108299500D01*
X150909773Y-108340210D01*
X150759150Y-108419263D01*
X150631815Y-108532072D01*
X150627049Y-108538978D01*
X150572766Y-108582968D01*
X150503317Y-108590627D01*
X150440753Y-108559523D01*
X150422951Y-108538978D01*
X150418184Y-108532072D01*
X150290849Y-108419263D01*
X150140226Y-108340210D01*
X149975056Y-108299500D01*
X149804944Y-108299500D01*
X149639773Y-108340210D01*
X149489150Y-108419263D01*
X149361815Y-108532072D01*
X149357049Y-108538978D01*
X149302766Y-108582968D01*
X149233317Y-108590627D01*
X149170753Y-108559523D01*
X149152951Y-108538978D01*
X149148184Y-108532072D01*
X149020849Y-108419263D01*
X148870226Y-108340210D01*
X148705056Y-108299500D01*
X148534944Y-108299500D01*
X148369773Y-108340210D01*
X148219150Y-108419263D01*
X148091815Y-108532072D01*
X148087049Y-108538978D01*
X148032766Y-108582968D01*
X147963317Y-108590627D01*
X147900753Y-108559523D01*
X147882951Y-108538978D01*
X147878184Y-108532072D01*
X147750849Y-108419263D01*
X147600226Y-108340210D01*
X147435056Y-108299500D01*
X147264944Y-108299500D01*
X147099773Y-108340210D01*
X146949150Y-108419263D01*
X146821815Y-108532072D01*
X146817049Y-108538978D01*
X146762766Y-108582968D01*
X146693317Y-108590627D01*
X146630753Y-108559523D01*
X146612951Y-108538978D01*
X146608184Y-108532072D01*
X146480849Y-108419263D01*
X146330226Y-108340210D01*
X146165056Y-108299500D01*
X145994944Y-108299500D01*
X145829773Y-108340210D01*
X145679150Y-108419263D01*
X145551815Y-108532072D01*
X145547049Y-108538978D01*
X145492766Y-108582968D01*
X145423317Y-108590627D01*
X145360753Y-108559523D01*
X145342951Y-108538978D01*
X145338184Y-108532072D01*
X145210849Y-108419263D01*
X145060226Y-108340210D01*
X144895056Y-108299500D01*
X144724944Y-108299500D01*
X144559773Y-108340210D01*
X144409150Y-108419263D01*
X144281815Y-108532072D01*
X144277049Y-108538978D01*
X144222766Y-108582968D01*
X144153317Y-108590627D01*
X144090753Y-108559523D01*
X144072951Y-108538978D01*
X144068184Y-108532072D01*
X143940849Y-108419263D01*
X143790226Y-108340210D01*
X143625056Y-108299500D01*
X143454944Y-108299500D01*
X143289773Y-108340210D01*
X143139150Y-108419263D01*
X143011815Y-108532072D01*
X143007049Y-108538978D01*
X142952766Y-108582968D01*
X142883317Y-108590627D01*
X142820753Y-108559523D01*
X142802951Y-108538978D01*
X142798184Y-108532072D01*
X142670849Y-108419263D01*
X142520226Y-108340210D01*
X142355056Y-108299500D01*
X142184944Y-108299500D01*
X142019773Y-108340210D01*
X141869149Y-108419264D01*
X141869147Y-108419266D01*
X141861223Y-108426286D01*
X141797989Y-108456005D01*
X141728726Y-108446820D01*
X141675897Y-108402358D01*
X141644553Y-108355448D01*
X141578230Y-108311132D01*
X141578229Y-108311131D01*
X141519752Y-108299500D01*
X141519748Y-108299500D01*
X140480252Y-108299500D01*
X140480247Y-108299500D01*
X140421770Y-108311131D01*
X140421769Y-108311132D01*
X140355447Y-108355447D01*
X140311132Y-108421769D01*
X140311131Y-108421770D01*
X140299500Y-108480247D01*
X140299500Y-109519752D01*
X138779687Y-109519752D01*
X138838183Y-109467929D01*
X138934818Y-109327930D01*
X138995140Y-109168872D01*
X139015645Y-109000000D01*
X138995140Y-108831128D01*
X138934818Y-108672070D01*
X138921602Y-108652924D01*
X138900476Y-108622318D01*
X138838183Y-108532071D01*
X138718776Y-108426286D01*
X138710849Y-108419263D01*
X138560226Y-108340210D01*
X138395056Y-108299500D01*
X138224944Y-108299500D01*
X138059773Y-108340210D01*
X137909150Y-108419263D01*
X137781815Y-108532072D01*
X137777049Y-108538978D01*
X137722766Y-108582968D01*
X137653317Y-108590627D01*
X137590753Y-108559523D01*
X137572951Y-108538978D01*
X137568184Y-108532072D01*
X137440849Y-108419263D01*
X137290226Y-108340210D01*
X137125056Y-108299500D01*
X136954944Y-108299500D01*
X136789773Y-108340210D01*
X136639150Y-108419263D01*
X136511815Y-108532072D01*
X136507049Y-108538978D01*
X136452766Y-108582968D01*
X136383317Y-108590627D01*
X136320753Y-108559523D01*
X136302951Y-108538978D01*
X136298184Y-108532072D01*
X136170849Y-108419263D01*
X136020226Y-108340210D01*
X135855056Y-108299500D01*
X135684944Y-108299500D01*
X135519773Y-108340210D01*
X135369150Y-108419263D01*
X135241815Y-108532072D01*
X135237049Y-108538978D01*
X135182766Y-108582968D01*
X135113317Y-108590627D01*
X135050753Y-108559523D01*
X135032951Y-108538978D01*
X135028184Y-108532072D01*
X134900849Y-108419263D01*
X134750226Y-108340210D01*
X134585056Y-108299500D01*
X134414944Y-108299500D01*
X134249773Y-108340210D01*
X134099150Y-108419263D01*
X133971815Y-108532072D01*
X133967049Y-108538978D01*
X133912766Y-108582968D01*
X133843317Y-108590627D01*
X133780753Y-108559523D01*
X133762951Y-108538978D01*
X133758184Y-108532072D01*
X133630849Y-108419263D01*
X133480226Y-108340210D01*
X133315056Y-108299500D01*
X133144944Y-108299500D01*
X132979773Y-108340210D01*
X132829150Y-108419263D01*
X132701815Y-108532072D01*
X132697049Y-108538978D01*
X132642766Y-108582968D01*
X132573317Y-108590627D01*
X132510753Y-108559523D01*
X132492951Y-108538978D01*
X132488184Y-108532072D01*
X132360849Y-108419263D01*
X132210226Y-108340210D01*
X132045056Y-108299500D01*
X131874944Y-108299500D01*
X131709773Y-108340210D01*
X131559150Y-108419263D01*
X131431815Y-108532072D01*
X131427049Y-108538978D01*
X131372766Y-108582968D01*
X131303317Y-108590627D01*
X131240753Y-108559523D01*
X131222951Y-108538978D01*
X131218184Y-108532072D01*
X131090849Y-108419263D01*
X130940226Y-108340210D01*
X130775056Y-108299500D01*
X130604944Y-108299500D01*
X130439773Y-108340210D01*
X130289150Y-108419263D01*
X130161815Y-108532072D01*
X130157049Y-108538978D01*
X130102766Y-108582968D01*
X130033317Y-108590627D01*
X129970753Y-108559523D01*
X129952951Y-108538978D01*
X129948184Y-108532072D01*
X129820849Y-108419263D01*
X129670226Y-108340210D01*
X129505056Y-108299500D01*
X129334944Y-108299500D01*
X129169773Y-108340210D01*
X129019149Y-108419264D01*
X129019147Y-108419266D01*
X129011223Y-108426286D01*
X128947989Y-108456005D01*
X128878726Y-108446820D01*
X128825897Y-108402358D01*
X128794553Y-108355448D01*
X128728230Y-108311132D01*
X128728229Y-108311131D01*
X128669752Y-108299500D01*
X128669748Y-108299500D01*
X127630252Y-108299500D01*
X127630247Y-108299500D01*
X127571770Y-108311131D01*
X127571769Y-108311132D01*
X127505447Y-108355447D01*
X127461132Y-108421769D01*
X127461131Y-108421770D01*
X127449500Y-108480247D01*
X127449500Y-109519752D01*
X126500000Y-109519752D01*
X126500000Y-104292401D01*
X150067118Y-104292401D01*
X150087755Y-104449160D01*
X150087756Y-104449162D01*
X150148264Y-104595241D01*
X150244518Y-104720682D01*
X150369959Y-104816936D01*
X150516038Y-104877444D01*
X150594419Y-104887763D01*
X150672799Y-104898082D01*
X150672800Y-104898082D01*
X150672801Y-104898082D01*
X150725054Y-104891202D01*
X150829562Y-104877444D01*
X150975641Y-104816936D01*
X151101082Y-104720682D01*
X151197336Y-104595241D01*
X151247143Y-104474997D01*
X152894318Y-104474997D01*
X152914955Y-104631756D01*
X152914956Y-104631758D01*
X152951789Y-104720682D01*
X152975464Y-104777837D01*
X153071718Y-104903278D01*
X153197159Y-104999532D01*
X153343238Y-105060040D01*
X153421619Y-105070359D01*
X153499999Y-105080678D01*
X153500000Y-105080678D01*
X153500001Y-105080678D01*
X153552254Y-105073798D01*
X153656762Y-105060040D01*
X153802841Y-104999532D01*
X153928282Y-104903278D01*
X154024536Y-104777837D01*
X154085044Y-104631758D01*
X154105682Y-104474996D01*
X154085044Y-104318234D01*
X154024536Y-104172155D01*
X153928282Y-104046714D01*
X153802841Y-103950460D01*
X153656762Y-103889952D01*
X153656760Y-103889951D01*
X153500001Y-103869314D01*
X153499999Y-103869314D01*
X153343239Y-103889951D01*
X153343237Y-103889952D01*
X153197160Y-103950459D01*
X153071718Y-104046714D01*
X152975463Y-104172156D01*
X152914956Y-104318233D01*
X152914955Y-104318235D01*
X152894318Y-104474994D01*
X152894318Y-104474997D01*
X151247143Y-104474997D01*
X151257844Y-104449162D01*
X151278482Y-104292400D01*
X151257844Y-104135638D01*
X151197336Y-103989559D01*
X151101082Y-103864118D01*
X150975641Y-103767864D01*
X150829562Y-103707356D01*
X150829560Y-103707355D01*
X150672801Y-103686718D01*
X150672799Y-103686718D01*
X150516039Y-103707355D01*
X150516037Y-103707356D01*
X150369960Y-103767863D01*
X150244518Y-103864118D01*
X150148263Y-103989560D01*
X150087756Y-104135637D01*
X150087755Y-104135639D01*
X150067118Y-104292398D01*
X150067118Y-104292401D01*
X126500000Y-104292401D01*
X126500000Y-103075001D01*
X155719318Y-103075001D01*
X155739955Y-103231760D01*
X155739956Y-103231762D01*
X155800464Y-103377841D01*
X155896718Y-103503282D01*
X156022159Y-103599536D01*
X156168238Y-103660044D01*
X156246619Y-103670363D01*
X156324999Y-103680682D01*
X156325000Y-103680682D01*
X156325001Y-103680682D01*
X156377254Y-103673802D01*
X156481762Y-103660044D01*
X156627841Y-103599536D01*
X156753282Y-103503282D01*
X156849536Y-103377841D01*
X156910044Y-103231762D01*
X156930682Y-103075000D01*
X156910044Y-102918238D01*
X156849536Y-102772159D01*
X156753282Y-102646718D01*
X156627841Y-102550464D01*
X156481762Y-102489956D01*
X156481760Y-102489955D01*
X156325001Y-102469318D01*
X156324999Y-102469318D01*
X156168239Y-102489955D01*
X156168237Y-102489956D01*
X156022160Y-102550463D01*
X155896718Y-102646718D01*
X155800463Y-102772160D01*
X155739956Y-102918237D01*
X155739955Y-102918239D01*
X155719318Y-103074998D01*
X155719318Y-103075001D01*
X126500000Y-103075001D01*
X126500000Y-98025001D01*
X127744318Y-98025001D01*
X127764955Y-98181760D01*
X127764956Y-98181762D01*
X127823476Y-98323043D01*
X127825464Y-98327841D01*
X127921718Y-98453282D01*
X128047159Y-98549536D01*
X128193238Y-98610044D01*
X128271619Y-98620363D01*
X128349999Y-98630682D01*
X128350000Y-98630682D01*
X128350001Y-98630682D01*
X128402254Y-98623802D01*
X128506762Y-98610044D01*
X128652841Y-98549536D01*
X128778282Y-98453282D01*
X128874536Y-98327841D01*
X128935044Y-98181762D01*
X128955682Y-98025000D01*
X128949099Y-97975000D01*
X128935044Y-97868239D01*
X128935044Y-97868238D01*
X128881098Y-97738001D01*
X138819318Y-97738001D01*
X138839955Y-97894760D01*
X138839956Y-97894762D01*
X138893901Y-98024998D01*
X138900464Y-98040841D01*
X138996718Y-98166282D01*
X139122159Y-98262536D01*
X139268238Y-98323044D01*
X139346619Y-98333363D01*
X139424999Y-98343682D01*
X139425000Y-98343682D01*
X139425001Y-98343682D01*
X139477254Y-98336802D01*
X139581762Y-98323044D01*
X139727841Y-98262536D01*
X139853282Y-98166282D01*
X139949536Y-98040841D01*
X139976808Y-97975001D01*
X156744318Y-97975001D01*
X156764955Y-98131760D01*
X156764956Y-98131762D01*
X156825464Y-98277841D01*
X156921718Y-98403282D01*
X157047159Y-98499536D01*
X157193238Y-98560044D01*
X157271619Y-98570363D01*
X157349999Y-98580682D01*
X157350000Y-98580682D01*
X157350001Y-98580682D01*
X157402254Y-98573802D01*
X157506762Y-98560044D01*
X157652841Y-98499536D01*
X157778282Y-98403282D01*
X157874536Y-98277841D01*
X157935044Y-98131762D01*
X157935051Y-98131706D01*
X167129641Y-98131706D01*
X167150278Y-98288465D01*
X167150279Y-98288467D01*
X167197836Y-98403281D01*
X167210787Y-98434546D01*
X167307041Y-98559987D01*
X167432482Y-98656241D01*
X167578561Y-98716749D01*
X167656942Y-98727068D01*
X167735322Y-98737387D01*
X167735323Y-98737387D01*
X167735324Y-98737387D01*
X167787577Y-98730507D01*
X167892085Y-98716749D01*
X168038164Y-98656241D01*
X168163605Y-98559987D01*
X168259859Y-98434546D01*
X168320367Y-98288467D01*
X168336453Y-98166281D01*
X168341005Y-98131706D01*
X168341005Y-98131703D01*
X168320375Y-97975001D01*
X168320367Y-97974943D01*
X168259859Y-97828864D01*
X168163605Y-97703423D01*
X168038164Y-97607169D01*
X167892085Y-97546661D01*
X167892083Y-97546660D01*
X167735324Y-97526023D01*
X167735322Y-97526023D01*
X167578562Y-97546660D01*
X167578560Y-97546661D01*
X167432483Y-97607168D01*
X167307041Y-97703423D01*
X167210786Y-97828865D01*
X167150279Y-97974942D01*
X167150278Y-97974944D01*
X167129641Y-98131703D01*
X167129641Y-98131706D01*
X157935051Y-98131706D01*
X157955682Y-97975000D01*
X157955674Y-97974943D01*
X157935044Y-97818239D01*
X157935044Y-97818238D01*
X157874536Y-97672159D01*
X157778282Y-97546718D01*
X157652841Y-97450464D01*
X157627472Y-97439956D01*
X157506762Y-97389956D01*
X157506760Y-97389955D01*
X157350001Y-97369318D01*
X157349999Y-97369318D01*
X157193239Y-97389955D01*
X157193237Y-97389956D01*
X157047160Y-97450463D01*
X156921718Y-97546718D01*
X156825463Y-97672160D01*
X156764956Y-97818237D01*
X156764955Y-97818239D01*
X156744318Y-97974998D01*
X156744318Y-97975001D01*
X139976808Y-97975001D01*
X140010044Y-97894762D01*
X140030682Y-97738000D01*
X140010044Y-97581238D01*
X139949536Y-97435159D01*
X139853282Y-97309718D01*
X139727841Y-97213464D01*
X139581762Y-97152956D01*
X139581760Y-97152955D01*
X139425001Y-97132318D01*
X139424999Y-97132318D01*
X139268239Y-97152955D01*
X139268237Y-97152956D01*
X139122160Y-97213463D01*
X138996718Y-97309718D01*
X138900463Y-97435160D01*
X138839956Y-97581237D01*
X138839955Y-97581239D01*
X138819318Y-97737998D01*
X138819318Y-97738001D01*
X128881098Y-97738001D01*
X128874536Y-97722159D01*
X128778282Y-97596718D01*
X128652841Y-97500464D01*
X128506762Y-97439956D01*
X128506760Y-97439955D01*
X128350001Y-97419318D01*
X128349999Y-97419318D01*
X128193239Y-97439955D01*
X128193237Y-97439956D01*
X128047160Y-97500463D01*
X127921718Y-97596718D01*
X127825463Y-97722160D01*
X127764956Y-97868237D01*
X127764955Y-97868239D01*
X127744318Y-98024998D01*
X127744318Y-98025001D01*
X126500000Y-98025001D01*
X126500000Y-93019752D01*
X126949500Y-93019752D01*
X126961131Y-93078229D01*
X126961132Y-93078230D01*
X127005447Y-93144552D01*
X127071769Y-93188867D01*
X127071770Y-93188868D01*
X127130247Y-93200499D01*
X127130250Y-93200500D01*
X127130252Y-93200500D01*
X128169750Y-93200500D01*
X128169751Y-93200499D01*
X128184568Y-93197552D01*
X128228229Y-93188868D01*
X128228229Y-93188867D01*
X128228231Y-93188867D01*
X128294552Y-93144552D01*
X128325899Y-93097638D01*
X128379508Y-93052836D01*
X128448833Y-93044127D01*
X128511225Y-93073715D01*
X128519148Y-93080734D01*
X128669775Y-93159790D01*
X128834944Y-93200500D01*
X129005056Y-93200500D01*
X129170225Y-93159790D01*
X129254614Y-93115499D01*
X129320849Y-93080736D01*
X129320850Y-93080734D01*
X129320852Y-93080734D01*
X129448183Y-92967929D01*
X129452950Y-92961021D01*
X129507230Y-92917033D01*
X129576678Y-92909372D01*
X129639244Y-92940473D01*
X129657046Y-92961017D01*
X129661817Y-92967929D01*
X129747827Y-93044127D01*
X129789150Y-93080736D01*
X129939773Y-93159789D01*
X129939775Y-93159790D01*
X130104944Y-93200500D01*
X130275056Y-93200500D01*
X130440225Y-93159790D01*
X130524614Y-93115499D01*
X130590849Y-93080736D01*
X130590850Y-93080734D01*
X130590852Y-93080734D01*
X130718183Y-92967929D01*
X130722950Y-92961021D01*
X130777230Y-92917033D01*
X130846678Y-92909372D01*
X130909244Y-92940473D01*
X130927046Y-92961017D01*
X130931817Y-92967929D01*
X131017827Y-93044127D01*
X131059150Y-93080736D01*
X131209773Y-93159789D01*
X131209775Y-93159790D01*
X131374944Y-93200500D01*
X131545056Y-93200500D01*
X131710225Y-93159790D01*
X131794614Y-93115499D01*
X131860849Y-93080736D01*
X131860850Y-93080734D01*
X131860852Y-93080734D01*
X131988183Y-92967929D01*
X131992950Y-92961021D01*
X132047230Y-92917033D01*
X132116678Y-92909372D01*
X132179244Y-92940473D01*
X132197046Y-92961017D01*
X132201817Y-92967929D01*
X132287827Y-93044127D01*
X132329150Y-93080736D01*
X132479773Y-93159789D01*
X132479775Y-93159790D01*
X132644944Y-93200500D01*
X132815056Y-93200500D01*
X132980225Y-93159790D01*
X133064614Y-93115499D01*
X133130849Y-93080736D01*
X133130850Y-93080734D01*
X133130852Y-93080734D01*
X133258183Y-92967929D01*
X133262950Y-92961021D01*
X133317230Y-92917033D01*
X133386678Y-92909372D01*
X133449244Y-92940473D01*
X133467046Y-92961017D01*
X133471817Y-92967929D01*
X133557827Y-93044127D01*
X133599150Y-93080736D01*
X133749773Y-93159789D01*
X133749775Y-93159790D01*
X133914944Y-93200500D01*
X134085056Y-93200500D01*
X134250225Y-93159790D01*
X134334614Y-93115499D01*
X134400849Y-93080736D01*
X134400850Y-93080734D01*
X134400852Y-93080734D01*
X134528183Y-92967929D01*
X134532950Y-92961021D01*
X134587230Y-92917033D01*
X134656678Y-92909372D01*
X134719244Y-92940473D01*
X134737046Y-92961017D01*
X134741817Y-92967929D01*
X134827827Y-93044127D01*
X134869150Y-93080736D01*
X135019773Y-93159789D01*
X135019775Y-93159790D01*
X135184944Y-93200500D01*
X135355056Y-93200500D01*
X135520225Y-93159790D01*
X135604614Y-93115499D01*
X135670849Y-93080736D01*
X135670850Y-93080734D01*
X135670852Y-93080734D01*
X135798183Y-92967929D01*
X135802950Y-92961021D01*
X135857230Y-92917033D01*
X135926678Y-92909372D01*
X135989244Y-92940473D01*
X136007046Y-92961017D01*
X136011817Y-92967929D01*
X136097827Y-93044127D01*
X136139150Y-93080736D01*
X136289773Y-93159789D01*
X136289775Y-93159790D01*
X136454944Y-93200500D01*
X136625056Y-93200500D01*
X136790225Y-93159790D01*
X136874614Y-93115499D01*
X136940849Y-93080736D01*
X136940850Y-93080734D01*
X136940852Y-93080734D01*
X137068183Y-92967929D01*
X137072950Y-92961021D01*
X137127230Y-92917033D01*
X137196678Y-92909372D01*
X137259244Y-92940473D01*
X137277046Y-92961017D01*
X137281817Y-92967929D01*
X137367827Y-93044127D01*
X137409150Y-93080736D01*
X137559773Y-93159789D01*
X137559775Y-93159790D01*
X137724944Y-93200500D01*
X137895056Y-93200500D01*
X138060225Y-93159790D01*
X138144614Y-93115499D01*
X138210849Y-93080736D01*
X138210850Y-93080734D01*
X138210852Y-93080734D01*
X138279687Y-93019752D01*
X140179500Y-93019752D01*
X140191131Y-93078229D01*
X140191132Y-93078230D01*
X140235447Y-93144552D01*
X140301769Y-93188867D01*
X140301770Y-93188868D01*
X140360247Y-93200499D01*
X140360250Y-93200500D01*
X140360252Y-93200500D01*
X141399750Y-93200500D01*
X141399751Y-93200499D01*
X141414568Y-93197552D01*
X141458229Y-93188868D01*
X141458229Y-93188867D01*
X141458231Y-93188867D01*
X141524552Y-93144552D01*
X141555899Y-93097638D01*
X141609508Y-93052836D01*
X141678833Y-93044127D01*
X141741225Y-93073715D01*
X141749148Y-93080734D01*
X141899775Y-93159790D01*
X142064944Y-93200500D01*
X142235056Y-93200500D01*
X142400225Y-93159790D01*
X142484614Y-93115499D01*
X142550849Y-93080736D01*
X142550850Y-93080734D01*
X142550852Y-93080734D01*
X142678183Y-92967929D01*
X142682950Y-92961021D01*
X142737230Y-92917033D01*
X142806678Y-92909372D01*
X142869244Y-92940473D01*
X142887046Y-92961017D01*
X142891817Y-92967929D01*
X142977827Y-93044127D01*
X143019150Y-93080736D01*
X143169773Y-93159789D01*
X143169775Y-93159790D01*
X143334944Y-93200500D01*
X143505056Y-93200500D01*
X143670225Y-93159790D01*
X143754614Y-93115499D01*
X143820849Y-93080736D01*
X143820850Y-93080734D01*
X143820852Y-93080734D01*
X143948183Y-92967929D01*
X143952950Y-92961021D01*
X144007230Y-92917033D01*
X144076678Y-92909372D01*
X144139244Y-92940473D01*
X144157046Y-92961017D01*
X144161817Y-92967929D01*
X144247827Y-93044127D01*
X144289150Y-93080736D01*
X144439773Y-93159789D01*
X144439775Y-93159790D01*
X144604944Y-93200500D01*
X144775056Y-93200500D01*
X144940225Y-93159790D01*
X145024614Y-93115499D01*
X145090849Y-93080736D01*
X145090850Y-93080734D01*
X145090852Y-93080734D01*
X145218183Y-92967929D01*
X145222950Y-92961021D01*
X145277230Y-92917033D01*
X145346678Y-92909372D01*
X145409244Y-92940473D01*
X145427046Y-92961017D01*
X145431817Y-92967929D01*
X145517827Y-93044127D01*
X145559150Y-93080736D01*
X145709773Y-93159789D01*
X145709775Y-93159790D01*
X145874944Y-93200500D01*
X146045056Y-93200500D01*
X146210225Y-93159790D01*
X146294614Y-93115499D01*
X146360849Y-93080736D01*
X146360850Y-93080734D01*
X146360852Y-93080734D01*
X146488183Y-92967929D01*
X146492950Y-92961021D01*
X146547230Y-92917033D01*
X146616678Y-92909372D01*
X146679244Y-92940473D01*
X146697046Y-92961017D01*
X146701817Y-92967929D01*
X146787827Y-93044127D01*
X146829150Y-93080736D01*
X146979773Y-93159789D01*
X146979775Y-93159790D01*
X147144944Y-93200500D01*
X147315056Y-93200500D01*
X147480225Y-93159790D01*
X147564614Y-93115499D01*
X147630849Y-93080736D01*
X147630850Y-93080734D01*
X147630852Y-93080734D01*
X147758183Y-92967929D01*
X147762950Y-92961021D01*
X147817230Y-92917033D01*
X147886678Y-92909372D01*
X147949244Y-92940473D01*
X147967046Y-92961017D01*
X147971817Y-92967929D01*
X148057827Y-93044127D01*
X148099150Y-93080736D01*
X148249773Y-93159789D01*
X148249775Y-93159790D01*
X148414944Y-93200500D01*
X148585056Y-93200500D01*
X148750225Y-93159790D01*
X148834614Y-93115499D01*
X148900849Y-93080736D01*
X148900850Y-93080734D01*
X148900852Y-93080734D01*
X149028183Y-92967929D01*
X149032950Y-92961021D01*
X149087230Y-92917033D01*
X149156678Y-92909372D01*
X149219244Y-92940473D01*
X149237046Y-92961017D01*
X149241817Y-92967929D01*
X149327827Y-93044127D01*
X149369150Y-93080736D01*
X149519773Y-93159789D01*
X149519775Y-93159790D01*
X149684944Y-93200500D01*
X149855056Y-93200500D01*
X150020225Y-93159790D01*
X150104614Y-93115499D01*
X150170849Y-93080736D01*
X150170850Y-93080734D01*
X150170852Y-93080734D01*
X150298183Y-92967929D01*
X150302950Y-92961021D01*
X150357230Y-92917033D01*
X150426678Y-92909372D01*
X150489244Y-92940473D01*
X150507046Y-92961017D01*
X150511817Y-92967929D01*
X150597827Y-93044127D01*
X150639150Y-93080736D01*
X150789773Y-93159789D01*
X150789775Y-93159790D01*
X150954944Y-93200500D01*
X151125056Y-93200500D01*
X151290225Y-93159790D01*
X151374614Y-93115499D01*
X151440849Y-93080736D01*
X151440850Y-93080734D01*
X151440852Y-93080734D01*
X151509687Y-93019752D01*
X152989500Y-93019752D01*
X153001131Y-93078229D01*
X153001132Y-93078230D01*
X153045447Y-93144552D01*
X153111769Y-93188867D01*
X153111770Y-93188868D01*
X153170247Y-93200499D01*
X153170250Y-93200500D01*
X153170252Y-93200500D01*
X154209750Y-93200500D01*
X154209751Y-93200499D01*
X154224568Y-93197552D01*
X154268229Y-93188868D01*
X154268229Y-93188867D01*
X154268231Y-93188867D01*
X154334552Y-93144552D01*
X154365899Y-93097638D01*
X154419508Y-93052836D01*
X154488833Y-93044127D01*
X154551225Y-93073715D01*
X154559148Y-93080734D01*
X154709775Y-93159790D01*
X154874944Y-93200500D01*
X155045056Y-93200500D01*
X155210225Y-93159790D01*
X155294614Y-93115499D01*
X155360849Y-93080736D01*
X155360850Y-93080734D01*
X155360852Y-93080734D01*
X155488183Y-92967929D01*
X155492950Y-92961021D01*
X155547230Y-92917033D01*
X155616678Y-92909372D01*
X155679244Y-92940473D01*
X155697046Y-92961017D01*
X155701817Y-92967929D01*
X155787827Y-93044127D01*
X155829150Y-93080736D01*
X155979773Y-93159789D01*
X155979775Y-93159790D01*
X156144944Y-93200500D01*
X156315056Y-93200500D01*
X156480225Y-93159790D01*
X156564614Y-93115499D01*
X156630849Y-93080736D01*
X156630850Y-93080734D01*
X156630852Y-93080734D01*
X156758183Y-92967929D01*
X156762950Y-92961021D01*
X156817230Y-92917033D01*
X156886678Y-92909372D01*
X156949244Y-92940473D01*
X156967046Y-92961017D01*
X156971817Y-92967929D01*
X157057827Y-93044127D01*
X157099150Y-93080736D01*
X157249773Y-93159789D01*
X157249775Y-93159790D01*
X157414944Y-93200500D01*
X157585056Y-93200500D01*
X157750225Y-93159790D01*
X157834614Y-93115499D01*
X157900849Y-93080736D01*
X157900850Y-93080734D01*
X157900852Y-93080734D01*
X158028183Y-92967929D01*
X158032950Y-92961021D01*
X158087230Y-92917033D01*
X158156678Y-92909372D01*
X158219244Y-92940473D01*
X158237046Y-92961017D01*
X158241817Y-92967929D01*
X158327827Y-93044127D01*
X158369150Y-93080736D01*
X158519773Y-93159789D01*
X158519775Y-93159790D01*
X158684944Y-93200500D01*
X158855056Y-93200500D01*
X159020225Y-93159790D01*
X159104614Y-93115499D01*
X159170849Y-93080736D01*
X159170850Y-93080734D01*
X159170852Y-93080734D01*
X159298183Y-92967929D01*
X159302950Y-92961021D01*
X159357230Y-92917033D01*
X159426678Y-92909372D01*
X159489244Y-92940473D01*
X159507046Y-92961017D01*
X159511817Y-92967929D01*
X159597827Y-93044127D01*
X159639150Y-93080736D01*
X159789773Y-93159789D01*
X159789775Y-93159790D01*
X159954944Y-93200500D01*
X160125056Y-93200500D01*
X160290225Y-93159790D01*
X160374614Y-93115499D01*
X160440849Y-93080736D01*
X160440850Y-93080734D01*
X160440852Y-93080734D01*
X160568183Y-92967929D01*
X160572950Y-92961021D01*
X160627230Y-92917033D01*
X160696678Y-92909372D01*
X160759244Y-92940473D01*
X160777046Y-92961017D01*
X160781817Y-92967929D01*
X160867827Y-93044127D01*
X160909150Y-93080736D01*
X161059773Y-93159789D01*
X161059775Y-93159790D01*
X161224944Y-93200500D01*
X161395056Y-93200500D01*
X161560225Y-93159790D01*
X161644614Y-93115499D01*
X161710849Y-93080736D01*
X161710850Y-93080734D01*
X161710852Y-93080734D01*
X161838183Y-92967929D01*
X161842950Y-92961021D01*
X161897230Y-92917033D01*
X161966678Y-92909372D01*
X162029244Y-92940473D01*
X162047046Y-92961017D01*
X162051817Y-92967929D01*
X162137827Y-93044127D01*
X162179150Y-93080736D01*
X162329773Y-93159789D01*
X162329775Y-93159790D01*
X162494944Y-93200500D01*
X162665056Y-93200500D01*
X162830225Y-93159790D01*
X162914614Y-93115499D01*
X162980849Y-93080736D01*
X162980850Y-93080734D01*
X162980852Y-93080734D01*
X163108183Y-92967929D01*
X163112950Y-92961021D01*
X163167230Y-92917033D01*
X163236678Y-92909372D01*
X163299244Y-92940473D01*
X163317046Y-92961017D01*
X163321817Y-92967929D01*
X163407827Y-93044127D01*
X163449150Y-93080736D01*
X163599773Y-93159789D01*
X163599775Y-93159790D01*
X163764944Y-93200500D01*
X163935056Y-93200500D01*
X164100225Y-93159790D01*
X164184614Y-93115499D01*
X164250849Y-93080736D01*
X164250850Y-93080734D01*
X164250852Y-93080734D01*
X164378183Y-92967929D01*
X164474818Y-92827930D01*
X164535140Y-92668872D01*
X164555645Y-92500000D01*
X164535140Y-92331128D01*
X164474818Y-92172070D01*
X164378183Y-92032071D01*
X164258776Y-91926286D01*
X164250849Y-91919263D01*
X164100226Y-91840210D01*
X163935056Y-91799500D01*
X163764944Y-91799500D01*
X163599773Y-91840210D01*
X163449150Y-91919263D01*
X163321815Y-92032072D01*
X163317049Y-92038978D01*
X163262766Y-92082968D01*
X163193317Y-92090627D01*
X163130753Y-92059523D01*
X163112951Y-92038978D01*
X163108184Y-92032072D01*
X162980849Y-91919263D01*
X162830226Y-91840210D01*
X162665056Y-91799500D01*
X162494944Y-91799500D01*
X162329773Y-91840210D01*
X162179150Y-91919263D01*
X162051815Y-92032072D01*
X162047049Y-92038978D01*
X161992766Y-92082968D01*
X161923317Y-92090627D01*
X161860753Y-92059523D01*
X161842951Y-92038978D01*
X161838184Y-92032072D01*
X161710849Y-91919263D01*
X161560226Y-91840210D01*
X161395056Y-91799500D01*
X161224944Y-91799500D01*
X161059773Y-91840210D01*
X160909150Y-91919263D01*
X160781815Y-92032072D01*
X160777049Y-92038978D01*
X160722766Y-92082968D01*
X160653317Y-92090627D01*
X160590753Y-92059523D01*
X160572951Y-92038978D01*
X160568184Y-92032072D01*
X160440849Y-91919263D01*
X160290226Y-91840210D01*
X160125056Y-91799500D01*
X159954944Y-91799500D01*
X159789773Y-91840210D01*
X159639150Y-91919263D01*
X159511815Y-92032072D01*
X159507049Y-92038978D01*
X159452766Y-92082968D01*
X159383317Y-92090627D01*
X159320753Y-92059523D01*
X159302951Y-92038978D01*
X159298184Y-92032072D01*
X159170849Y-91919263D01*
X159020226Y-91840210D01*
X158855056Y-91799500D01*
X158684944Y-91799500D01*
X158519773Y-91840210D01*
X158369150Y-91919263D01*
X158241815Y-92032072D01*
X158237049Y-92038978D01*
X158182766Y-92082968D01*
X158113317Y-92090627D01*
X158050753Y-92059523D01*
X158032951Y-92038978D01*
X158028184Y-92032072D01*
X157900849Y-91919263D01*
X157750226Y-91840210D01*
X157585056Y-91799500D01*
X157414944Y-91799500D01*
X157249773Y-91840210D01*
X157099150Y-91919263D01*
X156971815Y-92032072D01*
X156967049Y-92038978D01*
X156912766Y-92082968D01*
X156843317Y-92090627D01*
X156780753Y-92059523D01*
X156762951Y-92038978D01*
X156758184Y-92032072D01*
X156630849Y-91919263D01*
X156480226Y-91840210D01*
X156315056Y-91799500D01*
X156144944Y-91799500D01*
X155979773Y-91840210D01*
X155829150Y-91919263D01*
X155701815Y-92032072D01*
X155697049Y-92038978D01*
X155642766Y-92082968D01*
X155573317Y-92090627D01*
X155510753Y-92059523D01*
X155492951Y-92038978D01*
X155488184Y-92032072D01*
X155360849Y-91919263D01*
X155210226Y-91840210D01*
X155045056Y-91799500D01*
X154874944Y-91799500D01*
X154709773Y-91840210D01*
X154559149Y-91919264D01*
X154559147Y-91919266D01*
X154551223Y-91926286D01*
X154487989Y-91956005D01*
X154418726Y-91946820D01*
X154365897Y-91902358D01*
X154334553Y-91855448D01*
X154268230Y-91811132D01*
X154268229Y-91811131D01*
X154209752Y-91799500D01*
X154209748Y-91799500D01*
X153170252Y-91799500D01*
X153170247Y-91799500D01*
X153111770Y-91811131D01*
X153111769Y-91811132D01*
X153045447Y-91855447D01*
X153001132Y-91921769D01*
X153001131Y-91921770D01*
X152989500Y-91980247D01*
X152989500Y-93019752D01*
X151509687Y-93019752D01*
X151568183Y-92967929D01*
X151664818Y-92827930D01*
X151725140Y-92668872D01*
X151745645Y-92500000D01*
X151725140Y-92331128D01*
X151664818Y-92172070D01*
X151568183Y-92032071D01*
X151448776Y-91926286D01*
X151440849Y-91919263D01*
X151290226Y-91840210D01*
X151125056Y-91799500D01*
X150954944Y-91799500D01*
X150789773Y-91840210D01*
X150639150Y-91919263D01*
X150511815Y-92032072D01*
X150507049Y-92038978D01*
X150452766Y-92082968D01*
X150383317Y-92090627D01*
X150320753Y-92059523D01*
X150302951Y-92038978D01*
X150298184Y-92032072D01*
X150170849Y-91919263D01*
X150020226Y-91840210D01*
X149855056Y-91799500D01*
X149684944Y-91799500D01*
X149519773Y-91840210D01*
X149369150Y-91919263D01*
X149241815Y-92032072D01*
X149237049Y-92038978D01*
X149182766Y-92082968D01*
X149113317Y-92090627D01*
X149050753Y-92059523D01*
X149032951Y-92038978D01*
X149028184Y-92032072D01*
X148900849Y-91919263D01*
X148750226Y-91840210D01*
X148585056Y-91799500D01*
X148414944Y-91799500D01*
X148249773Y-91840210D01*
X148099150Y-91919263D01*
X147971815Y-92032072D01*
X147967049Y-92038978D01*
X147912766Y-92082968D01*
X147843317Y-92090627D01*
X147780753Y-92059523D01*
X147762951Y-92038978D01*
X147758184Y-92032072D01*
X147630849Y-91919263D01*
X147480226Y-91840210D01*
X147315056Y-91799500D01*
X147144944Y-91799500D01*
X146979773Y-91840210D01*
X146829150Y-91919263D01*
X146701815Y-92032072D01*
X146697049Y-92038978D01*
X146642766Y-92082968D01*
X146573317Y-92090627D01*
X146510753Y-92059523D01*
X146492951Y-92038978D01*
X146488184Y-92032072D01*
X146360849Y-91919263D01*
X146210226Y-91840210D01*
X146045056Y-91799500D01*
X145874944Y-91799500D01*
X145709773Y-91840210D01*
X145559150Y-91919263D01*
X145431815Y-92032072D01*
X145427049Y-92038978D01*
X145372766Y-92082968D01*
X145303317Y-92090627D01*
X145240753Y-92059523D01*
X145222951Y-92038978D01*
X145218184Y-92032072D01*
X145090849Y-91919263D01*
X144940226Y-91840210D01*
X144775056Y-91799500D01*
X144604944Y-91799500D01*
X144439773Y-91840210D01*
X144289150Y-91919263D01*
X144161815Y-92032072D01*
X144157049Y-92038978D01*
X144102766Y-92082968D01*
X144033317Y-92090627D01*
X143970753Y-92059523D01*
X143952951Y-92038978D01*
X143948184Y-92032072D01*
X143820849Y-91919263D01*
X143670226Y-91840210D01*
X143505056Y-91799500D01*
X143334944Y-91799500D01*
X143169773Y-91840210D01*
X143019150Y-91919263D01*
X142891815Y-92032072D01*
X142887049Y-92038978D01*
X142832766Y-92082968D01*
X142763317Y-92090627D01*
X142700753Y-92059523D01*
X142682951Y-92038978D01*
X142678184Y-92032072D01*
X142550849Y-91919263D01*
X142400226Y-91840210D01*
X142235056Y-91799500D01*
X142064944Y-91799500D01*
X141899773Y-91840210D01*
X141749149Y-91919264D01*
X141749147Y-91919266D01*
X141741223Y-91926286D01*
X141677989Y-91956005D01*
X141608726Y-91946820D01*
X141555897Y-91902358D01*
X141524553Y-91855448D01*
X141458230Y-91811132D01*
X141458229Y-91811131D01*
X141399752Y-91799500D01*
X141399748Y-91799500D01*
X140360252Y-91799500D01*
X140360247Y-91799500D01*
X140301770Y-91811131D01*
X140301769Y-91811132D01*
X140235447Y-91855447D01*
X140191132Y-91921769D01*
X140191131Y-91921770D01*
X140179500Y-91980247D01*
X140179500Y-93019752D01*
X138279687Y-93019752D01*
X138338183Y-92967929D01*
X138434818Y-92827930D01*
X138495140Y-92668872D01*
X138515645Y-92500000D01*
X138495140Y-92331128D01*
X138434818Y-92172070D01*
X138338183Y-92032071D01*
X138218776Y-91926286D01*
X138210849Y-91919263D01*
X138060226Y-91840210D01*
X137895056Y-91799500D01*
X137724944Y-91799500D01*
X137559773Y-91840210D01*
X137409150Y-91919263D01*
X137281815Y-92032072D01*
X137277049Y-92038978D01*
X137222766Y-92082968D01*
X137153317Y-92090627D01*
X137090753Y-92059523D01*
X137072951Y-92038978D01*
X137068184Y-92032072D01*
X136940849Y-91919263D01*
X136790226Y-91840210D01*
X136625056Y-91799500D01*
X136454944Y-91799500D01*
X136289773Y-91840210D01*
X136139150Y-91919263D01*
X136011815Y-92032072D01*
X136007049Y-92038978D01*
X135952766Y-92082968D01*
X135883317Y-92090627D01*
X135820753Y-92059523D01*
X135802951Y-92038978D01*
X135798184Y-92032072D01*
X135670849Y-91919263D01*
X135520226Y-91840210D01*
X135355056Y-91799500D01*
X135184944Y-91799500D01*
X135019773Y-91840210D01*
X134869150Y-91919263D01*
X134741815Y-92032072D01*
X134737049Y-92038978D01*
X134682766Y-92082968D01*
X134613317Y-92090627D01*
X134550753Y-92059523D01*
X134532951Y-92038978D01*
X134528184Y-92032072D01*
X134400849Y-91919263D01*
X134250226Y-91840210D01*
X134085056Y-91799500D01*
X133914944Y-91799500D01*
X133749773Y-91840210D01*
X133599150Y-91919263D01*
X133471815Y-92032072D01*
X133467049Y-92038978D01*
X133412766Y-92082968D01*
X133343317Y-92090627D01*
X133280753Y-92059523D01*
X133262951Y-92038978D01*
X133258184Y-92032072D01*
X133130849Y-91919263D01*
X132980226Y-91840210D01*
X132815056Y-91799500D01*
X132644944Y-91799500D01*
X132479773Y-91840210D01*
X132329150Y-91919263D01*
X132201815Y-92032072D01*
X132197049Y-92038978D01*
X132142766Y-92082968D01*
X132073317Y-92090627D01*
X132010753Y-92059523D01*
X131992951Y-92038978D01*
X131988184Y-92032072D01*
X131860849Y-91919263D01*
X131710226Y-91840210D01*
X131545056Y-91799500D01*
X131374944Y-91799500D01*
X131209773Y-91840210D01*
X131059150Y-91919263D01*
X130931815Y-92032072D01*
X130927049Y-92038978D01*
X130872766Y-92082968D01*
X130803317Y-92090627D01*
X130740753Y-92059523D01*
X130722951Y-92038978D01*
X130718184Y-92032072D01*
X130590849Y-91919263D01*
X130440226Y-91840210D01*
X130275056Y-91799500D01*
X130104944Y-91799500D01*
X129939773Y-91840210D01*
X129789150Y-91919263D01*
X129661815Y-92032072D01*
X129657049Y-92038978D01*
X129602766Y-92082968D01*
X129533317Y-92090627D01*
X129470753Y-92059523D01*
X129452951Y-92038978D01*
X129448184Y-92032072D01*
X129320849Y-91919263D01*
X129170226Y-91840210D01*
X129005056Y-91799500D01*
X128834944Y-91799500D01*
X128669773Y-91840210D01*
X128519149Y-91919264D01*
X128519147Y-91919266D01*
X128511223Y-91926286D01*
X128447989Y-91956005D01*
X128378726Y-91946820D01*
X128325897Y-91902358D01*
X128294553Y-91855448D01*
X128228230Y-91811132D01*
X128228229Y-91811131D01*
X128169752Y-91799500D01*
X128169748Y-91799500D01*
X127130252Y-91799500D01*
X127130247Y-91799500D01*
X127071770Y-91811131D01*
X127071769Y-91811132D01*
X127005447Y-91855447D01*
X126961132Y-91921769D01*
X126961131Y-91921770D01*
X126949500Y-91980247D01*
X126949500Y-93019752D01*
X126500000Y-93019752D01*
X126500000Y-90525601D01*
X162360718Y-90525601D01*
X162381355Y-90682360D01*
X162381356Y-90682362D01*
X162441864Y-90828441D01*
X162538118Y-90953882D01*
X162663559Y-91050136D01*
X162809638Y-91110644D01*
X162888019Y-91120963D01*
X162966399Y-91131282D01*
X162966400Y-91131282D01*
X162966401Y-91131282D01*
X163018654Y-91124402D01*
X163123162Y-91110644D01*
X163269241Y-91050136D01*
X163394682Y-90953882D01*
X163490936Y-90828441D01*
X163551444Y-90682362D01*
X163572082Y-90525600D01*
X163551444Y-90368838D01*
X163490936Y-90222759D01*
X163394682Y-90097318D01*
X163269241Y-90001064D01*
X163123162Y-89940556D01*
X163123160Y-89940555D01*
X162966401Y-89919918D01*
X162966399Y-89919918D01*
X162809639Y-89940555D01*
X162809637Y-89940556D01*
X162663560Y-90001063D01*
X162538118Y-90097318D01*
X162441863Y-90222760D01*
X162381356Y-90368837D01*
X162381355Y-90368839D01*
X162360718Y-90525598D01*
X162360718Y-90525601D01*
X126500000Y-90525601D01*
X126500000Y-85890000D01*
X126814417Y-85890000D01*
X126834699Y-86095932D01*
X126834700Y-86095934D01*
X126894768Y-86293954D01*
X126992315Y-86476450D01*
X126992317Y-86476452D01*
X127123589Y-86636410D01*
X127220209Y-86715702D01*
X127283550Y-86767685D01*
X127466046Y-86865232D01*
X127664066Y-86925300D01*
X127664065Y-86925300D01*
X127682529Y-86927118D01*
X127870000Y-86945583D01*
X128075934Y-86925300D01*
X128273954Y-86865232D01*
X128456450Y-86767685D01*
X128616410Y-86636410D01*
X128747685Y-86476450D01*
X128845232Y-86293954D01*
X128905300Y-86095934D01*
X128925583Y-85890000D01*
X129354417Y-85890000D01*
X129374699Y-86095932D01*
X129374700Y-86095934D01*
X129434768Y-86293954D01*
X129532315Y-86476450D01*
X129532317Y-86476452D01*
X129663589Y-86636410D01*
X129760209Y-86715702D01*
X129823550Y-86767685D01*
X130006046Y-86865232D01*
X130204066Y-86925300D01*
X130204065Y-86925300D01*
X130222529Y-86927118D01*
X130410000Y-86945583D01*
X130615934Y-86925300D01*
X130813954Y-86865232D01*
X130996450Y-86767685D01*
X131156410Y-86636410D01*
X131287685Y-86476450D01*
X131366643Y-86328730D01*
X131415605Y-86278888D01*
X131483742Y-86263428D01*
X131549422Y-86287260D01*
X131591791Y-86342818D01*
X131600000Y-86387186D01*
X131600000Y-86787844D01*
X131606401Y-86847372D01*
X131606403Y-86847379D01*
X131656645Y-86982086D01*
X131656649Y-86982093D01*
X131742809Y-87097187D01*
X131742812Y-87097190D01*
X131857906Y-87183350D01*
X131857913Y-87183354D01*
X131992620Y-87233596D01*
X131992627Y-87233598D01*
X132052155Y-87239999D01*
X132052172Y-87240000D01*
X132700000Y-87240000D01*
X132700000Y-86334560D01*
X132753147Y-86365245D01*
X132882857Y-86400000D01*
X133017143Y-86400000D01*
X133146853Y-86365245D01*
X133200000Y-86334560D01*
X133200000Y-87240000D01*
X133847828Y-87240000D01*
X133847844Y-87239999D01*
X133907372Y-87233598D01*
X133907379Y-87233596D01*
X134042086Y-87183354D01*
X134042093Y-87183350D01*
X134157187Y-87097190D01*
X134157190Y-87097187D01*
X134243350Y-86982093D01*
X134243354Y-86982086D01*
X134293596Y-86847379D01*
X134293598Y-86847372D01*
X134299999Y-86787844D01*
X134300000Y-86787827D01*
X134300000Y-86387186D01*
X134319685Y-86320147D01*
X134372489Y-86274392D01*
X134441647Y-86264448D01*
X134505203Y-86293473D01*
X134533356Y-86328729D01*
X134612315Y-86476450D01*
X134612317Y-86476452D01*
X134743589Y-86636410D01*
X134840209Y-86715702D01*
X134903550Y-86767685D01*
X135086046Y-86865232D01*
X135284066Y-86925300D01*
X135284065Y-86925300D01*
X135302529Y-86927118D01*
X135490000Y-86945583D01*
X135695934Y-86925300D01*
X135893954Y-86865232D01*
X136076450Y-86767685D01*
X136236410Y-86636410D01*
X136367685Y-86476450D01*
X136465232Y-86293954D01*
X136525300Y-86095934D01*
X136545583Y-85890000D01*
X136974417Y-85890000D01*
X136994699Y-86095932D01*
X136994700Y-86095934D01*
X137054768Y-86293954D01*
X137152315Y-86476450D01*
X137152317Y-86476452D01*
X137283589Y-86636410D01*
X137380209Y-86715702D01*
X137443550Y-86767685D01*
X137626046Y-86865232D01*
X137824066Y-86925300D01*
X137824065Y-86925300D01*
X137842529Y-86927118D01*
X138030000Y-86945583D01*
X138235934Y-86925300D01*
X138433954Y-86865232D01*
X138616450Y-86767685D01*
X138776410Y-86636410D01*
X138907685Y-86476450D01*
X139005232Y-86293954D01*
X139065300Y-86095934D01*
X139085583Y-85890000D01*
X139514417Y-85890000D01*
X139534699Y-86095932D01*
X139534700Y-86095934D01*
X139594768Y-86293954D01*
X139692315Y-86476450D01*
X139692317Y-86476452D01*
X139823589Y-86636410D01*
X139920209Y-86715702D01*
X139983550Y-86767685D01*
X140166046Y-86865232D01*
X140364066Y-86925300D01*
X140364065Y-86925300D01*
X140382529Y-86927118D01*
X140570000Y-86945583D01*
X140775934Y-86925300D01*
X140973954Y-86865232D01*
X141156450Y-86767685D01*
X141316410Y-86636410D01*
X141447685Y-86476450D01*
X141545232Y-86293954D01*
X141605300Y-86095934D01*
X141625583Y-85890000D01*
X142054417Y-85890000D01*
X142074699Y-86095932D01*
X142074700Y-86095934D01*
X142134768Y-86293954D01*
X142232315Y-86476450D01*
X142232317Y-86476452D01*
X142363589Y-86636410D01*
X142460209Y-86715702D01*
X142523550Y-86767685D01*
X142706046Y-86865232D01*
X142904066Y-86925300D01*
X142904065Y-86925300D01*
X142922529Y-86927118D01*
X143110000Y-86945583D01*
X143315934Y-86925300D01*
X143513954Y-86865232D01*
X143696450Y-86767685D01*
X143856410Y-86636410D01*
X143987685Y-86476450D01*
X144066643Y-86328730D01*
X144115605Y-86278888D01*
X144183742Y-86263428D01*
X144249422Y-86287260D01*
X144291791Y-86342818D01*
X144300000Y-86387186D01*
X144300000Y-86787844D01*
X144306401Y-86847372D01*
X144306403Y-86847379D01*
X144356645Y-86982086D01*
X144356649Y-86982093D01*
X144442809Y-87097187D01*
X144442812Y-87097190D01*
X144557906Y-87183350D01*
X144557913Y-87183354D01*
X144692620Y-87233596D01*
X144692627Y-87233598D01*
X144752155Y-87239999D01*
X144752172Y-87240000D01*
X145400000Y-87240000D01*
X145400000Y-86334560D01*
X145453147Y-86365245D01*
X145582857Y-86400000D01*
X145717143Y-86400000D01*
X145846853Y-86365245D01*
X145900000Y-86334560D01*
X145900000Y-87240000D01*
X146547828Y-87240000D01*
X146547844Y-87239999D01*
X146607372Y-87233598D01*
X146607379Y-87233596D01*
X146742086Y-87183354D01*
X146742093Y-87183350D01*
X146857187Y-87097190D01*
X146857190Y-87097187D01*
X146943350Y-86982093D01*
X146943354Y-86982086D01*
X146993596Y-86847379D01*
X146993598Y-86847372D01*
X146999999Y-86787844D01*
X147000000Y-86787827D01*
X147000000Y-86387186D01*
X147019685Y-86320147D01*
X147072489Y-86274392D01*
X147141647Y-86264448D01*
X147205203Y-86293473D01*
X147233356Y-86328729D01*
X147312315Y-86476450D01*
X147312317Y-86476452D01*
X147443589Y-86636410D01*
X147540209Y-86715702D01*
X147603550Y-86767685D01*
X147786046Y-86865232D01*
X147984066Y-86925300D01*
X147984065Y-86925300D01*
X148002529Y-86927118D01*
X148190000Y-86945583D01*
X148395934Y-86925300D01*
X148593954Y-86865232D01*
X148776450Y-86767685D01*
X148936410Y-86636410D01*
X149067685Y-86476450D01*
X149165232Y-86293954D01*
X149225300Y-86095934D01*
X149245583Y-85890000D01*
X149674417Y-85890000D01*
X149694699Y-86095932D01*
X149694700Y-86095934D01*
X149754768Y-86293954D01*
X149852315Y-86476450D01*
X149852317Y-86476452D01*
X149983589Y-86636410D01*
X150080209Y-86715702D01*
X150143550Y-86767685D01*
X150326046Y-86865232D01*
X150524066Y-86925300D01*
X150524065Y-86925300D01*
X150542529Y-86927118D01*
X150730000Y-86945583D01*
X150935934Y-86925300D01*
X151133954Y-86865232D01*
X151316450Y-86767685D01*
X151476410Y-86636410D01*
X151607685Y-86476450D01*
X151705232Y-86293954D01*
X151765300Y-86095934D01*
X151785583Y-85890000D01*
X152214417Y-85890000D01*
X152234699Y-86095932D01*
X152234700Y-86095934D01*
X152294768Y-86293954D01*
X152392315Y-86476450D01*
X152392317Y-86476452D01*
X152523589Y-86636410D01*
X152620209Y-86715702D01*
X152683550Y-86767685D01*
X152866046Y-86865232D01*
X153064066Y-86925300D01*
X153064065Y-86925300D01*
X153082529Y-86927118D01*
X153270000Y-86945583D01*
X153475934Y-86925300D01*
X153673954Y-86865232D01*
X153856450Y-86767685D01*
X154016410Y-86636410D01*
X154147685Y-86476450D01*
X154245232Y-86293954D01*
X154305300Y-86095934D01*
X154325583Y-85890000D01*
X154754417Y-85890000D01*
X154774699Y-86095932D01*
X154774700Y-86095934D01*
X154834768Y-86293954D01*
X154932315Y-86476450D01*
X154932317Y-86476452D01*
X155063589Y-86636410D01*
X155160209Y-86715702D01*
X155223550Y-86767685D01*
X155406046Y-86865232D01*
X155604066Y-86925300D01*
X155604065Y-86925300D01*
X155622529Y-86927118D01*
X155810000Y-86945583D01*
X156015934Y-86925300D01*
X156213954Y-86865232D01*
X156396450Y-86767685D01*
X156556410Y-86636410D01*
X156687685Y-86476450D01*
X156766643Y-86328730D01*
X156815605Y-86278888D01*
X156883742Y-86263428D01*
X156949422Y-86287260D01*
X156991791Y-86342818D01*
X157000000Y-86387186D01*
X157000000Y-86787844D01*
X157006401Y-86847372D01*
X157006403Y-86847379D01*
X157056645Y-86982086D01*
X157056649Y-86982093D01*
X157142809Y-87097187D01*
X157142812Y-87097190D01*
X157257906Y-87183350D01*
X157257913Y-87183354D01*
X157392620Y-87233596D01*
X157392627Y-87233598D01*
X157452155Y-87239999D01*
X157452172Y-87240000D01*
X158100000Y-87240000D01*
X158100000Y-86334560D01*
X158153147Y-86365245D01*
X158282857Y-86400000D01*
X158417143Y-86400000D01*
X158546853Y-86365245D01*
X158600000Y-86334560D01*
X158600000Y-87240000D01*
X159247828Y-87240000D01*
X159247844Y-87239999D01*
X159307372Y-87233598D01*
X159307379Y-87233596D01*
X159442086Y-87183354D01*
X159442093Y-87183350D01*
X159557187Y-87097190D01*
X159557190Y-87097187D01*
X159643350Y-86982093D01*
X159643354Y-86982086D01*
X159693596Y-86847379D01*
X159693598Y-86847372D01*
X159699999Y-86787844D01*
X159700000Y-86787827D01*
X159700000Y-86387186D01*
X159719685Y-86320147D01*
X159772489Y-86274392D01*
X159841647Y-86264448D01*
X159905203Y-86293473D01*
X159933356Y-86328729D01*
X160012315Y-86476450D01*
X160012317Y-86476452D01*
X160143589Y-86636410D01*
X160240209Y-86715702D01*
X160303550Y-86767685D01*
X160486046Y-86865232D01*
X160684066Y-86925300D01*
X160684065Y-86925300D01*
X160702529Y-86927118D01*
X160890000Y-86945583D01*
X161095934Y-86925300D01*
X161293954Y-86865232D01*
X161476450Y-86767685D01*
X161636410Y-86636410D01*
X161767685Y-86476450D01*
X161865232Y-86293954D01*
X161925300Y-86095934D01*
X161945583Y-85890000D01*
X162374417Y-85890000D01*
X162394699Y-86095932D01*
X162394700Y-86095934D01*
X162454768Y-86293954D01*
X162552315Y-86476450D01*
X162552317Y-86476452D01*
X162683589Y-86636410D01*
X162780209Y-86715702D01*
X162843550Y-86767685D01*
X163026046Y-86865232D01*
X163224066Y-86925300D01*
X163224065Y-86925300D01*
X163242529Y-86927118D01*
X163430000Y-86945583D01*
X163635934Y-86925300D01*
X163833954Y-86865232D01*
X164016450Y-86767685D01*
X164176410Y-86636410D01*
X164307685Y-86476450D01*
X164405232Y-86293954D01*
X164465300Y-86095934D01*
X164485583Y-85890000D01*
X164914417Y-85890000D01*
X164934699Y-86095932D01*
X164934700Y-86095934D01*
X164994768Y-86293954D01*
X165092315Y-86476450D01*
X165092317Y-86476452D01*
X165223589Y-86636410D01*
X165320209Y-86715702D01*
X165383550Y-86767685D01*
X165566046Y-86865232D01*
X165764066Y-86925300D01*
X165764065Y-86925300D01*
X165782529Y-86927118D01*
X165970000Y-86945583D01*
X166175934Y-86925300D01*
X166373954Y-86865232D01*
X166556450Y-86767685D01*
X166716410Y-86636410D01*
X166847685Y-86476450D01*
X166945232Y-86293954D01*
X167005300Y-86095934D01*
X167025583Y-85890000D01*
X167454417Y-85890000D01*
X167474699Y-86095932D01*
X167474700Y-86095934D01*
X167534768Y-86293954D01*
X167632315Y-86476450D01*
X167632317Y-86476452D01*
X167763589Y-86636410D01*
X167860209Y-86715702D01*
X167923550Y-86767685D01*
X168106046Y-86865232D01*
X168304066Y-86925300D01*
X168304065Y-86925300D01*
X168322529Y-86927118D01*
X168510000Y-86945583D01*
X168715934Y-86925300D01*
X168913954Y-86865232D01*
X169096450Y-86767685D01*
X169256410Y-86636410D01*
X169387685Y-86476450D01*
X169466643Y-86328730D01*
X169515605Y-86278888D01*
X169583742Y-86263428D01*
X169649422Y-86287260D01*
X169691791Y-86342818D01*
X169700000Y-86387186D01*
X169700000Y-86787844D01*
X169706401Y-86847372D01*
X169706403Y-86847379D01*
X169756645Y-86982086D01*
X169756649Y-86982093D01*
X169842809Y-87097187D01*
X169842812Y-87097190D01*
X169957906Y-87183350D01*
X169957913Y-87183354D01*
X170092620Y-87233596D01*
X170092627Y-87233598D01*
X170152155Y-87239999D01*
X170152172Y-87240000D01*
X170800000Y-87240000D01*
X170800000Y-86334560D01*
X170853147Y-86365245D01*
X170982857Y-86400000D01*
X171117143Y-86400000D01*
X171246853Y-86365245D01*
X171300000Y-86334560D01*
X171300000Y-87240000D01*
X171947828Y-87240000D01*
X171947844Y-87239999D01*
X172007372Y-87233598D01*
X172007379Y-87233596D01*
X172142086Y-87183354D01*
X172142093Y-87183350D01*
X172257187Y-87097190D01*
X172257190Y-87097187D01*
X172343350Y-86982093D01*
X172343354Y-86982086D01*
X172393596Y-86847379D01*
X172393598Y-86847372D01*
X172399999Y-86787844D01*
X172400000Y-86787827D01*
X172400000Y-86387186D01*
X172419685Y-86320147D01*
X172472489Y-86274392D01*
X172541647Y-86264448D01*
X172605203Y-86293473D01*
X172633356Y-86328729D01*
X172712315Y-86476450D01*
X172712317Y-86476452D01*
X172843589Y-86636410D01*
X172940209Y-86715702D01*
X173003550Y-86767685D01*
X173186046Y-86865232D01*
X173384066Y-86925300D01*
X173384065Y-86925300D01*
X173402529Y-86927118D01*
X173590000Y-86945583D01*
X173795934Y-86925300D01*
X173993954Y-86865232D01*
X174176450Y-86767685D01*
X174336410Y-86636410D01*
X174467685Y-86476450D01*
X174565232Y-86293954D01*
X174625300Y-86095934D01*
X174645583Y-85890000D01*
X175074417Y-85890000D01*
X175094699Y-86095932D01*
X175094700Y-86095934D01*
X175154768Y-86293954D01*
X175252315Y-86476450D01*
X175252317Y-86476452D01*
X175383589Y-86636410D01*
X175480209Y-86715702D01*
X175543550Y-86767685D01*
X175726046Y-86865232D01*
X175924066Y-86925300D01*
X175924065Y-86925300D01*
X175942529Y-86927118D01*
X176130000Y-86945583D01*
X176335934Y-86925300D01*
X176533954Y-86865232D01*
X176716450Y-86767685D01*
X176876410Y-86636410D01*
X177007685Y-86476450D01*
X177105232Y-86293954D01*
X177165300Y-86095934D01*
X177185583Y-85890000D01*
X177165300Y-85684066D01*
X177105232Y-85486046D01*
X177007685Y-85303550D01*
X176955702Y-85240209D01*
X176876410Y-85143589D01*
X176716452Y-85012317D01*
X176716453Y-85012317D01*
X176716450Y-85012315D01*
X176533954Y-84914768D01*
X176335934Y-84854700D01*
X176335932Y-84854699D01*
X176335934Y-84854699D01*
X176130000Y-84834417D01*
X175924067Y-84854699D01*
X175726043Y-84914769D01*
X175692634Y-84932627D01*
X175543550Y-85012315D01*
X175543548Y-85012316D01*
X175543547Y-85012317D01*
X175383589Y-85143589D01*
X175252317Y-85303547D01*
X175154769Y-85486043D01*
X175094699Y-85684067D01*
X175074417Y-85890000D01*
X174645583Y-85890000D01*
X174625300Y-85684066D01*
X174565232Y-85486046D01*
X174467685Y-85303550D01*
X174415702Y-85240209D01*
X174336410Y-85143589D01*
X174176452Y-85012317D01*
X174176453Y-85012317D01*
X174176450Y-85012315D01*
X173993954Y-84914768D01*
X173795934Y-84854700D01*
X173795932Y-84854699D01*
X173795934Y-84854699D01*
X173590000Y-84834417D01*
X173384067Y-84854699D01*
X173186043Y-84914769D01*
X173152634Y-84932627D01*
X173003550Y-85012315D01*
X173003548Y-85012316D01*
X173003547Y-85012317D01*
X172843589Y-85143589D01*
X172712317Y-85303547D01*
X172633358Y-85451267D01*
X172584395Y-85501111D01*
X172516257Y-85516571D01*
X172450578Y-85492739D01*
X172408209Y-85437181D01*
X172400000Y-85392813D01*
X172400000Y-84992172D01*
X172399999Y-84992155D01*
X172393598Y-84932627D01*
X172393596Y-84932620D01*
X172343354Y-84797913D01*
X172343350Y-84797906D01*
X172257190Y-84682812D01*
X172257187Y-84682809D01*
X172142093Y-84596649D01*
X172142086Y-84596645D01*
X172007379Y-84546403D01*
X172007372Y-84546401D01*
X171947844Y-84540000D01*
X171300000Y-84540000D01*
X171300000Y-85445439D01*
X171246853Y-85414755D01*
X171117143Y-85380000D01*
X170982857Y-85380000D01*
X170853147Y-85414755D01*
X170800000Y-85445439D01*
X170800000Y-84540000D01*
X170152155Y-84540000D01*
X170092627Y-84546401D01*
X170092620Y-84546403D01*
X169957913Y-84596645D01*
X169957906Y-84596649D01*
X169842812Y-84682809D01*
X169842809Y-84682812D01*
X169756649Y-84797906D01*
X169756645Y-84797913D01*
X169706403Y-84932620D01*
X169706401Y-84932627D01*
X169700000Y-84992155D01*
X169700000Y-85392813D01*
X169680315Y-85459852D01*
X169627511Y-85505607D01*
X169558353Y-85515551D01*
X169494797Y-85486526D01*
X169466642Y-85451267D01*
X169459113Y-85437181D01*
X169387685Y-85303550D01*
X169335702Y-85240209D01*
X169256410Y-85143589D01*
X169096452Y-85012317D01*
X169096453Y-85012317D01*
X169096450Y-85012315D01*
X168913954Y-84914768D01*
X168715934Y-84854700D01*
X168715932Y-84854699D01*
X168715934Y-84854699D01*
X168510000Y-84834417D01*
X168304067Y-84854699D01*
X168106043Y-84914769D01*
X168072634Y-84932627D01*
X167923550Y-85012315D01*
X167923548Y-85012316D01*
X167923547Y-85012317D01*
X167763589Y-85143589D01*
X167632317Y-85303547D01*
X167534769Y-85486043D01*
X167474699Y-85684067D01*
X167454417Y-85890000D01*
X167025583Y-85890000D01*
X167005300Y-85684066D01*
X166945232Y-85486046D01*
X166847685Y-85303550D01*
X166795702Y-85240209D01*
X166716410Y-85143589D01*
X166556452Y-85012317D01*
X166556453Y-85012317D01*
X166556450Y-85012315D01*
X166373954Y-84914768D01*
X166175934Y-84854700D01*
X166175932Y-84854699D01*
X166175934Y-84854699D01*
X165970000Y-84834417D01*
X165764067Y-84854699D01*
X165566043Y-84914769D01*
X165532634Y-84932627D01*
X165383550Y-85012315D01*
X165383548Y-85012316D01*
X165383547Y-85012317D01*
X165223589Y-85143589D01*
X165092317Y-85303547D01*
X164994769Y-85486043D01*
X164934699Y-85684067D01*
X164914417Y-85890000D01*
X164485583Y-85890000D01*
X164465300Y-85684066D01*
X164405232Y-85486046D01*
X164307685Y-85303550D01*
X164255702Y-85240209D01*
X164176410Y-85143589D01*
X164016452Y-85012317D01*
X164016453Y-85012317D01*
X164016450Y-85012315D01*
X163833954Y-84914768D01*
X163635934Y-84854700D01*
X163635932Y-84854699D01*
X163635934Y-84854699D01*
X163430000Y-84834417D01*
X163224067Y-84854699D01*
X163026043Y-84914769D01*
X162992634Y-84932627D01*
X162843550Y-85012315D01*
X162843548Y-85012316D01*
X162843547Y-85012317D01*
X162683589Y-85143589D01*
X162552317Y-85303547D01*
X162454769Y-85486043D01*
X162394699Y-85684067D01*
X162374417Y-85890000D01*
X161945583Y-85890000D01*
X161925300Y-85684066D01*
X161865232Y-85486046D01*
X161767685Y-85303550D01*
X161715702Y-85240209D01*
X161636410Y-85143589D01*
X161476452Y-85012317D01*
X161476453Y-85012317D01*
X161476450Y-85012315D01*
X161293954Y-84914768D01*
X161095934Y-84854700D01*
X161095932Y-84854699D01*
X161095934Y-84854699D01*
X160890000Y-84834417D01*
X160684067Y-84854699D01*
X160486043Y-84914769D01*
X160452634Y-84932627D01*
X160303550Y-85012315D01*
X160303548Y-85012316D01*
X160303547Y-85012317D01*
X160143589Y-85143589D01*
X160012317Y-85303547D01*
X159933358Y-85451267D01*
X159884395Y-85501111D01*
X159816257Y-85516571D01*
X159750578Y-85492739D01*
X159708209Y-85437181D01*
X159700000Y-85392813D01*
X159700000Y-84992172D01*
X159699999Y-84992155D01*
X159693598Y-84932627D01*
X159693596Y-84932620D01*
X159679554Y-84894970D01*
X159674570Y-84825279D01*
X159708055Y-84763956D01*
X159769378Y-84730471D01*
X159779551Y-84728698D01*
X159786578Y-84727772D01*
X159922762Y-84709844D01*
X160068841Y-84649336D01*
X160194282Y-84553082D01*
X160290536Y-84427641D01*
X160351044Y-84281562D01*
X160371682Y-84124800D01*
X160351044Y-83968038D01*
X160290536Y-83821959D01*
X160194282Y-83696518D01*
X160068841Y-83600264D01*
X159922762Y-83539756D01*
X159922760Y-83539755D01*
X159766001Y-83519118D01*
X159765999Y-83519118D01*
X159609239Y-83539755D01*
X159609237Y-83539756D01*
X159463160Y-83600263D01*
X159337718Y-83696518D01*
X159241463Y-83821960D01*
X159180956Y-83968037D01*
X159180955Y-83968039D01*
X159160318Y-84124798D01*
X159160318Y-84124801D01*
X159180955Y-84281560D01*
X159180956Y-84281562D01*
X159216987Y-84368548D01*
X159224456Y-84438016D01*
X159193181Y-84500496D01*
X159133092Y-84536148D01*
X159102426Y-84540000D01*
X158600000Y-84540000D01*
X158600000Y-85445439D01*
X158546853Y-85414755D01*
X158417143Y-85380000D01*
X158282857Y-85380000D01*
X158153147Y-85414755D01*
X158100000Y-85445439D01*
X158100000Y-84540000D01*
X157452155Y-84540000D01*
X157392627Y-84546401D01*
X157392620Y-84546403D01*
X157257913Y-84596645D01*
X157257906Y-84596649D01*
X157142812Y-84682809D01*
X157142809Y-84682812D01*
X157056649Y-84797906D01*
X157056645Y-84797913D01*
X157006403Y-84932620D01*
X157006401Y-84932627D01*
X157000000Y-84992155D01*
X157000000Y-85392813D01*
X156980315Y-85459852D01*
X156927511Y-85505607D01*
X156858353Y-85515551D01*
X156794797Y-85486526D01*
X156766642Y-85451267D01*
X156759113Y-85437181D01*
X156687685Y-85303550D01*
X156635702Y-85240209D01*
X156556410Y-85143589D01*
X156396452Y-85012317D01*
X156396453Y-85012317D01*
X156396450Y-85012315D01*
X156213954Y-84914768D01*
X156015934Y-84854700D01*
X156015932Y-84854699D01*
X156015934Y-84854699D01*
X155810000Y-84834417D01*
X155604067Y-84854699D01*
X155406043Y-84914769D01*
X155372634Y-84932627D01*
X155223550Y-85012315D01*
X155223548Y-85012316D01*
X155223547Y-85012317D01*
X155063589Y-85143589D01*
X154932317Y-85303547D01*
X154834769Y-85486043D01*
X154774699Y-85684067D01*
X154754417Y-85890000D01*
X154325583Y-85890000D01*
X154305300Y-85684066D01*
X154245232Y-85486046D01*
X154147685Y-85303550D01*
X154095702Y-85240209D01*
X154016410Y-85143589D01*
X153856452Y-85012317D01*
X153856453Y-85012317D01*
X153856450Y-85012315D01*
X153673954Y-84914768D01*
X153475934Y-84854700D01*
X153475932Y-84854699D01*
X153475934Y-84854699D01*
X153270000Y-84834417D01*
X153064067Y-84854699D01*
X152866043Y-84914769D01*
X152832634Y-84932627D01*
X152683550Y-85012315D01*
X152683548Y-85012316D01*
X152683547Y-85012317D01*
X152523589Y-85143589D01*
X152392317Y-85303547D01*
X152294769Y-85486043D01*
X152234699Y-85684067D01*
X152214417Y-85890000D01*
X151785583Y-85890000D01*
X151765300Y-85684066D01*
X151705232Y-85486046D01*
X151607685Y-85303550D01*
X151555702Y-85240209D01*
X151476410Y-85143589D01*
X151316452Y-85012317D01*
X151316453Y-85012317D01*
X151316450Y-85012315D01*
X151133954Y-84914768D01*
X150935934Y-84854700D01*
X150935932Y-84854699D01*
X150935934Y-84854699D01*
X150730000Y-84834417D01*
X150524067Y-84854699D01*
X150326043Y-84914769D01*
X150292634Y-84932627D01*
X150143550Y-85012315D01*
X150143548Y-85012316D01*
X150143547Y-85012317D01*
X149983589Y-85143589D01*
X149852317Y-85303547D01*
X149754769Y-85486043D01*
X149694699Y-85684067D01*
X149674417Y-85890000D01*
X149245583Y-85890000D01*
X149225300Y-85684066D01*
X149165232Y-85486046D01*
X149067685Y-85303550D01*
X149015702Y-85240209D01*
X148936410Y-85143589D01*
X148776452Y-85012317D01*
X148776453Y-85012317D01*
X148776450Y-85012315D01*
X148593954Y-84914768D01*
X148395934Y-84854700D01*
X148395932Y-84854699D01*
X148395934Y-84854699D01*
X148190000Y-84834417D01*
X147984067Y-84854699D01*
X147786043Y-84914769D01*
X147752634Y-84932627D01*
X147603550Y-85012315D01*
X147603548Y-85012316D01*
X147603547Y-85012317D01*
X147443589Y-85143589D01*
X147312317Y-85303547D01*
X147233358Y-85451267D01*
X147184395Y-85501111D01*
X147116257Y-85516571D01*
X147050578Y-85492739D01*
X147008209Y-85437181D01*
X147000000Y-85392813D01*
X147000000Y-84992172D01*
X146999999Y-84992155D01*
X146993598Y-84932627D01*
X146993596Y-84932620D01*
X146943354Y-84797913D01*
X146943350Y-84797906D01*
X146857190Y-84682812D01*
X146857187Y-84682809D01*
X146742093Y-84596649D01*
X146742086Y-84596645D01*
X146607379Y-84546403D01*
X146607372Y-84546401D01*
X146547844Y-84540000D01*
X145900000Y-84540000D01*
X145900000Y-85445439D01*
X145846853Y-85414755D01*
X145717143Y-85380000D01*
X145582857Y-85380000D01*
X145453147Y-85414755D01*
X145400000Y-85445439D01*
X145400000Y-84540000D01*
X144752155Y-84540000D01*
X144692627Y-84546401D01*
X144692620Y-84546403D01*
X144557913Y-84596645D01*
X144557906Y-84596649D01*
X144442812Y-84682809D01*
X144442809Y-84682812D01*
X144356649Y-84797906D01*
X144356645Y-84797913D01*
X144306403Y-84932620D01*
X144306401Y-84932627D01*
X144300000Y-84992155D01*
X144300000Y-85392813D01*
X144280315Y-85459852D01*
X144227511Y-85505607D01*
X144158353Y-85515551D01*
X144094797Y-85486526D01*
X144066642Y-85451267D01*
X144059113Y-85437181D01*
X143987685Y-85303550D01*
X143935702Y-85240209D01*
X143856410Y-85143589D01*
X143696452Y-85012317D01*
X143696453Y-85012317D01*
X143696450Y-85012315D01*
X143513954Y-84914768D01*
X143315934Y-84854700D01*
X143315932Y-84854699D01*
X143315934Y-84854699D01*
X143110000Y-84834417D01*
X142904067Y-84854699D01*
X142706043Y-84914769D01*
X142672634Y-84932627D01*
X142523550Y-85012315D01*
X142523548Y-85012316D01*
X142523547Y-85012317D01*
X142363589Y-85143589D01*
X142232317Y-85303547D01*
X142134769Y-85486043D01*
X142074699Y-85684067D01*
X142054417Y-85890000D01*
X141625583Y-85890000D01*
X141605300Y-85684066D01*
X141545232Y-85486046D01*
X141447685Y-85303550D01*
X141395702Y-85240209D01*
X141316410Y-85143589D01*
X141156452Y-85012317D01*
X141156453Y-85012317D01*
X141156450Y-85012315D01*
X140973954Y-84914768D01*
X140775934Y-84854700D01*
X140775932Y-84854699D01*
X140775934Y-84854699D01*
X140570000Y-84834417D01*
X140364067Y-84854699D01*
X140166043Y-84914769D01*
X140132634Y-84932627D01*
X139983550Y-85012315D01*
X139983548Y-85012316D01*
X139983547Y-85012317D01*
X139823589Y-85143589D01*
X139692317Y-85303547D01*
X139594769Y-85486043D01*
X139534699Y-85684067D01*
X139514417Y-85890000D01*
X139085583Y-85890000D01*
X139065300Y-85684066D01*
X139005232Y-85486046D01*
X138907685Y-85303550D01*
X138855702Y-85240209D01*
X138776410Y-85143589D01*
X138616452Y-85012317D01*
X138616453Y-85012317D01*
X138616450Y-85012315D01*
X138433954Y-84914768D01*
X138235934Y-84854700D01*
X138235932Y-84854699D01*
X138235934Y-84854699D01*
X138030000Y-84834417D01*
X137824067Y-84854699D01*
X137626043Y-84914769D01*
X137592634Y-84932627D01*
X137443550Y-85012315D01*
X137443548Y-85012316D01*
X137443547Y-85012317D01*
X137283589Y-85143589D01*
X137152317Y-85303547D01*
X137054769Y-85486043D01*
X136994699Y-85684067D01*
X136974417Y-85890000D01*
X136545583Y-85890000D01*
X136525300Y-85684066D01*
X136465232Y-85486046D01*
X136367685Y-85303550D01*
X136315702Y-85240209D01*
X136236410Y-85143589D01*
X136076452Y-85012317D01*
X136076453Y-85012317D01*
X136076450Y-85012315D01*
X135893954Y-84914768D01*
X135695934Y-84854700D01*
X135695932Y-84854699D01*
X135695934Y-84854699D01*
X135490000Y-84834417D01*
X135284067Y-84854699D01*
X135086043Y-84914769D01*
X135052634Y-84932627D01*
X134903550Y-85012315D01*
X134903548Y-85012316D01*
X134903547Y-85012317D01*
X134743589Y-85143589D01*
X134612317Y-85303547D01*
X134533358Y-85451267D01*
X134484395Y-85501111D01*
X134416257Y-85516571D01*
X134350578Y-85492739D01*
X134308209Y-85437181D01*
X134300000Y-85392813D01*
X134300000Y-84992172D01*
X134299999Y-84992155D01*
X134293598Y-84932627D01*
X134293596Y-84932620D01*
X134243354Y-84797913D01*
X134243350Y-84797906D01*
X134157190Y-84682812D01*
X134157187Y-84682809D01*
X134042093Y-84596649D01*
X134042086Y-84596645D01*
X133907379Y-84546403D01*
X133907372Y-84546401D01*
X133847844Y-84540000D01*
X133200000Y-84540000D01*
X133200000Y-85445439D01*
X133146853Y-85414755D01*
X133017143Y-85380000D01*
X132882857Y-85380000D01*
X132753147Y-85414755D01*
X132700000Y-85445439D01*
X132700000Y-84540000D01*
X132052155Y-84540000D01*
X131992627Y-84546401D01*
X131992620Y-84546403D01*
X131857913Y-84596645D01*
X131857906Y-84596649D01*
X131742812Y-84682809D01*
X131742809Y-84682812D01*
X131656649Y-84797906D01*
X131656645Y-84797913D01*
X131606403Y-84932620D01*
X131606401Y-84932627D01*
X131600000Y-84992155D01*
X131600000Y-85392813D01*
X131580315Y-85459852D01*
X131527511Y-85505607D01*
X131458353Y-85515551D01*
X131394797Y-85486526D01*
X131366642Y-85451267D01*
X131359113Y-85437181D01*
X131287685Y-85303550D01*
X131235702Y-85240209D01*
X131156410Y-85143589D01*
X130996452Y-85012317D01*
X130996453Y-85012317D01*
X130996450Y-85012315D01*
X130813954Y-84914768D01*
X130615934Y-84854700D01*
X130615932Y-84854699D01*
X130615934Y-84854699D01*
X130410000Y-84834417D01*
X130204067Y-84854699D01*
X130006043Y-84914769D01*
X129972634Y-84932627D01*
X129823550Y-85012315D01*
X129823548Y-85012316D01*
X129823547Y-85012317D01*
X129663589Y-85143589D01*
X129532317Y-85303547D01*
X129434769Y-85486043D01*
X129374699Y-85684067D01*
X129354417Y-85890000D01*
X128925583Y-85890000D01*
X128905300Y-85684066D01*
X128845232Y-85486046D01*
X128747685Y-85303550D01*
X128695702Y-85240209D01*
X128616410Y-85143589D01*
X128456452Y-85012317D01*
X128456453Y-85012317D01*
X128456450Y-85012315D01*
X128273954Y-84914768D01*
X128075934Y-84854700D01*
X128075932Y-84854699D01*
X128075934Y-84854699D01*
X127870000Y-84834417D01*
X127664067Y-84854699D01*
X127466043Y-84914769D01*
X127432634Y-84932627D01*
X127283550Y-85012315D01*
X127283548Y-85012316D01*
X127283547Y-85012317D01*
X127123589Y-85143589D01*
X126992317Y-85303547D01*
X126894769Y-85486043D01*
X126834699Y-85684067D01*
X126814417Y-85890000D01*
X126500000Y-85890000D01*
X126500000Y-83124000D01*
X126519685Y-83056961D01*
X126572489Y-83011206D01*
X126624000Y-83000000D01*
X142500000Y-83000000D01*
X142500000Y-77897844D01*
X174550000Y-77897844D01*
X174556401Y-77957372D01*
X174556403Y-77957379D01*
X174606645Y-78092086D01*
X174606649Y-78092093D01*
X174692809Y-78207187D01*
X174692812Y-78207190D01*
X174807906Y-78293350D01*
X174807913Y-78293354D01*
X174942620Y-78343596D01*
X174942627Y-78343598D01*
X175002155Y-78349999D01*
X175002172Y-78350000D01*
X175402813Y-78350000D01*
X175469852Y-78369685D01*
X175515607Y-78422489D01*
X175525551Y-78491647D01*
X175496526Y-78555203D01*
X175461267Y-78583357D01*
X175313550Y-78662315D01*
X175313548Y-78662316D01*
X175313547Y-78662317D01*
X175153589Y-78793589D01*
X175022317Y-78953547D01*
X174924769Y-79136043D01*
X174864699Y-79334067D01*
X174844417Y-79540000D01*
X174864699Y-79745932D01*
X174864700Y-79745934D01*
X174924768Y-79943954D01*
X175022315Y-80126450D01*
X175022317Y-80126452D01*
X175153589Y-80286410D01*
X175250209Y-80365702D01*
X175313550Y-80417685D01*
X175496046Y-80515232D01*
X175694066Y-80575300D01*
X175694065Y-80575300D01*
X175712529Y-80577118D01*
X175900000Y-80595583D01*
X176105934Y-80575300D01*
X176303954Y-80515232D01*
X176486450Y-80417685D01*
X176646410Y-80286410D01*
X176777685Y-80126450D01*
X176875232Y-79943954D01*
X176935300Y-79745934D01*
X176955583Y-79540000D01*
X176935300Y-79334066D01*
X176875232Y-79136046D01*
X176777685Y-78953550D01*
X176690609Y-78847447D01*
X176646410Y-78793589D01*
X176486452Y-78662317D01*
X176486453Y-78662317D01*
X176486450Y-78662315D01*
X176338732Y-78583357D01*
X176288889Y-78534395D01*
X176273429Y-78466257D01*
X176297261Y-78400578D01*
X176352819Y-78358209D01*
X176397187Y-78350000D01*
X176797828Y-78350000D01*
X176797844Y-78349999D01*
X176857372Y-78343598D01*
X176857379Y-78343596D01*
X176992086Y-78293354D01*
X176992093Y-78293350D01*
X177107187Y-78207190D01*
X177107190Y-78207187D01*
X177193350Y-78092093D01*
X177193354Y-78092086D01*
X177243596Y-77957379D01*
X177243598Y-77957372D01*
X177249999Y-77897844D01*
X177250000Y-77897827D01*
X177250000Y-77250000D01*
X176344560Y-77250000D01*
X176375245Y-77196853D01*
X176410000Y-77067143D01*
X176410000Y-76932857D01*
X176375245Y-76803147D01*
X176344560Y-76750000D01*
X177250000Y-76750000D01*
X177250000Y-76102172D01*
X177249999Y-76102155D01*
X177243598Y-76042627D01*
X177243596Y-76042620D01*
X177193354Y-75907913D01*
X177193350Y-75907906D01*
X177107190Y-75792812D01*
X177107187Y-75792809D01*
X176992093Y-75706649D01*
X176992086Y-75706645D01*
X176857379Y-75656403D01*
X176857372Y-75656401D01*
X176797844Y-75650000D01*
X176397187Y-75650000D01*
X176330148Y-75630315D01*
X176284393Y-75577511D01*
X176274449Y-75508353D01*
X176303474Y-75444797D01*
X176338733Y-75416642D01*
X176375160Y-75397171D01*
X176486450Y-75337685D01*
X176646410Y-75206410D01*
X176777685Y-75046450D01*
X176875232Y-74863954D01*
X176935300Y-74665934D01*
X176955583Y-74460000D01*
X176935300Y-74254066D01*
X176875232Y-74056046D01*
X176777685Y-73873550D01*
X176715569Y-73797861D01*
X176646410Y-73713589D01*
X176486452Y-73582317D01*
X176486453Y-73582317D01*
X176486450Y-73582315D01*
X176303954Y-73484768D01*
X176105934Y-73424700D01*
X176105932Y-73424699D01*
X176105934Y-73424699D01*
X175900000Y-73404417D01*
X175694067Y-73424699D01*
X175496043Y-73484769D01*
X175419844Y-73525499D01*
X175313550Y-73582315D01*
X175313548Y-73582316D01*
X175313547Y-73582317D01*
X175153589Y-73713589D01*
X175022317Y-73873547D01*
X174924769Y-74056043D01*
X174864699Y-74254067D01*
X174844417Y-74460000D01*
X174864699Y-74665932D01*
X174880081Y-74716639D01*
X174924768Y-74863954D01*
X175022315Y-75046450D01*
X175022317Y-75046452D01*
X175153589Y-75206410D01*
X175250209Y-75285702D01*
X175313550Y-75337685D01*
X175424840Y-75397171D01*
X175461267Y-75416642D01*
X175511111Y-75465605D01*
X175526571Y-75533743D01*
X175502739Y-75599422D01*
X175447181Y-75641791D01*
X175402813Y-75650000D01*
X175002155Y-75650000D01*
X174942627Y-75656401D01*
X174942620Y-75656403D01*
X174807913Y-75706645D01*
X174807906Y-75706649D01*
X174692812Y-75792809D01*
X174692809Y-75792812D01*
X174606649Y-75907906D01*
X174606645Y-75907913D01*
X174556403Y-76042620D01*
X174556401Y-76042627D01*
X174550000Y-76102155D01*
X174550000Y-76750000D01*
X175455440Y-76750000D01*
X175424755Y-76803147D01*
X175390000Y-76932857D01*
X175390000Y-77067143D01*
X175424755Y-77196853D01*
X175455440Y-77250000D01*
X174550000Y-77250000D01*
X174550000Y-77897844D01*
X142500000Y-77897844D01*
X142500000Y-71000000D01*
X126624000Y-71000000D01*
X126556961Y-70980315D01*
X126511206Y-70927511D01*
X126500000Y-70876000D01*
X126500000Y-68110000D01*
X126814417Y-68110000D01*
X126834699Y-68315932D01*
X126834700Y-68315934D01*
X126894768Y-68513954D01*
X126992315Y-68696450D01*
X127015264Y-68724413D01*
X127123589Y-68856410D01*
X127176060Y-68899471D01*
X127283550Y-68987685D01*
X127466046Y-69085232D01*
X127664066Y-69145300D01*
X127664065Y-69145300D01*
X127682529Y-69147118D01*
X127870000Y-69165583D01*
X128075934Y-69145300D01*
X128273954Y-69085232D01*
X128456450Y-68987685D01*
X128616410Y-68856410D01*
X128747685Y-68696450D01*
X128845232Y-68513954D01*
X128905300Y-68315934D01*
X128925583Y-68110000D01*
X129354417Y-68110000D01*
X129374699Y-68315932D01*
X129374700Y-68315934D01*
X129434768Y-68513954D01*
X129532315Y-68696450D01*
X129555264Y-68724413D01*
X129663589Y-68856410D01*
X129716060Y-68899471D01*
X129823550Y-68987685D01*
X130006046Y-69085232D01*
X130204066Y-69145300D01*
X130204065Y-69145300D01*
X130222529Y-69147118D01*
X130410000Y-69165583D01*
X130615934Y-69145300D01*
X130813954Y-69085232D01*
X130996450Y-68987685D01*
X131006116Y-68979752D01*
X131899500Y-68979752D01*
X131911131Y-69038229D01*
X131911132Y-69038230D01*
X131955447Y-69104552D01*
X132021769Y-69148867D01*
X132021770Y-69148868D01*
X132080247Y-69160499D01*
X132080250Y-69160500D01*
X132080252Y-69160500D01*
X133819750Y-69160500D01*
X133819751Y-69160499D01*
X133834568Y-69157552D01*
X133878229Y-69148868D01*
X133878229Y-69148867D01*
X133878231Y-69148867D01*
X133944552Y-69104552D01*
X133988867Y-69038231D01*
X133988867Y-69038229D01*
X133988868Y-69038229D01*
X134000499Y-68979752D01*
X134000500Y-68979750D01*
X134000500Y-68110000D01*
X134434417Y-68110000D01*
X134454699Y-68315932D01*
X134454700Y-68315934D01*
X134514768Y-68513954D01*
X134612315Y-68696450D01*
X134635264Y-68724413D01*
X134743589Y-68856410D01*
X134796060Y-68899471D01*
X134903550Y-68987685D01*
X135086046Y-69085232D01*
X135284066Y-69145300D01*
X135284065Y-69145300D01*
X135302529Y-69147118D01*
X135490000Y-69165583D01*
X135695934Y-69145300D01*
X135701907Y-69144112D01*
X135702452Y-69146852D01*
X135760319Y-69146319D01*
X135819443Y-69183550D01*
X135849052Y-69246836D01*
X135839746Y-69316083D01*
X135824859Y-69341098D01*
X135822664Y-69343958D01*
X135762156Y-69490037D01*
X135762155Y-69490039D01*
X135741518Y-69646798D01*
X135741518Y-69646801D01*
X135762155Y-69803560D01*
X135762156Y-69803562D01*
X135802432Y-69900798D01*
X135822664Y-69949641D01*
X135918918Y-70075082D01*
X136044359Y-70171336D01*
X136190438Y-70231844D01*
X136268819Y-70242163D01*
X136347199Y-70252482D01*
X136347200Y-70252482D01*
X136347201Y-70252482D01*
X136399454Y-70245602D01*
X136503962Y-70231844D01*
X136650041Y-70171336D01*
X136775482Y-70075082D01*
X136871736Y-69949641D01*
X136932244Y-69803562D01*
X136952882Y-69646800D01*
X136932244Y-69490038D01*
X136871736Y-69343959D01*
X136775482Y-69218518D01*
X136650041Y-69122264D01*
X136633356Y-69115353D01*
X136503962Y-69061756D01*
X136503960Y-69061755D01*
X136347201Y-69041118D01*
X136347000Y-69041118D01*
X136346836Y-69041070D01*
X136339142Y-69040057D01*
X136339299Y-69038857D01*
X136279961Y-69021433D01*
X136234206Y-68968629D01*
X136224262Y-68899471D01*
X136251147Y-68838453D01*
X136344736Y-68724413D01*
X136367685Y-68696450D01*
X136465232Y-68513954D01*
X136525300Y-68315934D01*
X136545583Y-68110000D01*
X136974417Y-68110000D01*
X136994699Y-68315932D01*
X136994700Y-68315934D01*
X137054768Y-68513954D01*
X137152315Y-68696450D01*
X137175264Y-68724413D01*
X137283589Y-68856410D01*
X137336060Y-68899471D01*
X137443550Y-68987685D01*
X137626046Y-69085232D01*
X137725346Y-69115354D01*
X137783784Y-69153650D01*
X137812241Y-69217462D01*
X137801682Y-69286529D01*
X137755458Y-69338923D01*
X137736805Y-69348575D01*
X137669959Y-69376264D01*
X137544518Y-69472518D01*
X137448263Y-69597960D01*
X137387756Y-69744037D01*
X137387755Y-69744039D01*
X137367118Y-69900798D01*
X137367118Y-69900801D01*
X137387755Y-70057560D01*
X137387756Y-70057562D01*
X137448264Y-70203641D01*
X137544518Y-70329082D01*
X137669959Y-70425336D01*
X137816038Y-70485844D01*
X137894419Y-70496163D01*
X137972799Y-70506482D01*
X137972800Y-70506482D01*
X137972801Y-70506482D01*
X138025054Y-70499602D01*
X138129562Y-70485844D01*
X138275641Y-70425336D01*
X138401082Y-70329082D01*
X138497336Y-70203641D01*
X138557844Y-70057562D01*
X138578482Y-69900800D01*
X138557844Y-69744038D01*
X138497336Y-69597959D01*
X138417873Y-69494401D01*
X138789518Y-69494401D01*
X138810155Y-69651160D01*
X138810156Y-69651162D01*
X138848626Y-69744038D01*
X138870664Y-69797241D01*
X138966918Y-69922682D01*
X139092359Y-70018936D01*
X139238438Y-70079444D01*
X139316819Y-70089763D01*
X139395199Y-70100082D01*
X139395200Y-70100082D01*
X139395201Y-70100082D01*
X139447454Y-70093202D01*
X139551962Y-70079444D01*
X139698041Y-70018936D01*
X139823482Y-69922682D01*
X139919736Y-69797241D01*
X139980244Y-69651162D01*
X140000882Y-69494400D01*
X139995510Y-69453598D01*
X139981076Y-69343958D01*
X139980244Y-69337638D01*
X139925749Y-69206077D01*
X139918281Y-69136611D01*
X139949556Y-69074131D01*
X140009645Y-69038479D01*
X140079470Y-69040972D01*
X140098762Y-69049268D01*
X140166046Y-69085232D01*
X140364066Y-69145300D01*
X140364065Y-69145300D01*
X140382529Y-69147118D01*
X140570000Y-69165583D01*
X140775934Y-69145300D01*
X140973954Y-69085232D01*
X141156450Y-68987685D01*
X141316410Y-68856410D01*
X141447685Y-68696450D01*
X141545232Y-68513954D01*
X141605300Y-68315934D01*
X141625583Y-68110000D01*
X142054417Y-68110000D01*
X142074699Y-68315932D01*
X142074700Y-68315934D01*
X142134768Y-68513954D01*
X142232315Y-68696450D01*
X142255264Y-68724413D01*
X142363589Y-68856410D01*
X142416060Y-68899471D01*
X142523550Y-68987685D01*
X142706046Y-69085232D01*
X142904066Y-69145300D01*
X142904065Y-69145300D01*
X142922529Y-69147118D01*
X143110000Y-69165583D01*
X143315934Y-69145300D01*
X143513954Y-69085232D01*
X143696450Y-68987685D01*
X143856410Y-68856410D01*
X143987685Y-68696450D01*
X144066643Y-68548730D01*
X144115605Y-68498888D01*
X144183742Y-68483428D01*
X144249422Y-68507260D01*
X144291791Y-68562818D01*
X144300000Y-68607186D01*
X144300000Y-69007844D01*
X144306401Y-69067372D01*
X144306403Y-69067379D01*
X144356645Y-69202086D01*
X144356649Y-69202093D01*
X144442809Y-69317187D01*
X144442812Y-69317190D01*
X144557906Y-69403350D01*
X144557913Y-69403354D01*
X144692620Y-69453596D01*
X144692627Y-69453598D01*
X144752155Y-69459999D01*
X144752172Y-69460000D01*
X145400000Y-69460000D01*
X145400000Y-68554560D01*
X145453147Y-68585245D01*
X145582857Y-68620000D01*
X145717143Y-68620000D01*
X145846853Y-68585245D01*
X145900000Y-68554560D01*
X145900000Y-69460000D01*
X146547828Y-69460000D01*
X146547844Y-69459999D01*
X146607372Y-69453598D01*
X146607379Y-69453596D01*
X146742086Y-69403354D01*
X146742093Y-69403350D01*
X146857187Y-69317190D01*
X146857190Y-69317187D01*
X146943350Y-69202093D01*
X146943354Y-69202086D01*
X146993596Y-69067379D01*
X146993598Y-69067372D01*
X146999999Y-69007844D01*
X147000000Y-69007827D01*
X147000000Y-68607186D01*
X147019685Y-68540147D01*
X147072489Y-68494392D01*
X147141647Y-68484448D01*
X147205203Y-68513473D01*
X147233356Y-68548729D01*
X147312315Y-68696450D01*
X147335264Y-68724413D01*
X147443589Y-68856410D01*
X147496060Y-68899471D01*
X147603550Y-68987685D01*
X147786046Y-69085232D01*
X147984066Y-69145300D01*
X147984065Y-69145300D01*
X148002529Y-69147118D01*
X148190000Y-69165583D01*
X148395934Y-69145300D01*
X148593954Y-69085232D01*
X148776450Y-68987685D01*
X148936410Y-68856410D01*
X149067685Y-68696450D01*
X149165232Y-68513954D01*
X149225300Y-68315934D01*
X149245583Y-68110000D01*
X149674417Y-68110000D01*
X149694699Y-68315932D01*
X149694700Y-68315934D01*
X149754768Y-68513954D01*
X149852315Y-68696450D01*
X149875264Y-68724413D01*
X149983589Y-68856410D01*
X150036060Y-68899471D01*
X150143550Y-68987685D01*
X150326046Y-69085232D01*
X150524066Y-69145300D01*
X150524065Y-69145300D01*
X150542529Y-69147118D01*
X150730000Y-69165583D01*
X150935934Y-69145300D01*
X151133954Y-69085232D01*
X151316450Y-68987685D01*
X151476410Y-68856410D01*
X151607685Y-68696450D01*
X151705232Y-68513954D01*
X151765300Y-68315934D01*
X151785583Y-68110000D01*
X152214417Y-68110000D01*
X152234699Y-68315932D01*
X152234700Y-68315934D01*
X152294768Y-68513954D01*
X152392315Y-68696450D01*
X152415264Y-68724413D01*
X152523589Y-68856410D01*
X152576060Y-68899471D01*
X152683550Y-68987685D01*
X152866046Y-69085232D01*
X153064066Y-69145300D01*
X153064065Y-69145300D01*
X153082529Y-69147118D01*
X153270000Y-69165583D01*
X153475934Y-69145300D01*
X153673954Y-69085232D01*
X153856450Y-68987685D01*
X154016410Y-68856410D01*
X154147685Y-68696450D01*
X154245232Y-68513954D01*
X154305300Y-68315934D01*
X154325583Y-68110000D01*
X154754417Y-68110000D01*
X154774699Y-68315932D01*
X154774700Y-68315934D01*
X154834768Y-68513954D01*
X154932315Y-68696450D01*
X154955264Y-68724413D01*
X155063589Y-68856410D01*
X155116060Y-68899471D01*
X155223550Y-68987685D01*
X155406046Y-69085232D01*
X155604066Y-69145300D01*
X155604065Y-69145300D01*
X155622529Y-69147118D01*
X155810000Y-69165583D01*
X156015934Y-69145300D01*
X156213954Y-69085232D01*
X156396450Y-68987685D01*
X156556410Y-68856410D01*
X156687685Y-68696450D01*
X156766643Y-68548730D01*
X156815605Y-68498888D01*
X156883742Y-68483428D01*
X156949422Y-68507260D01*
X156991791Y-68562818D01*
X157000000Y-68607186D01*
X157000000Y-69007844D01*
X157006401Y-69067372D01*
X157006403Y-69067379D01*
X157056645Y-69202086D01*
X157056649Y-69202093D01*
X157142809Y-69317187D01*
X157142812Y-69317190D01*
X157257906Y-69403350D01*
X157257913Y-69403354D01*
X157392620Y-69453596D01*
X157392627Y-69453598D01*
X157452155Y-69459999D01*
X157452172Y-69460000D01*
X158100000Y-69460000D01*
X158100000Y-68554560D01*
X158153147Y-68585245D01*
X158282857Y-68620000D01*
X158417143Y-68620000D01*
X158546853Y-68585245D01*
X158600000Y-68554560D01*
X158600000Y-69460000D01*
X159247828Y-69460000D01*
X159247844Y-69459999D01*
X159307372Y-69453598D01*
X159307379Y-69453596D01*
X159442086Y-69403354D01*
X159442093Y-69403350D01*
X159557187Y-69317190D01*
X159557190Y-69317187D01*
X159643350Y-69202093D01*
X159643354Y-69202086D01*
X159693596Y-69067379D01*
X159693598Y-69067372D01*
X159699999Y-69007844D01*
X159700000Y-69007827D01*
X159700000Y-68607186D01*
X159719685Y-68540147D01*
X159772489Y-68494392D01*
X159841647Y-68484448D01*
X159905203Y-68513473D01*
X159933356Y-68548729D01*
X160012315Y-68696450D01*
X160035264Y-68724413D01*
X160143589Y-68856410D01*
X160196060Y-68899471D01*
X160303550Y-68987685D01*
X160486046Y-69085232D01*
X160684066Y-69145300D01*
X160684065Y-69145300D01*
X160702529Y-69147118D01*
X160890000Y-69165583D01*
X161095934Y-69145300D01*
X161293954Y-69085232D01*
X161476450Y-68987685D01*
X161636410Y-68856410D01*
X161767685Y-68696450D01*
X161865232Y-68513954D01*
X161925300Y-68315934D01*
X161945583Y-68110000D01*
X162374417Y-68110000D01*
X162394699Y-68315932D01*
X162394700Y-68315934D01*
X162454768Y-68513954D01*
X162552315Y-68696450D01*
X162575264Y-68724413D01*
X162683589Y-68856410D01*
X162736060Y-68899471D01*
X162843550Y-68987685D01*
X163026046Y-69085232D01*
X163224066Y-69145300D01*
X163224065Y-69145300D01*
X163242529Y-69147118D01*
X163430000Y-69165583D01*
X163635934Y-69145300D01*
X163833954Y-69085232D01*
X164016450Y-68987685D01*
X164176410Y-68856410D01*
X164307685Y-68696450D01*
X164405232Y-68513954D01*
X164465300Y-68315934D01*
X164485583Y-68110000D01*
X164914417Y-68110000D01*
X164934699Y-68315932D01*
X164934700Y-68315934D01*
X164994768Y-68513954D01*
X165092315Y-68696450D01*
X165115264Y-68724413D01*
X165223589Y-68856410D01*
X165276060Y-68899471D01*
X165383550Y-68987685D01*
X165566046Y-69085232D01*
X165764066Y-69145300D01*
X165764065Y-69145300D01*
X165782529Y-69147118D01*
X165970000Y-69165583D01*
X166175934Y-69145300D01*
X166373954Y-69085232D01*
X166556450Y-68987685D01*
X166716410Y-68856410D01*
X166847685Y-68696450D01*
X166945232Y-68513954D01*
X167005300Y-68315934D01*
X167025583Y-68110000D01*
X167454417Y-68110000D01*
X167474699Y-68315932D01*
X167474700Y-68315934D01*
X167534768Y-68513954D01*
X167632315Y-68696450D01*
X167655264Y-68724413D01*
X167763589Y-68856410D01*
X167816060Y-68899471D01*
X167923550Y-68987685D01*
X168106046Y-69085232D01*
X168304066Y-69145300D01*
X168304065Y-69145300D01*
X168322529Y-69147118D01*
X168510000Y-69165583D01*
X168715934Y-69145300D01*
X168913954Y-69085232D01*
X169096450Y-68987685D01*
X169256410Y-68856410D01*
X169387685Y-68696450D01*
X169466643Y-68548730D01*
X169515605Y-68498888D01*
X169583742Y-68483428D01*
X169649422Y-68507260D01*
X169691791Y-68562818D01*
X169700000Y-68607186D01*
X169700000Y-69007844D01*
X169706401Y-69067372D01*
X169706403Y-69067379D01*
X169756645Y-69202086D01*
X169756649Y-69202093D01*
X169842809Y-69317187D01*
X169842812Y-69317190D01*
X169957906Y-69403350D01*
X169957913Y-69403354D01*
X170092620Y-69453596D01*
X170092627Y-69453598D01*
X170152155Y-69459999D01*
X170152172Y-69460000D01*
X170800000Y-69460000D01*
X170800000Y-68554560D01*
X170853147Y-68585245D01*
X170982857Y-68620000D01*
X171117143Y-68620000D01*
X171246853Y-68585245D01*
X171300000Y-68554560D01*
X171300000Y-69460000D01*
X171947828Y-69460000D01*
X171947844Y-69459999D01*
X172007372Y-69453598D01*
X172007379Y-69453596D01*
X172142086Y-69403354D01*
X172142093Y-69403350D01*
X172257187Y-69317190D01*
X172257190Y-69317187D01*
X172343350Y-69202093D01*
X172343354Y-69202086D01*
X172393596Y-69067379D01*
X172393598Y-69067372D01*
X172399999Y-69007844D01*
X172400000Y-69007827D01*
X172400000Y-68607186D01*
X172419685Y-68540147D01*
X172472489Y-68494392D01*
X172541647Y-68484448D01*
X172605203Y-68513473D01*
X172633356Y-68548729D01*
X172712315Y-68696450D01*
X172735264Y-68724413D01*
X172843589Y-68856410D01*
X172896060Y-68899471D01*
X173003550Y-68987685D01*
X173186046Y-69085232D01*
X173384066Y-69145300D01*
X173384065Y-69145300D01*
X173402529Y-69147118D01*
X173590000Y-69165583D01*
X173795934Y-69145300D01*
X173993954Y-69085232D01*
X174176450Y-68987685D01*
X174336410Y-68856410D01*
X174467685Y-68696450D01*
X174565232Y-68513954D01*
X174625300Y-68315934D01*
X174645583Y-68110000D01*
X175074417Y-68110000D01*
X175094699Y-68315932D01*
X175094700Y-68315934D01*
X175154768Y-68513954D01*
X175252315Y-68696450D01*
X175275264Y-68724413D01*
X175383589Y-68856410D01*
X175436060Y-68899471D01*
X175543550Y-68987685D01*
X175726046Y-69085232D01*
X175924066Y-69145300D01*
X175924065Y-69145300D01*
X175942529Y-69147118D01*
X176130000Y-69165583D01*
X176335934Y-69145300D01*
X176533954Y-69085232D01*
X176716450Y-68987685D01*
X176876410Y-68856410D01*
X177007685Y-68696450D01*
X177105232Y-68513954D01*
X177165300Y-68315934D01*
X177185583Y-68110000D01*
X177165300Y-67904066D01*
X177105232Y-67706046D01*
X177007685Y-67523550D01*
X176955702Y-67460209D01*
X176876410Y-67363589D01*
X176726121Y-67240252D01*
X176716450Y-67232315D01*
X176533954Y-67134768D01*
X176335934Y-67074700D01*
X176335932Y-67074699D01*
X176335934Y-67074699D01*
X176130000Y-67054417D01*
X175924067Y-67074699D01*
X175726043Y-67134769D01*
X175692634Y-67152627D01*
X175543550Y-67232315D01*
X175543548Y-67232316D01*
X175543547Y-67232317D01*
X175383589Y-67363589D01*
X175252317Y-67523547D01*
X175154769Y-67706043D01*
X175094699Y-67904067D01*
X175074417Y-68110000D01*
X174645583Y-68110000D01*
X174625300Y-67904066D01*
X174565232Y-67706046D01*
X174467685Y-67523550D01*
X174415702Y-67460209D01*
X174336410Y-67363589D01*
X174186121Y-67240252D01*
X174176450Y-67232315D01*
X173993954Y-67134768D01*
X173795934Y-67074700D01*
X173795932Y-67074699D01*
X173795934Y-67074699D01*
X173590000Y-67054417D01*
X173384067Y-67074699D01*
X173186043Y-67134769D01*
X173152634Y-67152627D01*
X173003550Y-67232315D01*
X173003548Y-67232316D01*
X173003547Y-67232317D01*
X172843589Y-67363589D01*
X172712317Y-67523547D01*
X172633358Y-67671267D01*
X172584395Y-67721111D01*
X172516257Y-67736571D01*
X172450578Y-67712739D01*
X172408209Y-67657181D01*
X172400000Y-67612813D01*
X172400000Y-67212172D01*
X172399999Y-67212155D01*
X172393598Y-67152627D01*
X172393596Y-67152620D01*
X172343354Y-67017913D01*
X172343350Y-67017906D01*
X172257190Y-66902812D01*
X172257187Y-66902809D01*
X172142093Y-66816649D01*
X172142086Y-66816645D01*
X172007379Y-66766403D01*
X172007372Y-66766401D01*
X171947844Y-66760000D01*
X171300000Y-66760000D01*
X171300000Y-67665439D01*
X171246853Y-67634755D01*
X171117143Y-67600000D01*
X170982857Y-67600000D01*
X170853147Y-67634755D01*
X170800000Y-67665439D01*
X170800000Y-66760000D01*
X170152155Y-66760000D01*
X170092627Y-66766401D01*
X170092620Y-66766403D01*
X169957913Y-66816645D01*
X169957906Y-66816649D01*
X169842812Y-66902809D01*
X169842809Y-66902812D01*
X169756649Y-67017906D01*
X169756645Y-67017913D01*
X169706403Y-67152620D01*
X169706401Y-67152627D01*
X169700000Y-67212155D01*
X169700000Y-67612813D01*
X169680315Y-67679852D01*
X169627511Y-67725607D01*
X169558353Y-67735551D01*
X169494797Y-67706526D01*
X169466642Y-67671267D01*
X169459113Y-67657181D01*
X169387685Y-67523550D01*
X169335702Y-67460209D01*
X169256410Y-67363589D01*
X169106121Y-67240252D01*
X169096450Y-67232315D01*
X168913954Y-67134768D01*
X168715934Y-67074700D01*
X168715932Y-67074699D01*
X168715934Y-67074699D01*
X168510000Y-67054417D01*
X168304067Y-67074699D01*
X168106043Y-67134769D01*
X168072634Y-67152627D01*
X167923550Y-67232315D01*
X167923548Y-67232316D01*
X167923547Y-67232317D01*
X167763589Y-67363589D01*
X167632317Y-67523547D01*
X167534769Y-67706043D01*
X167474699Y-67904067D01*
X167454417Y-68110000D01*
X167025583Y-68110000D01*
X167005300Y-67904066D01*
X166945232Y-67706046D01*
X166847685Y-67523550D01*
X166795702Y-67460209D01*
X166716410Y-67363589D01*
X166566121Y-67240252D01*
X166556450Y-67232315D01*
X166373954Y-67134768D01*
X166175934Y-67074700D01*
X166175932Y-67074699D01*
X166175934Y-67074699D01*
X165970000Y-67054417D01*
X165764067Y-67074699D01*
X165566043Y-67134769D01*
X165532634Y-67152627D01*
X165383550Y-67232315D01*
X165383548Y-67232316D01*
X165383547Y-67232317D01*
X165223589Y-67363589D01*
X165092317Y-67523547D01*
X164994769Y-67706043D01*
X164934699Y-67904067D01*
X164914417Y-68110000D01*
X164485583Y-68110000D01*
X164465300Y-67904066D01*
X164405232Y-67706046D01*
X164307685Y-67523550D01*
X164255702Y-67460209D01*
X164176410Y-67363589D01*
X164026121Y-67240252D01*
X164016450Y-67232315D01*
X163833954Y-67134768D01*
X163635934Y-67074700D01*
X163635932Y-67074699D01*
X163635934Y-67074699D01*
X163430000Y-67054417D01*
X163224067Y-67074699D01*
X163026043Y-67134769D01*
X162992634Y-67152627D01*
X162843550Y-67232315D01*
X162843548Y-67232316D01*
X162843547Y-67232317D01*
X162683589Y-67363589D01*
X162552317Y-67523547D01*
X162454769Y-67706043D01*
X162394699Y-67904067D01*
X162374417Y-68110000D01*
X161945583Y-68110000D01*
X161925300Y-67904066D01*
X161865232Y-67706046D01*
X161767685Y-67523550D01*
X161715702Y-67460209D01*
X161636410Y-67363589D01*
X161486121Y-67240252D01*
X161476450Y-67232315D01*
X161293954Y-67134768D01*
X161095934Y-67074700D01*
X161095932Y-67074699D01*
X161095934Y-67074699D01*
X160890000Y-67054417D01*
X160684067Y-67074699D01*
X160486043Y-67134769D01*
X160452634Y-67152627D01*
X160303550Y-67232315D01*
X160303548Y-67232316D01*
X160303547Y-67232317D01*
X160143589Y-67363589D01*
X160012317Y-67523547D01*
X159933358Y-67671267D01*
X159884395Y-67721111D01*
X159816257Y-67736571D01*
X159750578Y-67712739D01*
X159708209Y-67657181D01*
X159700000Y-67612813D01*
X159700000Y-67212172D01*
X159699999Y-67212155D01*
X159693598Y-67152627D01*
X159693596Y-67152620D01*
X159643354Y-67017913D01*
X159643350Y-67017906D01*
X159557190Y-66902812D01*
X159557187Y-66902809D01*
X159442093Y-66816649D01*
X159442086Y-66816645D01*
X159307379Y-66766403D01*
X159307372Y-66766401D01*
X159247844Y-66760000D01*
X158600000Y-66760000D01*
X158600000Y-67665439D01*
X158546853Y-67634755D01*
X158417143Y-67600000D01*
X158282857Y-67600000D01*
X158153147Y-67634755D01*
X158100000Y-67665439D01*
X158100000Y-66760000D01*
X157452155Y-66760000D01*
X157392627Y-66766401D01*
X157392620Y-66766403D01*
X157257913Y-66816645D01*
X157257906Y-66816649D01*
X157142812Y-66902809D01*
X157142809Y-66902812D01*
X157056649Y-67017906D01*
X157056645Y-67017913D01*
X157006403Y-67152620D01*
X157006401Y-67152627D01*
X157000000Y-67212155D01*
X157000000Y-67612813D01*
X156980315Y-67679852D01*
X156927511Y-67725607D01*
X156858353Y-67735551D01*
X156794797Y-67706526D01*
X156766642Y-67671267D01*
X156759113Y-67657181D01*
X156687685Y-67523550D01*
X156635702Y-67460209D01*
X156556410Y-67363589D01*
X156406121Y-67240252D01*
X156396450Y-67232315D01*
X156213954Y-67134768D01*
X156015934Y-67074700D01*
X156015932Y-67074699D01*
X156015934Y-67074699D01*
X155810000Y-67054417D01*
X155604067Y-67074699D01*
X155406043Y-67134769D01*
X155372634Y-67152627D01*
X155223550Y-67232315D01*
X155223548Y-67232316D01*
X155223547Y-67232317D01*
X155063589Y-67363589D01*
X154932317Y-67523547D01*
X154834769Y-67706043D01*
X154774699Y-67904067D01*
X154754417Y-68110000D01*
X154325583Y-68110000D01*
X154305300Y-67904066D01*
X154245232Y-67706046D01*
X154147685Y-67523550D01*
X154095702Y-67460209D01*
X154016410Y-67363589D01*
X153866121Y-67240252D01*
X153856450Y-67232315D01*
X153673954Y-67134768D01*
X153475934Y-67074700D01*
X153475932Y-67074699D01*
X153475934Y-67074699D01*
X153270000Y-67054417D01*
X153064067Y-67074699D01*
X152866043Y-67134769D01*
X152832634Y-67152627D01*
X152683550Y-67232315D01*
X152683548Y-67232316D01*
X152683547Y-67232317D01*
X152523589Y-67363589D01*
X152392317Y-67523547D01*
X152294769Y-67706043D01*
X152234699Y-67904067D01*
X152214417Y-68110000D01*
X151785583Y-68110000D01*
X151765300Y-67904066D01*
X151705232Y-67706046D01*
X151607685Y-67523550D01*
X151555702Y-67460209D01*
X151476410Y-67363589D01*
X151326121Y-67240252D01*
X151316450Y-67232315D01*
X151133954Y-67134768D01*
X150935934Y-67074700D01*
X150935932Y-67074699D01*
X150935934Y-67074699D01*
X150730000Y-67054417D01*
X150524067Y-67074699D01*
X150326043Y-67134769D01*
X150292634Y-67152627D01*
X150143550Y-67232315D01*
X150143548Y-67232316D01*
X150143547Y-67232317D01*
X149983589Y-67363589D01*
X149852317Y-67523547D01*
X149754769Y-67706043D01*
X149694699Y-67904067D01*
X149674417Y-68110000D01*
X149245583Y-68110000D01*
X149225300Y-67904066D01*
X149165232Y-67706046D01*
X149067685Y-67523550D01*
X149015702Y-67460209D01*
X148936410Y-67363589D01*
X148786121Y-67240252D01*
X148776450Y-67232315D01*
X148593954Y-67134768D01*
X148395934Y-67074700D01*
X148395932Y-67074699D01*
X148395934Y-67074699D01*
X148190000Y-67054417D01*
X147984067Y-67074699D01*
X147786043Y-67134769D01*
X147752634Y-67152627D01*
X147603550Y-67232315D01*
X147603548Y-67232316D01*
X147603547Y-67232317D01*
X147443589Y-67363589D01*
X147312317Y-67523547D01*
X147233358Y-67671267D01*
X147184395Y-67721111D01*
X147116257Y-67736571D01*
X147050578Y-67712739D01*
X147008209Y-67657181D01*
X147000000Y-67612813D01*
X147000000Y-67212172D01*
X146999999Y-67212155D01*
X146993598Y-67152627D01*
X146993596Y-67152620D01*
X146943354Y-67017913D01*
X146943350Y-67017906D01*
X146857190Y-66902812D01*
X146857187Y-66902809D01*
X146742093Y-66816649D01*
X146742086Y-66816645D01*
X146607379Y-66766403D01*
X146607372Y-66766401D01*
X146547844Y-66760000D01*
X145900000Y-66760000D01*
X145900000Y-67665439D01*
X145846853Y-67634755D01*
X145717143Y-67600000D01*
X145582857Y-67600000D01*
X145453147Y-67634755D01*
X145400000Y-67665439D01*
X145400000Y-66760000D01*
X144752155Y-66760000D01*
X144692627Y-66766401D01*
X144692620Y-66766403D01*
X144557913Y-66816645D01*
X144557906Y-66816649D01*
X144442812Y-66902809D01*
X144442809Y-66902812D01*
X144356649Y-67017906D01*
X144356645Y-67017913D01*
X144306403Y-67152620D01*
X144306401Y-67152627D01*
X144300000Y-67212155D01*
X144300000Y-67612813D01*
X144280315Y-67679852D01*
X144227511Y-67725607D01*
X144158353Y-67735551D01*
X144094797Y-67706526D01*
X144066642Y-67671267D01*
X144059113Y-67657181D01*
X143987685Y-67523550D01*
X143935702Y-67460209D01*
X143856410Y-67363589D01*
X143706121Y-67240252D01*
X143696450Y-67232315D01*
X143513954Y-67134768D01*
X143315934Y-67074700D01*
X143315932Y-67074699D01*
X143315934Y-67074699D01*
X143110000Y-67054417D01*
X142904067Y-67074699D01*
X142706043Y-67134769D01*
X142672634Y-67152627D01*
X142523550Y-67232315D01*
X142523548Y-67232316D01*
X142523547Y-67232317D01*
X142363589Y-67363589D01*
X142232317Y-67523547D01*
X142134769Y-67706043D01*
X142074699Y-67904067D01*
X142054417Y-68110000D01*
X141625583Y-68110000D01*
X141605300Y-67904066D01*
X141545232Y-67706046D01*
X141447685Y-67523550D01*
X141395702Y-67460209D01*
X141316410Y-67363589D01*
X141166121Y-67240252D01*
X141156450Y-67232315D01*
X140973954Y-67134768D01*
X140775934Y-67074700D01*
X140775932Y-67074699D01*
X140775934Y-67074699D01*
X140570000Y-67054417D01*
X140364067Y-67074699D01*
X140166043Y-67134769D01*
X140132634Y-67152627D01*
X139983550Y-67232315D01*
X139983548Y-67232316D01*
X139983547Y-67232317D01*
X139823589Y-67363589D01*
X139692317Y-67523547D01*
X139594769Y-67706043D01*
X139534699Y-67904067D01*
X139514417Y-68110000D01*
X139534699Y-68315932D01*
X139534700Y-68315934D01*
X139592737Y-68507260D01*
X139594769Y-68513956D01*
X139692317Y-68696453D01*
X139715263Y-68724413D01*
X139742575Y-68788723D01*
X139730783Y-68857591D01*
X139683631Y-68909150D01*
X139616088Y-68927033D01*
X139571957Y-68917638D01*
X139551965Y-68909357D01*
X139551960Y-68909355D01*
X139395201Y-68888718D01*
X139395199Y-68888718D01*
X139238439Y-68909355D01*
X139238437Y-68909356D01*
X139092360Y-68969863D01*
X138966918Y-69066118D01*
X138870663Y-69191560D01*
X138810156Y-69337637D01*
X138810155Y-69337639D01*
X138789518Y-69494398D01*
X138789518Y-69494401D01*
X138417873Y-69494401D01*
X138401082Y-69472518D01*
X138275641Y-69376264D01*
X138275640Y-69376263D01*
X138275638Y-69376262D01*
X138257158Y-69368608D01*
X138202754Y-69324768D01*
X138180689Y-69258474D01*
X138197968Y-69190774D01*
X138249105Y-69143164D01*
X138268610Y-69135387D01*
X138433954Y-69085232D01*
X138616450Y-68987685D01*
X138776410Y-68856410D01*
X138907685Y-68696450D01*
X139005232Y-68513954D01*
X139065300Y-68315934D01*
X139085583Y-68110000D01*
X139065300Y-67904066D01*
X139005232Y-67706046D01*
X138907685Y-67523550D01*
X138855702Y-67460209D01*
X138776410Y-67363589D01*
X138626121Y-67240252D01*
X138616450Y-67232315D01*
X138433954Y-67134768D01*
X138235934Y-67074700D01*
X138235932Y-67074699D01*
X138235934Y-67074699D01*
X138030000Y-67054417D01*
X137824067Y-67074699D01*
X137626043Y-67134769D01*
X137592634Y-67152627D01*
X137443550Y-67232315D01*
X137443548Y-67232316D01*
X137443547Y-67232317D01*
X137283589Y-67363589D01*
X137152317Y-67523547D01*
X137054769Y-67706043D01*
X136994699Y-67904067D01*
X136974417Y-68110000D01*
X136545583Y-68110000D01*
X136525300Y-67904066D01*
X136465232Y-67706046D01*
X136367685Y-67523550D01*
X136315702Y-67460209D01*
X136236410Y-67363589D01*
X136086121Y-67240252D01*
X136076450Y-67232315D01*
X135893954Y-67134768D01*
X135695934Y-67074700D01*
X135695932Y-67074699D01*
X135695934Y-67074699D01*
X135490000Y-67054417D01*
X135284067Y-67074699D01*
X135086043Y-67134769D01*
X135052634Y-67152627D01*
X134903550Y-67232315D01*
X134903548Y-67232316D01*
X134903547Y-67232317D01*
X134743589Y-67363589D01*
X134612317Y-67523547D01*
X134514769Y-67706043D01*
X134454699Y-67904067D01*
X134434417Y-68110000D01*
X134000500Y-68110000D01*
X134000500Y-67240249D01*
X134000499Y-67240247D01*
X133988868Y-67181770D01*
X133988867Y-67181769D01*
X133944552Y-67115447D01*
X133878230Y-67071132D01*
X133878229Y-67071131D01*
X133819752Y-67059500D01*
X133819748Y-67059500D01*
X132080252Y-67059500D01*
X132080247Y-67059500D01*
X132021770Y-67071131D01*
X132021769Y-67071132D01*
X131955447Y-67115447D01*
X131911132Y-67181769D01*
X131911131Y-67181770D01*
X131899500Y-67240247D01*
X131899500Y-68979752D01*
X131006116Y-68979752D01*
X131156410Y-68856410D01*
X131287685Y-68696450D01*
X131385232Y-68513954D01*
X131445300Y-68315934D01*
X131465583Y-68110000D01*
X131445300Y-67904066D01*
X131385232Y-67706046D01*
X131287685Y-67523550D01*
X131235702Y-67460209D01*
X131156410Y-67363589D01*
X131006121Y-67240252D01*
X130996450Y-67232315D01*
X130813954Y-67134768D01*
X130615934Y-67074700D01*
X130615932Y-67074699D01*
X130615934Y-67074699D01*
X130410000Y-67054417D01*
X130204067Y-67074699D01*
X130006043Y-67134769D01*
X129972634Y-67152627D01*
X129823550Y-67232315D01*
X129823548Y-67232316D01*
X129823547Y-67232317D01*
X129663589Y-67363589D01*
X129532317Y-67523547D01*
X129434769Y-67706043D01*
X129374699Y-67904067D01*
X129354417Y-68110000D01*
X128925583Y-68110000D01*
X128905300Y-67904066D01*
X128845232Y-67706046D01*
X128747685Y-67523550D01*
X128695702Y-67460209D01*
X128616410Y-67363589D01*
X128466121Y-67240252D01*
X128456450Y-67232315D01*
X128273954Y-67134768D01*
X128075934Y-67074700D01*
X128075932Y-67074699D01*
X128075934Y-67074699D01*
X127870000Y-67054417D01*
X127664067Y-67074699D01*
X127466043Y-67134769D01*
X127432634Y-67152627D01*
X127283550Y-67232315D01*
X127283548Y-67232316D01*
X127283547Y-67232317D01*
X127123589Y-67363589D01*
X126992317Y-67523547D01*
X126894769Y-67706043D01*
X126834699Y-67904067D01*
X126814417Y-68110000D01*
X126500000Y-68110000D01*
X126500000Y-62124000D01*
X126519685Y-62056961D01*
X126572489Y-62011206D01*
X126624000Y-62000000D01*
X177376000Y-62000000D01*
X177443039Y-62019685D01*
G37*
%TD.AperFunction*%
%TD*%
M02*
