%TF.GenerationSoftware,KiCad,Pcbnew,8.0.0*%
%TF.CreationDate,2024-03-20T20:27:36-04:00*%
%TF.ProjectId,level-shifted,6c657665-6c2d-4736-9869-667465642e6b,rev?*%
%TF.SameCoordinates,Original*%
%TF.FileFunction,Soldermask,Top*%
%TF.FilePolarity,Negative*%
%FSLAX46Y46*%
G04 Gerber Fmt 4.6, Leading zero omitted, Abs format (unit mm)*
G04 Created by KiCad (PCBNEW 8.0.0) date 2024-03-20 20:27:36*
%MOMM*%
%LPD*%
G01*
G04 APERTURE LIST*
G04 Aperture macros list*
%AMRoundRect*
0 Rectangle with rounded corners*
0 $1 Rounding radius*
0 $2 $3 $4 $5 $6 $7 $8 $9 X,Y pos of 4 corners*
0 Add a 4 corners polygon primitive as box body*
4,1,4,$2,$3,$4,$5,$6,$7,$8,$9,$2,$3,0*
0 Add four circle primitives for the rounded corners*
1,1,$1+$1,$2,$3*
1,1,$1+$1,$4,$5*
1,1,$1+$1,$6,$7*
1,1,$1+$1,$8,$9*
0 Add four rect primitives between the rounded corners*
20,1,$1+$1,$2,$3,$4,$5,0*
20,1,$1+$1,$4,$5,$6,$7,0*
20,1,$1+$1,$6,$7,$8,$9,0*
20,1,$1+$1,$8,$9,$2,$3,0*%
G04 Aperture macros list end*
%ADD10R,1.000000X1.000000*%
%ADD11O,1.000000X1.000000*%
%ADD12R,1.000000X0.750000*%
%ADD13RoundRect,0.237500X0.300000X0.237500X-0.300000X0.237500X-0.300000X-0.237500X0.300000X-0.237500X0*%
%ADD14RoundRect,0.100000X-0.100000X0.637500X-0.100000X-0.637500X0.100000X-0.637500X0.100000X0.637500X0*%
%ADD15RoundRect,0.237500X-0.250000X-0.237500X0.250000X-0.237500X0.250000X0.237500X-0.250000X0.237500X0*%
%ADD16R,1.700000X1.700000*%
%ADD17O,1.700000X1.700000*%
%ADD18RoundRect,0.125000X-0.125000X-0.125000X0.125000X-0.125000X0.125000X0.125000X-0.125000X0.125000X0*%
%ADD19O,1.800000X1.800000*%
%ADD20O,1.500000X1.500000*%
%ADD21R,1.700000X3.500000*%
%ADD22R,3.500000X1.700000*%
G04 APERTURE END LIST*
D10*
%TO.C,J109*%
X140880000Y-92500000D03*
D11*
X142150000Y-92500000D03*
X143420000Y-92500000D03*
X144690000Y-92500000D03*
X145960000Y-92500000D03*
X147230000Y-92500000D03*
X148500000Y-92500000D03*
X149770000Y-92500000D03*
X151040000Y-92500000D03*
%TD*%
D12*
%TO.C,SW101*%
X149500000Y-98125000D03*
X155500000Y-98125000D03*
X149500000Y-101875000D03*
X155500000Y-101875000D03*
%TD*%
D10*
%TO.C,J107*%
X127650000Y-92500000D03*
D11*
X128920000Y-92500000D03*
X130190000Y-92500000D03*
X131460000Y-92500000D03*
X132730000Y-92500000D03*
X134000000Y-92500000D03*
X135270000Y-92500000D03*
X136540000Y-92500000D03*
X137810000Y-92500000D03*
%TD*%
D10*
%TO.C,J103*%
X128150000Y-109000000D03*
D11*
X129420000Y-109000000D03*
X130690000Y-109000000D03*
X131960000Y-109000000D03*
X133230000Y-109000000D03*
X134500000Y-109000000D03*
X135770000Y-109000000D03*
X137040000Y-109000000D03*
X138310000Y-109000000D03*
%TD*%
D10*
%TO.C,J110*%
X153690000Y-92500000D03*
D11*
X154960000Y-92500000D03*
X156230000Y-92500000D03*
X157500000Y-92500000D03*
X158770000Y-92500000D03*
X160040000Y-92500000D03*
X161310000Y-92500000D03*
X162580000Y-92500000D03*
X163850000Y-92500000D03*
%TD*%
D10*
%TO.C,J106*%
X166425000Y-92415000D03*
D11*
X167695000Y-92415000D03*
X168965000Y-92415000D03*
X170235000Y-92415000D03*
X171505000Y-92415000D03*
X172775000Y-92415000D03*
X174045000Y-92415000D03*
X175315000Y-92415000D03*
X176585000Y-92415000D03*
%TD*%
D13*
%TO.C,C106*%
X176042200Y-105500000D03*
X174317200Y-105500000D03*
%TD*%
D14*
%TO.C,U102*%
X146339200Y-97738000D03*
X145689200Y-97738000D03*
X145039200Y-97738000D03*
X144389200Y-97738000D03*
X143739200Y-97738000D03*
X143089200Y-97738000D03*
X142439200Y-97738000D03*
X141789200Y-97738000D03*
X141139200Y-97738000D03*
X140489200Y-97738000D03*
X140489200Y-103463000D03*
X141139200Y-103463000D03*
X141789200Y-103463000D03*
X142439200Y-103463000D03*
X143089200Y-103463000D03*
X143739200Y-103463000D03*
X144389200Y-103463000D03*
X145039200Y-103463000D03*
X145689200Y-103463000D03*
X146339200Y-103463000D03*
%TD*%
D13*
%TO.C,C101*%
X148026700Y-95754000D03*
X146301700Y-95754000D03*
%TD*%
D15*
%TO.C,R101*%
X160123500Y-94843600D03*
X161948500Y-94843600D03*
%TD*%
D13*
%TO.C,C105*%
X175914700Y-96000000D03*
X174189700Y-96000000D03*
%TD*%
D16*
%TO.C,J104*%
X128650000Y-115570000D03*
D17*
X128650000Y-113030000D03*
X131190000Y-115570000D03*
X131190000Y-113030000D03*
X133730000Y-115570000D03*
X133730000Y-113030000D03*
X136270000Y-115570000D03*
X136270000Y-113030000D03*
X138810000Y-115570000D03*
X138810000Y-113030000D03*
X141350000Y-115570000D03*
X141350000Y-113030000D03*
X143890000Y-115570000D03*
X143890000Y-113030000D03*
X146430000Y-115570000D03*
X146430000Y-113030000D03*
X148970000Y-115570000D03*
X148970000Y-113030000D03*
X151510000Y-115570000D03*
X151510000Y-113030000D03*
X154050000Y-115570000D03*
X154050000Y-113030000D03*
X156590000Y-115570000D03*
X156590000Y-113030000D03*
X159130000Y-115570000D03*
X159130000Y-113030000D03*
X161670000Y-115570000D03*
X161670000Y-113030000D03*
X164210000Y-115570000D03*
X164210000Y-113030000D03*
X166750000Y-115570000D03*
X166750000Y-113030000D03*
X169290000Y-115570000D03*
X169290000Y-113030000D03*
X171830000Y-115570000D03*
X171830000Y-113030000D03*
X174370000Y-115570000D03*
X174370000Y-113030000D03*
X176910000Y-115570000D03*
X176910000Y-113030000D03*
%TD*%
D10*
%TO.C,J101*%
X166500000Y-109000000D03*
D11*
X167770000Y-109000000D03*
X169040000Y-109000000D03*
X170310000Y-109000000D03*
X171580000Y-109000000D03*
X172850000Y-109000000D03*
X174120000Y-109000000D03*
X175390000Y-109000000D03*
X176660000Y-109000000D03*
%TD*%
D10*
%TO.C,J105*%
X141000000Y-109000000D03*
D11*
X142270000Y-109000000D03*
X143540000Y-109000000D03*
X144810000Y-109000000D03*
X146080000Y-109000000D03*
X147350000Y-109000000D03*
X148620000Y-109000000D03*
X149890000Y-109000000D03*
X151160000Y-109000000D03*
%TD*%
D13*
%TO.C,C108*%
X166001000Y-105500000D03*
X164276000Y-105500000D03*
%TD*%
%TO.C,C103*%
X136668000Y-96000000D03*
X134943000Y-96000000D03*
%TD*%
D14*
%TO.C,U103*%
X174500000Y-97984000D03*
X173850000Y-97984000D03*
X173200000Y-97984000D03*
X172550000Y-97984000D03*
X171900000Y-97984000D03*
X171250000Y-97984000D03*
X170600000Y-97984000D03*
X169950000Y-97984000D03*
X169300000Y-97984000D03*
X168650000Y-97984000D03*
X168650000Y-103709000D03*
X169300000Y-103709000D03*
X169950000Y-103709000D03*
X170600000Y-103709000D03*
X171250000Y-103709000D03*
X171900000Y-103709000D03*
X172550000Y-103709000D03*
X173200000Y-103709000D03*
X173850000Y-103709000D03*
X174500000Y-103709000D03*
%TD*%
%TO.C,U105*%
X164443500Y-97984000D03*
X163793500Y-97984000D03*
X163143500Y-97984000D03*
X162493500Y-97984000D03*
X161843500Y-97984000D03*
X161193500Y-97984000D03*
X160543500Y-97984000D03*
X159893500Y-97984000D03*
X159243500Y-97984000D03*
X158593500Y-97984000D03*
X158593500Y-103709000D03*
X159243500Y-103709000D03*
X159893500Y-103709000D03*
X160543500Y-103709000D03*
X161193500Y-103709000D03*
X161843500Y-103709000D03*
X162493500Y-103709000D03*
X163143500Y-103709000D03*
X163793500Y-103709000D03*
X164443500Y-103709000D03*
%TD*%
D18*
%TO.C,D102*%
X151300000Y-105500000D03*
X153500000Y-105500000D03*
%TD*%
D10*
%TO.C,J102*%
X153690000Y-109000000D03*
D11*
X154960000Y-109000000D03*
X156230000Y-109000000D03*
X157500000Y-109000000D03*
X158770000Y-109000000D03*
X160040000Y-109000000D03*
X161310000Y-109000000D03*
X162580000Y-109000000D03*
X163850000Y-109000000D03*
%TD*%
D14*
%TO.C,U101*%
X135358000Y-97984000D03*
X134708000Y-97984000D03*
X134058000Y-97984000D03*
X133408000Y-97984000D03*
X132758000Y-97984000D03*
X132108000Y-97984000D03*
X131458000Y-97984000D03*
X130808000Y-97984000D03*
X130158000Y-97984000D03*
X129508000Y-97984000D03*
X129508000Y-103709000D03*
X130158000Y-103709000D03*
X130808000Y-103709000D03*
X131458000Y-103709000D03*
X132108000Y-103709000D03*
X132758000Y-103709000D03*
X133408000Y-103709000D03*
X134058000Y-103709000D03*
X134708000Y-103709000D03*
X135358000Y-103709000D03*
%TD*%
D13*
%TO.C,C107*%
X166001000Y-96000000D03*
X164276000Y-96000000D03*
%TD*%
D19*
%TO.C,U104*%
X128000000Y-79725000D03*
D20*
X131030000Y-79425000D03*
X131030000Y-74575000D03*
D19*
X128000000Y-74275000D03*
D17*
X127870000Y-85890000D03*
D21*
X127870000Y-86790000D03*
D17*
X130410000Y-85890000D03*
D21*
X130410000Y-86790000D03*
D16*
X132950000Y-85890000D03*
D21*
X132950000Y-86790000D03*
D17*
X135490000Y-85890000D03*
D21*
X135490000Y-86790000D03*
D17*
X138030000Y-85890000D03*
D21*
X138030000Y-86790000D03*
D17*
X140570000Y-85890000D03*
D21*
X140570000Y-86790000D03*
D17*
X143110000Y-85890000D03*
D21*
X143110000Y-86790000D03*
D16*
X145650000Y-85890000D03*
D21*
X145650000Y-86790000D03*
D17*
X148190000Y-85890000D03*
D21*
X148190000Y-86790000D03*
D17*
X150730000Y-85890000D03*
D21*
X150730000Y-86790000D03*
D17*
X153270000Y-85890000D03*
D21*
X153270000Y-86790000D03*
D17*
X155810000Y-85890000D03*
D21*
X155810000Y-86790000D03*
D16*
X158350000Y-85890000D03*
D21*
X158350000Y-86790000D03*
D17*
X160890000Y-85890000D03*
D21*
X160890000Y-86790000D03*
D17*
X163430000Y-85890000D03*
D21*
X163430000Y-86790000D03*
D17*
X165970000Y-85890000D03*
D21*
X165970000Y-86790000D03*
D17*
X168510000Y-85890000D03*
D21*
X168510000Y-86790000D03*
D16*
X171050000Y-85890000D03*
D21*
X171050000Y-86790000D03*
D17*
X173590000Y-85890000D03*
D21*
X173590000Y-86790000D03*
D17*
X176130000Y-85890000D03*
D21*
X176130000Y-86790000D03*
D17*
X176130000Y-68110000D03*
D21*
X176130000Y-67210000D03*
D17*
X173590000Y-68110000D03*
D21*
X173590000Y-67210000D03*
D16*
X171050000Y-68110000D03*
D21*
X171050000Y-67210000D03*
D17*
X168510000Y-68110000D03*
D21*
X168510000Y-67210000D03*
D17*
X165970000Y-68110000D03*
D21*
X165970000Y-67210000D03*
D17*
X163430000Y-68110000D03*
D21*
X163430000Y-67210000D03*
D17*
X160890000Y-68110000D03*
D21*
X160890000Y-67210000D03*
D16*
X158350000Y-68110000D03*
D21*
X158350000Y-67210000D03*
D17*
X155810000Y-68110000D03*
D21*
X155810000Y-67210000D03*
D17*
X153270000Y-68110000D03*
D21*
X153270000Y-67210000D03*
D17*
X150730000Y-68110000D03*
D21*
X150730000Y-67210000D03*
D17*
X148190000Y-68110000D03*
D21*
X148190000Y-67210000D03*
D16*
X145650000Y-68110000D03*
D21*
X145650000Y-67210000D03*
D17*
X143110000Y-68110000D03*
D21*
X143110000Y-67210000D03*
D17*
X140570000Y-68110000D03*
D21*
X140570000Y-67210000D03*
D17*
X138030000Y-68110000D03*
D21*
X138030000Y-67210000D03*
D17*
X135490000Y-68110000D03*
D21*
X135490000Y-67210000D03*
D16*
X132950000Y-68110000D03*
D21*
X132950000Y-67210000D03*
D17*
X130410000Y-68110000D03*
D21*
X130410000Y-67210000D03*
D17*
X127870000Y-68110000D03*
D21*
X127870000Y-67210000D03*
D17*
X175900000Y-79540000D03*
D22*
X176800000Y-79540000D03*
D16*
X175900000Y-77000000D03*
D22*
X176800000Y-77000000D03*
D17*
X175900000Y-74460000D03*
D22*
X176800000Y-74460000D03*
%TD*%
D13*
%TO.C,C102*%
X148026700Y-105254000D03*
X146301700Y-105254000D03*
%TD*%
%TO.C,C104*%
X136923000Y-105500000D03*
X135198000Y-105500000D03*
%TD*%
M02*
